<?xml version="1.0" encoding="UTF-8" standalone="no"?>
<!DOCTYPE svg PUBLIC "-//W3C//DTD SVG 1.1//EN" "http://www.w3.org/Graphics/SVG/1.1/DTD/svg11.dtd">
<svg width="57px" height="152px" version="1.1" xmlns="http://www.w3.org/2000/svg" xmlns:xlink="http://www.w3.org/1999/xlink" xml:space="preserve" xmlns:serif="http://www.serif.com/" style="fill-rule:evenodd;clip-rule:evenodd;stroke-linejoin:round;stroke-miterlimit:2;">
    <g transform="matrix(1,0,0,1,0,7.55906)">
        <path d="M54.803,-1.283L54.803,137.346C54.803,138.724 53.685,139.843 52.307,139.843L4.386,139.843C3.008,139.843 1.89,138.724 1.89,137.346L1.89,-1.283C1.89,-2.661 3.008,-3.78 4.386,-3.78L52.307,-3.78C53.685,-3.78 54.803,-2.661 54.803,-1.283ZM28.346,56.068C33.678,56.068 38.44,58.527 41.56,62.371C41.57,62.161 41.575,61.95 41.575,61.737C41.575,54.436 35.647,48.509 28.346,48.509C21.046,48.509 15.118,54.436 15.118,61.737C15.118,61.95 15.123,62.161 15.133,62.371C18.252,58.527 23.015,56.068 28.346,56.068ZM28.346,71.356C27.351,71.356 26.542,72.165 26.542,73.161C26.542,74.157 27.351,74.965 28.346,74.965C29.342,74.965 30.151,74.157 30.151,73.161C30.151,72.165 29.342,71.356 28.346,71.356ZM28.346,65.517C26.735,65.517 25.427,66.825 25.427,68.437C25.427,70.048 26.735,71.356 28.346,71.356C29.958,71.356 31.266,70.048 31.266,68.437C31.266,66.825 29.958,65.517 28.346,65.517ZM28.346,56.068C25.739,56.068 23.622,58.185 23.622,60.792C23.622,63.4 25.739,65.517 28.346,65.517C30.954,65.517 33.071,63.4 33.071,60.792C33.071,58.185 30.954,56.068 28.346,56.068ZM28.346,35.281C33.561,35.281 37.795,31.047 37.795,25.832C37.795,20.617 33.561,16.383 28.346,16.383C23.132,16.383 18.898,20.617 18.898,25.832C18.898,31.047 23.132,35.281 28.346,35.281ZM28.346,16.383C30.338,16.383 31.955,14.766 31.955,12.774C31.955,10.94 30.585,9.424 28.813,9.195L28.813,6.447C29.441,6.747 30.002,7.618 30.385,8.645C30.385,4.394 28.346,0.944 28.346,0.944C28.346,0.944 26.308,4.394 26.308,8.645C26.691,7.618 27.251,6.747 27.88,6.447L27.88,9.195C26.108,9.424 24.738,10.94 24.738,12.774C24.738,14.766 26.355,16.383 28.346,16.383ZM28.346,48.509C31.997,48.509 34.961,45.545 34.961,41.895C34.961,38.244 31.997,35.281 28.346,35.281C24.696,35.281 21.732,38.244 21.732,41.895C21.732,45.545 24.696,48.509 28.346,48.509ZM28.346,37.17C30.954,37.17 33.071,39.287 33.071,41.895C33.071,44.502 30.954,46.619 28.346,46.619C25.739,46.619 23.622,44.502 23.622,41.895C23.622,39.287 25.739,37.17 28.346,37.17ZM34.639,98.269C34.639,100.416 36.382,102.158 38.529,102.158C40.675,102.158 42.418,100.416 42.418,98.269C42.418,96.123 40.675,94.38 38.529,94.38C36.382,94.38 34.639,96.123 34.639,98.269ZM28.346,86.307C40.862,86.307 51.024,76.146 51.024,63.63L51.024,63.624C45.85,70.511 37.615,74.968 28.346,74.968C19.078,74.968 10.843,70.511 5.669,63.624L5.669,63.63C5.669,76.146 15.831,86.307 28.346,86.307ZM28.346,91.976C29.911,91.976 31.181,90.706 31.181,89.142C31.181,87.577 29.911,86.307 28.346,86.307C26.782,86.307 25.512,87.577 25.512,89.142C25.512,90.706 26.782,91.976 28.346,91.976ZM34.639,98.269C34.639,94.796 31.82,91.976 28.346,91.976C24.873,91.976 22.054,94.796 22.054,98.269C22.054,101.421 24.376,104.035 27.402,104.491L27.402,110.485C22.798,110.723 18.648,112.69 15.589,115.748C13.853,117.484 12.469,119.572 11.553,121.895C11.482,121.892 11.41,121.891 11.339,121.891C7.688,121.891 4.724,124.855 4.724,128.505C4.724,132.156 7.688,135.119 11.339,135.119C14.989,135.119 17.953,132.156 17.953,128.505C17.953,125.595 16.068,123.12 13.454,122.237C14.272,120.298 15.459,118.551 16.925,117.084C19.642,114.368 23.319,112.613 27.402,112.377L27.402,121.958C24.198,122.417 21.732,125.176 21.732,128.505C21.732,132.156 24.696,135.119 28.346,135.119C31.997,135.119 34.961,132.156 34.961,128.505C34.961,125.176 32.495,122.417 29.291,121.958L29.291,112.377C35.578,112.741 40.905,116.705 43.239,122.237C40.624,123.12 38.74,125.595 38.74,128.505C38.74,132.156 41.704,135.119 45.354,135.119C49.005,135.119 51.969,132.156 51.969,128.505C51.969,124.855 49.005,121.891 45.354,121.891C45.283,121.891 45.211,121.892 45.14,121.895C42.61,115.48 36.509,110.858 29.291,110.485L29.291,104.491C32.317,104.035 34.639,101.421 34.639,98.269ZM42.418,98.269C42.418,99.596 43.495,100.673 44.822,100.673C46.148,100.673 47.225,99.596 47.225,98.269C47.225,96.942 46.148,95.865 44.822,95.865C43.495,95.865 42.418,96.942 42.418,98.269ZM22.054,98.269C22.054,96.123 20.311,94.38 18.164,94.38C16.018,94.38 14.275,96.123 14.275,98.269C14.275,100.416 16.018,102.158 18.164,102.158C20.311,102.158 22.054,100.416 22.054,98.269ZM14.275,98.269C14.275,96.942 13.198,95.865 11.871,95.865C10.545,95.865 9.468,96.942 9.468,98.269C9.468,99.596 10.545,100.673 11.871,100.673C13.198,100.673 14.275,99.596 14.275,98.269ZM43.87,124.019C44.089,124.778 44.254,125.56 44.36,126.361C43.579,126.758 43.043,127.569 43.043,128.505C43.043,129.832 44.12,130.909 45.447,130.909C46.773,130.909 47.85,129.832 47.85,128.505C47.85,127.46 47.182,126.57 46.25,126.239C46.146,125.407 45.985,124.592 45.77,123.799C48.183,124.01 50.079,126.038 50.079,128.505C50.079,131.113 47.962,133.23 45.354,133.23C42.747,133.23 40.63,131.113 40.63,128.505C40.63,126.416 41.989,124.642 43.87,124.019ZM27.402,123.876L27.402,126.295C26.544,126.662 25.943,127.514 25.943,128.505C25.943,129.832 27.02,130.909 28.346,130.909C29.673,130.909 30.75,129.832 30.75,128.505C30.75,127.514 30.149,126.662 29.291,126.295L29.291,123.876C31.447,124.314 33.071,126.221 33.071,128.505C33.071,131.113 30.954,133.23 28.346,133.23C25.739,133.23 23.622,131.113 23.622,128.505C23.622,126.221 25.246,124.314 27.402,123.876ZM10.922,123.799C10.708,124.592 10.547,125.407 10.443,126.239C9.511,126.57 8.843,127.46 8.843,128.505C8.843,129.832 9.92,130.909 11.246,130.909C12.573,130.909 13.65,129.832 13.65,128.505C13.65,127.569 13.114,126.758 12.333,126.361C12.439,125.56 12.604,124.778 12.823,124.019C14.704,124.642 16.063,126.416 16.063,128.505C16.063,131.113 13.946,133.23 11.339,133.23C8.731,133.23 6.614,131.113 6.614,128.505C6.614,126.038 8.51,124.01 10.922,123.799Z"/>
    </g>
</svg>
