<?xml version="1.0" encoding="UTF-8" standalone="no"?>
<!DOCTYPE svg PUBLIC "-//W3C//DTD SVG 1.1//EN" "http://www.w3.org/Graphics/SVG/1.1/DTD/svg11.dtd">
<svg width="50px" height="50px" version="1.1" xmlns="http://www.w3.org/2000/svg" xmlns:xlink="http://www.w3.org/1999/xlink" xml:space="preserve" xmlns:serif="http://www.serif.com/" style="fill-rule:evenodd;clip-rule:evenodd;stroke-linecap:round;stroke-linejoin:round;stroke-miterlimit:1.5;">
    <g transform="matrix(2.05682,0,0,2.53971,-25.1646,-47.778)">
        <path d="M32.999,19.556C34.217,19.556 35.204,20.356 35.204,21.342L35.204,35.629C35.204,36.615 34.217,37.415 32.999,37.415L15.359,37.415C14.141,37.415 13.154,36.615 13.154,35.629L13.154,21.342C13.154,20.356 14.141,19.556 15.359,19.556L32.999,19.556Z" style="fill:none;stroke:rgb(35,31,32);stroke-width:0.58px;"/>
    </g>
    <g transform="matrix(0.32,0,0,0.32,0.103302,16.101)">
        <g transform="matrix(83.3333,0,0,83.3333,40.4905,43.8176)">
            <path d="M0.459,-0.166L0.166,-0.166L0.166,-0.278L0.459,-0.278L0.459,-0.166ZM0.296,-0.575L0.329,-0.575L0.127,-0L0.003,-0L0.252,-0.7L0.373,-0.7L0.622,-0L0.498,-0L0.296,-0.575Z" style="fill:rgb(35,31,32);fill-rule:nonzero;"/>
        </g>
        <g transform="matrix(83.3333,0,0,83.3333,91.9905,43.8176)">
            <path d="M0.186,0.01C0.156,0.01 0.132,0.004 0.113,-0.008C0.094,-0.02 0.081,-0.035 0.072,-0.055C0.063,-0.075 0.058,-0.097 0.058,-0.121L0.058,-0.75L0.182,-0.75L0.182,-0.172C0.182,-0.145 0.184,-0.126 0.187,-0.115C0.19,-0.104 0.196,-0.097 0.205,-0.095C0.213,-0.093 0.226,-0.092 0.242,-0.092L0.231,0.01L0.186,0.01Z" style="fill:rgb(35,31,32);fill-rule:nonzero;"/>
        </g>
        <g transform="matrix(83.3333,0,0,83.3333,113.907,43.8176)">
        </g>
    </g>
    <g transform="matrix(0.32,0,0,0.32,7.12603,2.23124)">
        <g transform="matrix(20.8333,0,0,20.8333,28.933,110.342)">
            <path d="M0.024,-0L0.346,-0.758L0.353,-0.758L0.675,-0L0.541,-0L0.315,-0.576L0.398,-0.632L0.139,-0L0.024,-0ZM0.226,-0.271L0.475,-0.271L0.515,-0.171L0.191,-0.171L0.226,-0.271Z" style="fill:rgb(35,31,32);fill-rule:nonzero;"/>
        </g>
        <g transform="matrix(20.8333,0,0,20.8333,43.4955,110.342)">
            <rect x="0.077" y="-0.78" width="0.112" height="0.78" style="fill:rgb(35,31,32);fill-rule:nonzero;"/>
        </g>
        <g transform="matrix(20.8333,0,0,20.8333,49.0434,110.342)">
            <path d="M0.213,0.018C0.174,0.018 0.142,0.006 0.117,-0.017C0.092,-0.041 0.078,-0.071 0.077,-0.109L0.077,-0.423L0.189,-0.423L0.189,-0.149C0.191,-0.128 0.196,-0.111 0.207,-0.098C0.218,-0.085 0.235,-0.078 0.258,-0.078C0.28,-0.078 0.3,-0.084 0.317,-0.098C0.334,-0.112 0.347,-0.131 0.357,-0.155C0.367,-0.179 0.372,-0.206 0.372,-0.236L0.372,-0.423L0.484,-0.423L0.484,-0L0.383,-0L0.374,-0.093L0.377,-0.079C0.368,-0.06 0.356,-0.043 0.34,-0.029C0.324,-0.014 0.305,-0.002 0.284,0.006C0.262,0.014 0.239,0.018 0.213,0.018Z" style="fill:rgb(35,31,32);fill-rule:nonzero;"/>
        </g>
        <g transform="matrix(20.8333,0,0,20.8333,60.7413,110.342)">
            <path d="M0.114,-0L0.114,-0.325L0.042,-0.325L0.042,-0.424L0.114,-0.424L0.114,-0.59C0.114,-0.649 0.129,-0.695 0.159,-0.729C0.188,-0.763 0.231,-0.779 0.288,-0.779C0.304,-0.779 0.322,-0.777 0.341,-0.772C0.36,-0.768 0.377,-0.76 0.392,-0.75L0.345,-0.669C0.339,-0.676 0.332,-0.681 0.324,-0.683C0.316,-0.686 0.308,-0.687 0.3,-0.687C0.277,-0.687 0.259,-0.68 0.246,-0.664C0.233,-0.649 0.226,-0.623 0.226,-0.587L0.226,-0.424L0.358,-0.424L0.358,-0.325L0.226,-0.325L0.226,-0L0.114,-0Z" style="fill:rgb(35,31,32);fill-rule:nonzero;"/>
        </g>
        <g transform="matrix(20.8333,0,0,20.8333,68.8809,110.342)">
            <path d="M0.042,-0.216C0.042,-0.259 0.052,-0.297 0.072,-0.331C0.092,-0.366 0.121,-0.392 0.157,-0.412C0.193,-0.432 0.234,-0.442 0.28,-0.442C0.327,-0.442 0.368,-0.432 0.403,-0.412C0.438,-0.392 0.466,-0.366 0.485,-0.331C0.504,-0.297 0.514,-0.259 0.514,-0.216C0.514,-0.174 0.504,-0.135 0.485,-0.101C0.466,-0.066 0.438,-0.039 0.403,-0.019C0.368,0.001 0.327,0.011 0.279,0.011C0.233,0.011 0.193,0.002 0.157,-0.017C0.121,-0.035 0.093,-0.061 0.073,-0.095C0.052,-0.129 0.042,-0.17 0.042,-0.216ZM0.155,-0.215C0.155,-0.19 0.16,-0.167 0.171,-0.147C0.182,-0.127 0.196,-0.111 0.215,-0.099C0.234,-0.087 0.254,-0.081 0.277,-0.081C0.302,-0.081 0.323,-0.087 0.342,-0.099C0.36,-0.111 0.374,-0.127 0.385,-0.147C0.395,-0.167 0.4,-0.19 0.4,-0.215C0.4,-0.241 0.395,-0.263 0.385,-0.284C0.374,-0.304 0.36,-0.32 0.342,-0.332C0.323,-0.344 0.302,-0.35 0.277,-0.35C0.254,-0.35 0.233,-0.344 0.215,-0.331C0.196,-0.319 0.182,-0.303 0.171,-0.283C0.16,-0.263 0.155,-0.24 0.155,-0.215Z" style="fill:rgb(35,31,32);fill-rule:nonzero;"/>
        </g>
        <g transform="matrix(20.8333,0,0,20.8333,80.4517,110.342)">
        </g>
    </g>
    <g transform="matrix(0.32,0,0,0.32,7.02138,7.86003)">
        <g transform="matrix(16.6667,0,0,16.6667,45.2715,110.342)">
            <path d="M0.052,-0.66L0.235,-0.66L0.235,-0L0.118,-0L0.118,-0.548L0.052,-0.548L0.052,-0.66Z" style="fill:rgb(35,31,32);fill-rule:nonzero;"/>
        </g>
        <g transform="matrix(16.6667,0,0,16.6667,50.8599,110.342)">
            <path d="M0.026,-0.061C0.026,-0.078 0.033,-0.092 0.045,-0.104C0.058,-0.116 0.072,-0.122 0.087,-0.122C0.101,-0.122 0.114,-0.116 0.127,-0.104C0.14,-0.092 0.146,-0.078 0.146,-0.061C0.146,-0.042 0.14,-0.028 0.127,-0.017C0.114,-0.006 0.101,-0 0.087,-0C0.072,-0 0.058,-0.006 0.045,-0.017C0.033,-0.028 0.026,-0.042 0.026,-0.061Z" style="fill:rgb(35,31,32);fill-rule:nonzero;"/>
        </g>
        <g transform="matrix(16.6667,0,0,16.6667,53.6915,110.342)">
            <path d="M0.313,0.002C0.273,0.002 0.237,-0.005 0.203,-0.019C0.169,-0.034 0.14,-0.055 0.115,-0.084C0.09,-0.113 0.07,-0.148 0.056,-0.189C0.042,-0.231 0.035,-0.279 0.035,-0.333C0.035,-0.392 0.042,-0.443 0.055,-0.485C0.069,-0.527 0.088,-0.562 0.112,-0.589C0.137,-0.616 0.166,-0.636 0.2,-0.649C0.234,-0.661 0.272,-0.667 0.313,-0.667C0.352,-0.667 0.389,-0.66 0.423,-0.646C0.456,-0.631 0.486,-0.61 0.511,-0.581C0.536,-0.553 0.555,-0.518 0.569,-0.476C0.583,-0.435 0.59,-0.387 0.59,-0.333C0.59,-0.277 0.583,-0.229 0.569,-0.187C0.555,-0.145 0.535,-0.11 0.51,-0.082C0.485,-0.054 0.456,-0.033 0.422,-0.019C0.389,-0.005 0.352,0.002 0.313,0.002ZM0.312,-0.109C0.348,-0.109 0.378,-0.119 0.401,-0.138C0.425,-0.157 0.442,-0.184 0.453,-0.219C0.464,-0.253 0.469,-0.292 0.469,-0.336C0.469,-0.379 0.464,-0.417 0.453,-0.45C0.442,-0.482 0.425,-0.508 0.401,-0.527C0.378,-0.546 0.348,-0.555 0.312,-0.555C0.276,-0.555 0.246,-0.546 0.223,-0.527C0.2,-0.508 0.183,-0.482 0.172,-0.448C0.162,-0.415 0.156,-0.377 0.156,-0.333C0.156,-0.29 0.162,-0.252 0.172,-0.218C0.183,-0.184 0.2,-0.157 0.223,-0.138C0.246,-0.119 0.276,-0.109 0.312,-0.109Z" style="fill:rgb(35,31,32);fill-rule:nonzero;"/>
        </g>
        <g transform="matrix(16.6667,0,0,16.6667,64.1132,110.342)">
        </g>
    </g>
    <g transform="matrix(0.32,0,0,0.32,-1.57593,3.29972)">
        <g transform="matrix(20.8333,0,0,20.8333,21.5622,21.1549)">
            <path d="M0.052,-0.66L0.235,-0.66L0.235,-0L0.118,-0L0.118,-0.548L0.052,-0.548L0.052,-0.66Z" style="fill:rgb(35,31,32);fill-rule:nonzero;"/>
        </g>
        <g transform="matrix(20.8333,0,0,20.8333,28.5476,21.1549)">
            <path d="M0.445,-0.66L0.279,-0.375L0.213,-0.408C0.221,-0.412 0.229,-0.415 0.239,-0.417C0.248,-0.419 0.257,-0.42 0.266,-0.42C0.291,-0.421 0.314,-0.418 0.338,-0.412C0.361,-0.405 0.382,-0.394 0.401,-0.379C0.42,-0.364 0.435,-0.343 0.446,-0.317C0.457,-0.291 0.463,-0.259 0.463,-0.22C0.463,-0.173 0.452,-0.132 0.43,-0.098C0.409,-0.064 0.38,-0.037 0.345,-0.019C0.309,-0.001 0.27,0.008 0.228,0.008C0.196,0.008 0.163,0.001 0.129,-0.012C0.096,-0.025 0.069,-0.043 0.048,-0.065L0.107,-0.161C0.118,-0.147 0.135,-0.134 0.157,-0.122C0.178,-0.11 0.201,-0.104 0.225,-0.104C0.245,-0.104 0.265,-0.109 0.283,-0.119C0.3,-0.128 0.315,-0.142 0.326,-0.161C0.337,-0.179 0.343,-0.201 0.343,-0.227C0.343,-0.261 0.333,-0.289 0.313,-0.309C0.293,-0.329 0.265,-0.339 0.23,-0.339C0.211,-0.339 0.195,-0.338 0.183,-0.335C0.171,-0.333 0.16,-0.33 0.149,-0.327L0.146,-0.33L0.286,-0.563L0.321,-0.548L0.093,-0.548L0.093,-0.66L0.445,-0.66Z" style="fill:rgb(35,31,32);fill-rule:nonzero;"/>
        </g>
        <g transform="matrix(20.8333,0,0,20.8333,39.483,21.1549)">
        </g>
    </g>
</svg>
