<?xml version="1.0" encoding="UTF-8" standalone="no"?>
<!DOCTYPE svg PUBLIC "-//W3C//DTD SVG 1.1//EN" "http://www.w3.org/Graphics/SVG/1.1/DTD/svg11.dtd">
<svg width="76px" height="84px" version="1.1" xmlns="http://www.w3.org/2000/svg" xmlns:xlink="http://www.w3.org/1999/xlink" xml:space="preserve" xmlns:serif="http://www.serif.com/" style="fill-rule:evenodd;clip-rule:evenodd;stroke-linecap:round;stroke-linejoin:round;stroke-miterlimit:42.4;">
    <g id="Guide" transform="matrix(0.728134,0,0,0.792292,20.5505,0)">
        <rect x="74.319" y="0" width="1.272" height="1.169" style="fill:rgb(255,0,9);"/>
    </g>
    <g id="Cow" transform="matrix(0.0452718,-0.00879994,0.00879994,0.0452718,29.4552,44.4667)">
        <g id="g3523" transform="matrix(1,0,0,1,-39.1503,47.5036)">
            <g id="g3175" transform="matrix(1,0,0,1,20.5918,-1.19617)">
                <path id="rect3650" d="M138.183,629.313C141.22,624.537 146.559,621.365 152.633,621.365C162.078,621.365 169.746,629.033 169.746,638.478L169.746,694.705C169.746,704.149 162.078,711.817 152.633,711.817C151.728,711.817 150.839,711.747 149.971,711.611C151.657,708.961 152.633,705.816 152.633,702.446L152.633,646.219C152.633,637.68 146.365,630.593 138.183,629.313Z" style="fill:none;stroke:black;stroke-width:8px;"/>
                <path id="rect3644" d="M152.633,646.219L152.633,702.446C152.633,711.891 144.965,719.558 135.521,719.558C126.076,719.558 118.408,711.891 118.408,702.446L118.408,646.219C118.408,636.774 126.076,629.107 135.521,629.107C144.965,629.107 152.633,636.774 152.633,646.219Z" style="fill:none;stroke:black;stroke-width:8px;"/>
            </g>
            <g id="g3179" transform="matrix(1,0,0,1,361.254,-1.19617)">
                <path id="rect3181" d="M138.183,629.313C141.22,624.537 146.559,621.365 152.633,621.365C162.078,621.365 169.746,629.033 169.746,638.478L169.746,694.705C169.746,704.149 162.078,711.817 152.633,711.817C151.728,711.817 150.839,711.747 149.971,711.611C151.657,708.961 152.633,705.816 152.633,702.446L152.633,646.219C152.633,637.68 146.365,630.593 138.183,629.313Z" style="fill:none;stroke:black;stroke-width:8px;"/>
                <path id="rect3183" d="M152.633,646.219L152.633,702.446C152.633,711.891 144.965,719.558 135.521,719.558C126.076,719.558 118.408,711.891 118.408,702.446L118.408,646.219C118.408,636.774 126.076,629.107 135.521,629.107C144.965,629.107 152.633,636.774 152.633,646.219Z" style="fill:none;stroke:black;stroke-width:8px;"/>
            </g>
            <g id="g3518">
                <path id="rect3636" d="M554,507.197L554,623.046C554,636.832 542.807,648.025 529.021,648.025L140.979,648.025C127.193,648.025 116,636.832 116,623.046L116,395.129C116,381.343 127.193,370.15 140.979,370.15L483.703,370.15C483.703,370.15 532.984,409.592 510.075,418.593C485.329,428.314 406.745,337.81 389.207,417.065C383.765,441.659 441.762,440.239 435.484,471.014C427.949,507.947 395.551,476.971 378.975,492.459C362.399,507.947 381.989,557.985 400.825,568.708C419.661,579.43 434.73,516.286 458.087,580.622C481.444,644.957 523.637,546.071 546.24,521.052C549.315,517.648 551.926,512.866 554,507.197ZM314.861,568.567C335.433,479.475 280.225,422.759 241.652,446.359C203.08,469.958 230.563,493.133 178.957,494.969C130.14,496.705 142.818,526.438 159.474,553.078C176.13,579.717 211.098,604.007 229.796,602.072C258.646,599.087 223.49,555.32 260.316,576.948C301.701,601.254 314.627,569.58 314.861,568.567Z" style="stroke:black;stroke-width:12px;"/>
            </g>
        </g>
        <g id="g3692">
            <g id="g3385" transform="matrix(1,0,0,1,-61.4949,42.0081)">
                <path id="path7300" d="M548.881,298.762C548.881,242.799 524.799,242.993 524.799,242.993C520.586,242.993 517.194,246.385 517.194,250.598L517.194,298.762C517.194,302.975 520.586,306.367 524.799,306.367L541.276,306.367C545.489,306.367 548.881,302.953 548.881,298.762Z" style="fill:none;fill-rule:nonzero;stroke:black;stroke-width:8px;stroke-miterlimit:29.6;"/>
                <path id="path3538" d="M615.514,299.515C615.514,243.552 639.596,243.746 639.596,243.746C643.809,243.746 647.201,247.138 647.201,251.351L647.201,299.515C647.201,303.728 643.809,307.12 639.596,307.12L623.119,307.12C618.906,307.12 615.514,303.706 615.514,299.515Z" style="fill:none;fill-rule:nonzero;stroke:black;stroke-width:8px;stroke-miterlimit:29.6;"/>
            </g>
            <path id="rect3282" d="M437.277,344.596L604.486,344.596C608.726,344.596 612.14,347.466 612.14,351.032L583.082,546.027C581.086,556.265 574.749,559.434 555.737,559.434L489.194,559.434C470.182,559.434 463.845,556.265 462.312,546.027L429.623,351.032C429.623,347.466 433.037,344.596 437.277,344.596ZM569.404,403.177C569.404,387.33 562.745,374.289 554.653,374.289C546.561,374.289 539.902,387.33 539.902,403.177C539.902,419.025 546.561,432.065 554.653,432.065C562.745,432.065 569.404,419.025 569.404,403.177ZM501.504,403.177C501.504,387.33 494.845,374.289 486.752,374.289C478.66,374.289 472.001,387.33 472.001,403.177C472.001,419.025 478.66,432.065 486.752,432.065C494.845,432.065 501.504,419.025 501.504,403.177Z" style="stroke:black;stroke-width:8px;stroke-miterlimit:29.6;"/>
            <g id="g3381" transform="matrix(1,0,0,1,-61.4949,42.0081)">
                <g id="path3550" transform="matrix(0,-0.421436,0.379013,0,168.713,386.754)">
                    <path d="M148.571,778.791C148.571,819.151 135.674,852.362 120,852.362C104.326,852.362 91.429,819.151 91.429,778.791C91.429,738.431 104.326,705.219 120,705.219C135.674,705.219 148.571,738.431 148.571,778.791Z" style="fill-rule:nonzero;stroke:black;stroke-width:30.03px;stroke-miterlimit:4;"/>
                </g>
                <g id="path2180" transform="matrix(0,-0.421436,0.379013,0,405.339,386.754)">
                    <path d="M148.571,778.791C148.571,819.151 135.674,852.362 120,852.362C104.326,852.362 91.429,819.151 91.429,778.791C91.429,738.431 104.326,705.219 120,705.219C135.674,705.219 148.571,738.431 148.571,778.791Z" style="fill-rule:nonzero;stroke:black;stroke-width:30.03px;stroke-miterlimit:4;"/>
                </g>
            </g>
        </g>
    </g>
    <g transform="matrix(0.161436,0.0587579,-0.0587579,0.161436,2.96902,-11.358)">
        <g id="UFO">
            <g>
                <path d="M61.2,60.236L103.5,60.236C197.182,14.653 306.818,14.653 400.5,60.236L442.8,60.236C446.75,60.236 450,63.486 450,67.436L450,165.477C450,169.427 446.75,172.677 442.8,172.677L369,172.677C365.252,189.479 350.215,201.531 333,201.531C320.518,201.531 308.854,195.195 302.059,184.725L201.941,184.725C195.146,195.195 183.482,201.531 171,201.531C153.785,201.531 138.748,189.479 135,172.677L61.2,172.677C57.25,172.677 54,169.427 54,165.477L54,67.436C54,63.487 57.25,60.237 61.2,60.236Z" style="fill:none;fill-rule:nonzero;stroke:black;stroke-width:5.04px;stroke-miterlimit:4;"/>
            </g>
        </g>
    </g>
</svg>
