<?xml version="1.0" encoding="UTF-8" standalone="no"?>
<!DOCTYPE svg PUBLIC "-//W3C//DTD SVG 1.1//EN" "http://www.w3.org/Graphics/SVG/1.1/DTD/svg11.dtd">
<svg width="76px" height="84px" version="1.1" xmlns="http://www.w3.org/2000/svg" xmlns:xlink="http://www.w3.org/1999/xlink" xml:space="preserve" xmlns:serif="http://www.serif.com/" style="fill-rule:evenodd;clip-rule:evenodd;stroke-linejoin:round;stroke-miterlimit:2;">
    <g id="Guide" transform="matrix(0.728134,0,0,0.792292,20.5505,0)">
        <rect x="74.319" y="0" width="1.272" height="1.169" style="fill:rgb(255,0,9);"/>
    </g>
    <g id="Lights" transform="matrix(3.77953,0,0,3.77953,1.37613,-0.978898)">
        <g transform="matrix(0.939693,0.34202,-0.34202,0.939693,1.12778,-0.516393)">
            <g transform="matrix(0.249352,3.46046e-18,0,0.311691,-0.581932,-0.961706)">
                <circle cx="12.072" cy="14.121" r="1.604" style="fill:rgb(128,128,128);"/>
            </g>
            <g transform="matrix(0.249352,3.46046e-18,0,0.311691,14.6181,-0.961706)">
                <circle cx="12.072" cy="14.121" r="1.604" style="fill:rgb(128,128,128);"/>
            </g>
            <g transform="matrix(0.249352,3.46046e-18,0,0.311691,12.4466,-0.961706)">
                <circle cx="12.072" cy="14.121" r="1.604" style="fill:rgb(128,128,128);"/>
            </g>
            <g transform="matrix(0.249352,3.46046e-18,0,0.311691,10.2752,-0.961706)">
                <circle cx="12.072" cy="14.121" r="1.604" style="fill:rgb(128,128,128);"/>
            </g>
            <g transform="matrix(0.249352,3.46046e-18,0,0.311691,8.10378,-0.961706)">
                <circle cx="12.072" cy="14.121" r="1.604" style="fill:rgb(128,128,128);"/>
            </g>
            <g transform="matrix(0.249352,3.46046e-18,0,0.311691,5.93235,-0.961706)">
                <circle cx="12.072" cy="14.121" r="1.604" style="fill:rgb(128,128,128);"/>
            </g>
            <g transform="matrix(0.249352,3.46046e-18,0,0.311691,3.76093,-0.961706)">
                <circle cx="12.072" cy="14.121" r="1.604" style="fill:rgb(128,128,128);"/>
            </g>
            <g transform="matrix(0.249352,3.46046e-18,0,0.311691,1.5895,-0.961706)">
                <circle cx="12.072" cy="14.121" r="1.604" style="fill:rgb(128,128,128);"/>
            </g>
        </g>
        <g transform="matrix(0.245459,0.0893399,-0.049938,0.137203,-0.898396,1.74712)">
            <path d="M73.343,12.806C73.343,13.751 72.914,14.518 72.386,14.518L13.047,14.518C12.519,14.518 12.09,13.751 12.09,12.806C12.09,11.861 12.519,11.094 13.047,11.094L72.386,11.094C72.914,11.094 73.343,11.861 73.343,12.806Z" style="fill:rgb(128,128,128);"/>
        </g>
        <g transform="matrix(0.245459,0.0893399,-0.049938,0.137203,-0.0433457,-0.602115)">
            <path d="M73.343,12.806C73.343,13.751 72.914,14.518 72.386,14.518L13.047,14.518C12.519,14.518 12.09,13.751 12.09,12.806C12.09,11.861 12.519,11.094 13.047,11.094L72.386,11.094C72.914,11.094 73.343,11.861 73.343,12.806Z" style="fill:rgb(128,128,128);"/>
        </g>
    </g>
    <g id="Beams--as-shapes-" serif:id="Beams (as shapes)" transform="matrix(3.77953,0,0,3.77953,1.37613,-0.978898)">
        <g id="Beams">
            <g id="Beams--as-shapes-1" serif:id="Beams (as shapes)">
                <g transform="matrix(0.208346,-0.00105669,0.0134104,0.212282,1.42503,2.34265)">
                    <path d="M45.123,43.472C45.273,43.128 45.673,42.952 46.016,43.079C46.359,43.206 46.516,43.589 46.366,43.933L37.103,65.179C36.953,65.523 36.552,65.699 36.209,65.572C35.866,65.445 35.709,65.062 35.859,64.718L45.123,43.472Z" style="fill:rgb(128,128,128);"/>
                </g>
                <g transform="matrix(0.226822,-0.00170805,-0.00133026,0.142708,1.40666,5.95863)">
                    <path d="M46.631,40.374C46.628,39.829 46.904,39.389 47.247,39.393C47.591,39.397 47.872,39.844 47.875,40.389L48.037,67.881C48.04,68.427 47.764,68.866 47.42,68.862C47.077,68.858 46.795,68.412 46.792,67.866L46.631,40.374Z" style="fill:rgb(128,128,128);"/>
                </g>
                <g transform="matrix(0.225651,-0.037618,-0.0321195,0.173483,3.04457,6.30455)">
                    <path d="M47.694,41.196C47.44,40.769 47.444,40.264 47.702,40.069C47.961,39.874 48.377,40.063 48.63,40.49L58.792,57.593C59.046,58.021 59.042,58.526 58.784,58.721C58.525,58.916 58.109,58.727 57.856,58.3L47.694,41.196Z" style="fill:rgb(128,128,128);"/>
                </g>
            </g>
        </g>
    </g>
</svg>
