<?xml version="1.0" standalone="no"?>
 <!DOCTYPE svg PUBLIC "-//W3C//DTD SVG 1.1//EN" 
 "http://www.w3.org/Graphics/SVG/1.1/DTD/svg11.dtd"> 
<svg
  xmlns:svg="http://www.w3.org/2000/svg"
  xmlns="http://www.w3.org/2000/svg"
  xmlns:xlink="http://www.w3.org/1999/xlink"
  version="1.1"
  width="300.8122mm" height="121.8692mm" viewBox="0.0000 0.0000 300.8122 121.8692">
<title>SVG Image created as Alufo-User_9.svg date 2024/11/09 20:53:10 </title>
  <desc>Image generated by PCBNEW </desc>
<g style="fill:#000000; fill-opacity:1.0000;stroke:#000000; stroke-opacity:1.0000;
stroke-linecap:round; stroke-linejoin:round;"
 transform="translate(0 0) scale(1 1)">
</g>
<g style="fill:none; 
stroke:#000000; stroke-width:0.1000; stroke-opacity:1; 
stroke-linecap:round; stroke-linejoin:round;">
<circle cx="190.8449" cy="76.4965" r="3.3500" /> 
<path style="fill:none; 
stroke:#000000; stroke-width:0.1000; stroke-opacity:1; 
stroke-linecap:round; stroke-linejoin:round;fill:none"
d="M 165.3920,14.2154
165.3940,14.2662
165.4276,14.3620
165.4577,14.4028
165.7263,14.7385
165.7564,14.7794
165.7900,14.8751
165.7920,14.9259
165.7920,15.7154
165.7900,15.7662
165.7564,15.8620
165.7263,15.9028
165.4577,16.2385
165.4276,16.2794
165.3940,16.3751
165.3920,16.4259
165.3920,18.1454
165.3940,18.1962
165.4276,18.2920
165.4577,18.3328
165.7263,18.6685
165.7564,18.7094
165.7900,18.8051
165.7920,18.8559
165.7920,19.8507
165.7898,19.9489
165.7514,20.1417
165.6762,20.3233
165.5670,20.4867
165.4280,20.6257
165.2646,20.7349
165.0830,20.8101
164.8903,20.8484
164.7920,20.8507
156.7920,20.8507
156.6937,20.8483
156.5010,20.8099
156.3195,20.7347
156.1561,20.6255
156.0171,20.4866
155.9079,20.3232
155.8327,20.1416
155.7944,19.9489
155.7920,19.8507
155.7920,18.8559
155.7940,18.8051
155.8276,18.7093
155.8577,18.6685
156.1263,18.3328
156.1564,18.2920
156.1900,18.1962
156.1920,18.1454
156.1920,16.4259
156.1900,16.3751
156.1564,16.2794
156.1263,16.2385
155.8577,15.9028
155.8276,15.8620
155.7940,15.7662
155.7920,15.7154
155.7920,14.9259
155.7940,14.8751
155.8276,14.7794
155.8577,14.7385
156.1263,14.4028
156.1564,14.3620
156.1900,14.2662
156.1920,14.2154
156.1920,12.2207
165.3920,12.2207
Z" /> 
<circle cx="223.4000" cy="42.5000" r="2.5000" /> 
<circle cx="223.4000" cy="19.8333" r="3.3500" /> 
<path style="fill:none; 
stroke:#000000; stroke-width:0.1000; stroke-opacity:1; 
stroke-linecap:round; stroke-linejoin:round;fill:none"
d="M 156.6118,40.3333
156.6625,40.3353
156.7583,40.3689
156.7992,40.3991
157.1348,40.6676
157.1757,40.6978
157.2715,40.7314
157.3222,40.7333
159.0418,40.7333
159.0925,40.7314
159.1883,40.6978
159.2292,40.6676
159.5648,40.3991
159.6057,40.3689
159.7015,40.3353
159.7522,40.3333
160.7470,40.3333
160.8453,40.3356
161.0380,40.3739
161.2196,40.4491
161.3830,40.5583
161.5220,40.6973
161.6312,40.8607
161.7064,41.0423
161.7448,41.2351
161.7470,41.3333
161.7470,49.3333
161.7446,49.4316
161.7063,49.6243
161.6311,49.8059
161.5219,49.9693
161.3829,50.1082
161.2195,50.2174
161.0380,50.2926
160.8453,50.3309
160.7470,50.3333
159.7522,50.3333
159.7015,50.3314
159.6057,50.2978
159.5648,50.2676
159.2292,49.9991
159.1883,49.9689
159.0925,49.9353
159.0418,49.9333
157.3222,49.9333
157.2715,49.9353
157.1757,49.9689
157.1348,49.9991
156.7992,50.2676
156.7583,50.2978
156.6625,50.3314
156.6118,50.3333
155.8222,50.3333
155.7715,50.3314
155.6757,50.2978
155.6348,50.2676
155.2992,49.9991
155.2583,49.9689
155.1625,49.9353
155.1118,49.9333
153.1170,49.9333
153.1170,40.7333
155.1118,40.7333
155.1625,40.7314
155.2583,40.6978
155.2992,40.6676
155.6348,40.3991
155.6757,40.3689
155.7715,40.3353
155.8222,40.3333
Z" /> 
<circle cx="261.7540" cy="32.1865" r="3.3500" /> 
<circle cx="194.8096" cy="9.6333" r="1.3000" /> 
<circle cx="223.4200" cy="5.2833" r="0.9750" /> 
<circle cx="185.0460" cy="32.1865" r="3.3500" /> 
</g> 
</svg>
