<?xml version="1.0" standalone="no"?>
 <!DOCTYPE svg PUBLIC "-//W3C//DTD SVG 1.1//EN" 
 "http://www.w3.org/Graphics/SVG/1.1/DTD/svg11.dtd"> 
<svg
  xmlns:svg="http://www.w3.org/2000/svg"
  xmlns="http://www.w3.org/2000/svg"
  xmlns:xlink="http://www.w3.org/1999/xlink"
  version="1.1"
  width="300.8122mm" height="121.8692mm" viewBox="0.0000 0.0000 300.8122 121.8692">
<title>SVG Image created as Alufo-User_3.svg date 2024/11/09 18:57:44 </title>
  <desc>Image generated by PCBNEW </desc>
<g style="fill:#000000; fill-opacity:1.0000;stroke:#000000; stroke-opacity:1.0000;
stroke-linecap:round; stroke-linejoin:round;"
 transform="translate(0 0) scale(1 1)">
<path style="fill:none; 
stroke:#000000; stroke-width:0.1000; stroke-opacity:1; 
stroke-linecap:round; stroke-linejoin:round;fill:none"
d="M 189.1392,78.2033
186.1943,78.7758
185.6792,76.1254
188.6240,75.5529
Z" /> 
<path style="fill:none; 
stroke:#000000; stroke-width:0.1000; stroke-opacity:1; 
stroke-linecap:round; stroke-linejoin:round;fill:none"
d="M 171.3836,31.3567
174.6667,31.3567
174.6667,35.0372
171.3836,35.0372
Z" /> 
<path style="fill:none; 
stroke:#000000; stroke-width:0.1000; stroke-opacity:1; 
stroke-linecap:round; stroke-linejoin:round;fill:none"
d="M 175.9241,38.8358
176.2196,38.8751
176.5074,38.9532
176.7824,39.0686
177.0396,39.2193
177.2748,39.4027
177.4836,39.6155
177.5750,39.7333
181.2750,39.7333
181.3929,39.7359
181.6251,39.7769
181.8466,39.8575
182.0508,39.9754
182.2314,40.1269
182.3830,40.3075
182.5009,40.5117
182.5815,40.7333
182.6224,40.9655
182.6224,41.2012
182.5815,41.4334
182.5009,41.6550
182.3830,41.8591
182.2314,42.0398
182.0508,42.1913
181.8466,42.3092
181.6251,42.3898
181.3929,42.4308
181.2750,42.4333
173.1080,45.4013
173.1080,42.4333
170.2750,42.4333
170.1571,42.4308
169.9249,42.3898
169.7034,42.3092
169.4992,42.1913
169.3186,42.0398
169.1670,41.8591
169.0491,41.6550
168.9685,41.4334
168.9276,41.2012
168.9276,40.9655
168.9685,40.7333
169.0491,40.5117
169.1670,40.3075
169.3186,40.1269
169.4992,39.9754
169.7034,39.8575
169.9249,39.7769
170.1571,39.7359
170.2750,39.7333
173.9750,39.7333
174.0664,39.6155
174.2752,39.4027
174.5104,39.2193
174.7676,39.0686
175.0426,38.9532
175.3304,38.8751
175.6259,38.8358
175.7750,38.8333
Z" /> 
<path style="fill:none; 
stroke:#000000; stroke-width:0.1000; stroke-opacity:1; 
stroke-linecap:round; stroke-linejoin:round;fill:none"
d="M 171.3870,41.0823
171.3894,40.9767
171.4283,40.7689
171.5046,40.5718
171.6159,40.3921
171.7583,40.2358
171.9270,40.1085
172.1162,40.0142
172.3195,39.9564
172.5300,39.9369
172.7405,39.9564
172.9438,40.0142
173.1330,40.1085
173.3017,40.2358
173.4441,40.3921
173.5554,40.5718
173.6317,40.7689
173.6706,40.9767
173.6730,41.0823
173.6730,44.3843
173.6706,44.4900
173.6317,44.6978
173.5554,44.8949
173.4441,45.0746
173.3017,45.2308
173.1330,45.3582
172.9438,45.4524
172.7405,45.5103
172.5300,45.5298
172.3195,45.5103
172.1162,45.4524
171.9270,45.3582
171.7583,45.2308
171.6159,45.0746
171.5046,44.8949
171.4283,44.6978
171.3894,44.4900
171.3870,44.3843
Z" /> 
<path style="fill:none; 
stroke:#000000; stroke-width:0.1000; stroke-opacity:1; 
stroke-linecap:round; stroke-linejoin:round;fill:none"
d="M 194.9741,47.3358
195.2696,47.3751
195.5574,47.4532
195.8324,47.5686
196.0896,47.7193
196.3248,47.9027
196.5336,48.1155
196.6250,48.2333
200.3250,48.2333
200.4429,48.2359
200.6751,48.2769
200.8966,48.3575
201.1008,48.4754
201.2814,48.6269
201.4330,48.8075
201.5509,49.0117
201.6315,49.2333
201.6724,49.4655
201.6724,49.7012
201.6315,49.9334
201.5509,50.1550
201.4330,50.3592
201.2814,50.5398
201.1008,50.6913
200.8966,50.8092
200.6751,50.8898
200.4429,50.9308
200.3250,50.9333
192.1580,53.9013
192.1580,50.9333
189.3250,50.9333
189.2071,50.9308
188.9749,50.8898
188.7534,50.8092
188.5492,50.6913
188.3686,50.5398
188.2170,50.3592
188.0991,50.1550
188.0185,49.9334
187.9776,49.7012
187.9776,49.4655
188.0185,49.2333
188.0991,49.0117
188.2170,48.8075
188.3686,48.6269
188.5492,48.4754
188.7534,48.3575
188.9749,48.2769
189.2071,48.2359
189.3250,48.2333
193.0250,48.2333
193.1164,48.1155
193.3252,47.9027
193.5604,47.7193
193.8176,47.5686
194.0926,47.4532
194.3804,47.3752
194.6759,47.3358
194.8250,47.3333
Z" /> 
<path style="fill:none; 
stroke:#000000; stroke-width:0.1000; stroke-opacity:1; 
stroke-linecap:round; stroke-linejoin:round;fill:none"
d="M 252.1241,13.3358
252.4196,13.3751
252.7074,13.4532
252.9824,13.5686
253.2396,13.7193
253.4748,13.9027
253.6836,14.1155
253.7750,14.2333
257.4750,14.2333
257.5929,14.2359
257.8251,14.2768
258.0466,14.3575
258.2508,14.4754
258.4314,14.6269
258.5830,14.8075
258.7009,15.0117
258.7815,15.2333
258.8224,15.4655
258.8224,15.7012
258.7815,15.9334
258.7009,16.1550
258.5830,16.3591
258.4314,16.5398
258.2508,16.6913
258.0466,16.8092
257.8251,16.8898
257.5929,16.9308
257.4750,16.9333
249.3080,19.9013
249.3080,16.9333
246.4750,16.9333
246.3571,16.9308
246.1249,16.8898
245.9034,16.8092
245.6992,16.6913
245.5186,16.5398
245.3670,16.3591
245.2491,16.1550
245.1685,15.9334
245.1276,15.7012
245.1276,15.4655
245.1685,15.2333
245.2491,15.0117
245.3670,14.8075
245.5186,14.6269
245.6992,14.4754
245.9034,14.3575
246.1249,14.2768
246.3571,14.2359
246.4750,14.2333
250.1750,14.2333
250.2664,14.1155
250.4752,13.9027
250.7104,13.7193
250.9676,13.5686
251.2426,13.4532
251.5304,13.3751
251.8259,13.3358
251.9750,13.3333
Z" /> 
<path style="fill:none; 
stroke:#000000; stroke-width:0.1000; stroke-opacity:1; 
stroke-linecap:round; stroke-linejoin:round;fill:none"
d="M 175.9154,77.7166
175.8976,77.6124
175.8961,77.4010
175.9334,77.1930
176.0084,76.9953
176.1184,76.8148
176.2596,76.6576
176.4274,76.5290
176.6159,76.4334
176.8188,76.3741
177.0292,76.3531
177.2398,76.3711
177.4435,76.4275
177.6334,76.5203
177.8030,76.6465
177.9465,76.8017
178.0591,76.9806
178.1368,77.1772
178.1594,77.2804
178.7894,80.5218
178.8072,80.6260
178.8087,80.8374
178.7714,81.0454
178.6965,81.2431
178.5865,81.4236
178.4452,81.5808
178.2774,81.7094
178.0889,81.8050
177.8860,81.8643
177.6757,81.8853
177.4651,81.8673
177.2613,81.8109
177.0715,81.7181
176.9019,81.5919
176.7583,81.4367
176.6458,81.2578
176.5680,81.0612
176.5454,80.9580
Z" /> 
<path style="fill:none; 
stroke:#000000; stroke-width:0.1000; stroke-opacity:1; 
stroke-linecap:round; stroke-linejoin:round;fill:none"
d="M 214.0241,26.0858
214.3196,26.1251
214.6074,26.2032
214.8824,26.3186
215.1396,26.4693
215.3748,26.6527
215.5836,26.8655
215.6750,26.9833
219.3750,26.9833
219.4929,26.9859
219.7251,27.0268
219.9466,27.1075
220.1508,27.2254
220.3314,27.3769
220.4830,27.5575
220.6009,27.7617
220.6815,27.9833
220.7224,28.2155
220.7224,28.4512
220.6815,28.6834
220.6009,28.9050
220.4830,29.1091
220.3314,29.2898
220.1508,29.4413
219.9466,29.5592
219.7251,29.6398
219.4929,29.6808
219.3750,29.6833
211.2080,32.6513
211.2080,29.6833
208.3750,29.6833
208.2571,29.6808
208.0249,29.6398
207.8034,29.5592
207.5992,29.4413
207.4186,29.2898
207.2670,29.1091
207.1491,28.9050
207.0685,28.6834
207.0276,28.4512
207.0276,28.2155
207.0685,27.9833
207.1491,27.7617
207.2670,27.5575
207.4186,27.3769
207.5992,27.2254
207.8034,27.1075
208.0249,27.0268
208.2571,26.9859
208.3750,26.9833
212.0750,26.9833
212.1664,26.8655
212.3752,26.6527
212.6104,26.4693
212.8676,26.3186
213.1426,26.2032
213.4304,26.1251
213.7259,26.0858
213.8750,26.0833
Z" /> 
<path style="fill:none; 
stroke:#000000; stroke-width:0.1000; stroke-opacity:1; 
stroke-linecap:round; stroke-linejoin:round;fill:none"
d="M 209.4870,9.7048
209.4894,9.5991
209.5283,9.3914
209.6046,9.1943
209.7159,9.0145
209.8583,8.8583
210.0270,8.7310
210.2162,8.6367
210.4195,8.5789
210.6300,8.5594
210.8405,8.5789
211.0438,8.6367
211.2330,8.7310
211.4017,8.8583
211.5441,9.0145
211.6554,9.1943
211.7317,9.3914
211.7706,9.5991
211.7730,9.7048
211.7730,13.0068
211.7706,13.1125
211.7317,13.3203
211.6554,13.5174
211.5441,13.6971
211.4017,13.8533
211.2330,13.9807
211.0438,14.0749
210.8405,14.1328
210.6300,14.1523
210.4195,14.1328
210.2162,14.0749
210.0270,13.9807
209.8583,13.8533
209.7159,13.6971
209.6046,13.5174
209.5283,13.3203
209.4894,13.1125
209.4870,13.0068
Z" /> 
<path style="fill:none; 
stroke:#000000; stroke-width:0.1000; stroke-opacity:1; 
stroke-linecap:round; stroke-linejoin:round;fill:none"
d="M 266.6370,37.7823
266.6394,37.6767
266.6783,37.4689
266.7546,37.2718
266.8659,37.0921
267.0083,36.9358
267.1770,36.8085
267.3662,36.7142
267.5695,36.6564
267.7800,36.6369
267.9905,36.6564
268.1938,36.7142
268.3830,36.8085
268.5517,36.9358
268.6941,37.0921
268.8054,37.2718
268.8817,37.4689
268.9206,37.6767
268.9230,37.7823
268.9230,41.0843
268.9206,41.1900
268.8817,41.3978
268.8054,41.5949
268.6941,41.7746
268.5517,41.9308
268.3830,42.0582
268.1938,42.1524
267.9905,42.2103
267.7800,42.2298
267.5695,42.2103
267.3662,42.1524
267.1770,42.0582
267.0083,41.9308
266.8659,41.7746
266.7546,41.5949
266.6783,41.3978
266.6394,41.1900
266.6370,41.0843
Z" /> 
<path style="fill:none; 
stroke:#000000; stroke-width:0.1000; stroke-opacity:1; 
stroke-linecap:round; stroke-linejoin:round;fill:none"
d="M 194.9741,30.3358
195.2696,30.3751
195.5574,30.4532
195.8324,30.5686
196.0896,30.7193
196.3248,30.9027
196.5336,31.1155
196.6250,31.2333
200.3250,31.2333
200.4429,31.2359
200.6751,31.2768
200.8966,31.3575
201.1008,31.4754
201.2814,31.6269
201.4330,31.8075
201.5509,32.0117
201.6315,32.2333
201.6724,32.4655
201.6724,32.7012
201.6315,32.9334
201.5509,33.1550
201.4330,33.3591
201.2814,33.5398
201.1008,33.6913
200.8966,33.8092
200.6751,33.8898
200.4429,33.9308
200.3250,33.9333
192.1580,36.9013
192.1580,33.9333
189.3250,33.9333
189.2071,33.9308
188.9749,33.8898
188.7534,33.8092
188.5492,33.6913
188.3686,33.5398
188.2170,33.3591
188.0991,33.1550
188.0185,32.9334
187.9776,32.7012
187.9776,32.4655
188.0185,32.2333
188.0991,32.0117
188.2170,31.8075
188.3686,31.6269
188.5492,31.4754
188.7534,31.3575
188.9749,31.2768
189.2071,31.2359
189.3250,31.2333
193.0250,31.2333
193.1164,31.1155
193.3252,30.9027
193.5604,30.7193
193.8176,30.5686
194.0926,30.4532
194.3804,30.3751
194.6759,30.3358
194.8250,30.3333
Z" /> 
<path style="fill:none; 
stroke:#000000; stroke-width:0.1000; stroke-opacity:1; 
stroke-linecap:round; stroke-linejoin:round;fill:none"
d="M 271.1741,38.8358
271.4696,38.8751
271.7574,38.9532
272.0324,39.0686
272.2896,39.2193
272.5248,39.4027
272.7336,39.6155
272.8250,39.7333
276.5250,39.7333
276.6429,39.7359
276.8751,39.7769
277.0966,39.8575
277.3008,39.9754
277.4814,40.1269
277.6330,40.3075
277.7509,40.5117
277.8315,40.7333
277.8724,40.9655
277.8724,41.2012
277.8315,41.4334
277.7509,41.6550
277.6330,41.8591
277.4814,42.0398
277.3008,42.1913
277.0966,42.3092
276.8751,42.3898
276.6429,42.4308
276.5250,42.4333
268.3580,45.4013
268.3580,42.4333
265.5250,42.4333
265.4071,42.4308
265.1749,42.3898
264.9534,42.3092
264.7492,42.1913
264.5686,42.0398
264.4170,41.8591
264.2991,41.6550
264.2185,41.4334
264.1776,41.2012
264.1776,40.9655
264.2185,40.7333
264.2991,40.5117
264.4170,40.3075
264.5686,40.1269
264.7492,39.9754
264.9534,39.8575
265.1749,39.7769
265.4071,39.7359
265.5250,39.7333
269.2250,39.7333
269.3164,39.6155
269.5252,39.4027
269.7604,39.2193
270.0176,39.0686
270.2926,38.9532
270.5804,38.8751
270.8759,38.8358
271.0250,38.8333
Z" /> 
<path style="fill:none; 
stroke:#000000; stroke-width:0.1000; stroke-opacity:1; 
stroke-linecap:round; stroke-linejoin:round;fill:none"
d="M 175.9241,21.8358
176.2196,21.8751
176.5074,21.9532
176.7824,22.0686
177.0396,22.2193
177.2748,22.4027
177.4836,22.6155
177.5750,22.7333
181.2750,22.7333
181.3929,22.7359
181.6251,22.7768
181.8466,22.8575
182.0508,22.9754
182.2314,23.1269
182.3830,23.3075
182.5009,23.5117
182.5815,23.7333
182.6224,23.9655
182.6224,24.2012
182.5815,24.4334
182.5009,24.6550
182.3830,24.8591
182.2314,25.0398
182.0508,25.1913
181.8466,25.3092
181.6251,25.3898
181.3929,25.4308
181.2750,25.4333
173.1080,28.4013
173.1080,25.4333
170.2750,25.4333
170.1571,25.4308
169.9249,25.3898
169.7034,25.3092
169.4992,25.1913
169.3186,25.0398
169.1670,24.8591
169.0491,24.6550
168.9685,24.4334
168.9276,24.2012
168.9276,23.9655
168.9685,23.7333
169.0491,23.5117
169.1670,23.3075
169.3186,23.1269
169.4992,22.9754
169.7034,22.8575
169.9249,22.7768
170.1571,22.7359
170.2750,22.7333
173.9750,22.7333
174.0664,22.6155
174.2752,22.4027
174.5104,22.2193
174.7676,22.0686
175.0426,21.9532
175.3304,21.8751
175.6259,21.8358
175.7750,21.8333
Z" /> 
<path style="fill:none; 
stroke:#000000; stroke-width:0.1000; stroke-opacity:1; 
stroke-linecap:round; stroke-linejoin:round;fill:none"
d="M 271.1741,21.8358
271.4696,21.8751
271.7574,21.9532
272.0324,22.0686
272.2896,22.2193
272.5248,22.4027
272.7336,22.6155
272.8250,22.7333
276.5250,22.7333
276.6429,22.7359
276.8751,22.7768
277.0966,22.8575
277.3008,22.9754
277.4814,23.1269
277.6330,23.3075
277.7509,23.5117
277.8315,23.7333
277.8724,23.9655
277.8724,24.2012
277.8315,24.4334
277.7509,24.6550
277.6330,24.8591
277.4814,25.0398
277.3008,25.1913
277.0966,25.3092
276.8751,25.3898
276.6429,25.4308
276.5250,25.4333
268.3580,28.4013
268.3580,25.4333
265.5250,25.4333
265.4071,25.4308
265.1749,25.3898
264.9534,25.3092
264.7492,25.1913
264.5686,25.0398
264.4170,24.8591
264.2991,24.6550
264.2185,24.4334
264.1776,24.2012
264.1776,23.9655
264.2185,23.7333
264.2991,23.5117
264.4170,23.3075
264.5686,23.1269
264.7492,22.9754
264.9534,22.8575
265.1749,22.7768
265.4071,22.7359
265.5250,22.7333
269.2250,22.7333
269.3164,22.6155
269.5252,22.4027
269.7604,22.2193
270.0176,22.0686
270.2926,21.9532
270.5804,21.8751
270.8759,21.8358
271.0250,21.8333
Z" /> 
<path style="fill:none; 
stroke:#000000; stroke-width:0.1000; stroke-opacity:1; 
stroke-linecap:round; stroke-linejoin:round;fill:none"
d="M 252.1241,47.3358
252.4196,47.3751
252.7074,47.4532
252.9824,47.5686
253.2396,47.7193
253.4748,47.9027
253.6836,48.1155
253.7750,48.2333
257.4750,48.2333
257.5929,48.2359
257.8251,48.2769
258.0466,48.3575
258.2508,48.4754
258.4314,48.6269
258.5830,48.8075
258.7009,49.0117
258.7815,49.2333
258.8224,49.4655
258.8224,49.7012
258.7815,49.9334
258.7009,50.1550
258.5830,50.3592
258.4314,50.5398
258.2508,50.6913
258.0466,50.8092
257.8251,50.8898
257.5929,50.9308
257.4750,50.9333
249.3080,53.9013
249.3080,50.9333
246.4750,50.9333
246.3571,50.9308
246.1249,50.8898
245.9034,50.8092
245.6992,50.6913
245.5186,50.5398
245.3670,50.3592
245.2491,50.1550
245.1685,49.9334
245.1276,49.7012
245.1276,49.4655
245.1685,49.2333
245.2491,49.0117
245.3670,48.8075
245.5186,48.6269
245.6992,48.4754
245.9034,48.3575
246.1249,48.2769
246.3571,48.2359
246.4750,48.2333
250.1750,48.2333
250.2664,48.1155
250.4752,47.9027
250.7104,47.7193
250.9676,47.5686
251.2426,47.4532
251.5304,47.3752
251.8259,47.3358
251.9750,47.3333
Z" /> 
<path style="fill:none; 
stroke:#000000; stroke-width:0.1000; stroke-opacity:1; 
stroke-linecap:round; stroke-linejoin:round;fill:none"
d="M 208.3506,71.8450
208.5735,71.9217
208.7797,72.0360
208.9629,72.1844
209.1176,72.3623
209.2390,72.5644
209.3235,72.7845
209.3685,73.0160
209.3726,73.2517
209.3358,73.4846
209.2590,73.7075
209.1447,73.9137
208.9963,74.0969
208.8184,74.2516
208.6163,74.3731
208.3962,74.4576
208.2810,74.4826
200.8303,78.9544
200.2640,76.0409
197.4831,76.5815
197.3668,76.6014
197.1311,76.6056
196.8982,76.5687
196.6753,76.4919
196.4691,76.3776
196.2859,76.2292
196.1312,76.0513
196.0098,75.8492
195.9253,75.6291
195.8803,75.3977
195.8762,75.1619
195.9131,74.9290
195.9898,74.7061
196.1041,74.4999
196.2525,74.3167
196.4304,74.1620
196.6325,74.0406
196.8526,73.9561
196.9679,73.9311
200.5999,73.2251
200.6671,73.0920
200.8315,72.8432
201.0273,72.6184
201.2511,72.4213
201.4990,72.2556
201.7666,72.1240
202.0492,72.0290
202.1951,71.9982
202.3419,71.9721
202.6395,71.9543
202.9369,71.9761
203.2288,72.0369
203.5101,72.1358
203.7759,72.2709
204.0216,72.4399
204.1337,72.5382
207.7658,71.8322
207.8820,71.8122
208.1177,71.8081
Z" /> 
<path style="fill:none; 
stroke:#000000; stroke-width:0.1000; stroke-opacity:1; 
stroke-linecap:round; stroke-linejoin:round;fill:none"
d="M 186.2640,76.1382
186.4869,76.2149
186.6931,76.3292
186.8763,76.4776
187.0310,76.6555
187.1524,76.8576
187.2369,77.0777
187.2819,77.3092
187.2860,77.5449
187.2491,77.7778
187.1724,78.0007
187.0581,78.2069
186.9097,78.3901
186.7318,78.5448
186.5297,78.6663
186.3096,78.7508
186.1943,78.7758
178.7437,83.2476
178.1774,80.3341
175.3964,80.8747
175.2802,80.8946
175.0445,80.8988
174.8116,80.8619
174.5887,80.7851
174.3825,80.6708
174.1993,80.5224
174.0446,80.3445
173.9232,80.1424
173.8387,79.9223
173.7937,79.6909
173.7896,79.4551
173.8264,79.2223
173.9032,78.9993
174.0175,78.7931
174.1659,78.6099
174.3438,78.4552
174.5459,78.3338
174.7660,78.2493
174.8813,78.2243
178.5133,77.5183
178.5805,77.3852
178.7449,77.1364
178.9407,76.9116
179.1645,76.7145
179.4124,76.5488
179.6800,76.4172
179.9626,76.3222
180.1085,76.2914
180.2553,76.2653
180.5529,76.2476
180.8503,76.2693
181.1422,76.3301
181.4235,76.4290
181.6893,76.5641
181.9349,76.7332
182.0471,76.8314
185.6792,76.1254
185.7954,76.1054
186.0311,76.1013
Z" /> 
<path style="fill:none; 
stroke:#000000; stroke-width:0.1000; stroke-opacity:1; 
stroke-linecap:round; stroke-linejoin:round;fill:none"
d="M 214.0241,43.0858
214.3196,43.1251
214.6074,43.2032
214.8824,43.3186
215.1396,43.4693
215.3748,43.6527
215.5836,43.8655
215.6750,43.9833
219.3750,43.9833
219.4929,43.9859
219.7251,44.0269
219.9466,44.1075
220.1508,44.2254
220.3314,44.3769
220.4830,44.5575
220.6009,44.7617
220.6815,44.9833
220.7224,45.2155
220.7224,45.4512
220.6815,45.6834
220.6009,45.9050
220.4830,46.1092
220.3314,46.2898
220.1508,46.4413
219.9466,46.5592
219.7251,46.6398
219.4929,46.6808
219.3750,46.6833
211.2080,49.6513
211.2080,46.6833
208.3750,46.6833
208.2571,46.6808
208.0249,46.6398
207.8034,46.5592
207.5992,46.4413
207.4186,46.2898
207.2670,46.1092
207.1491,45.9050
207.0685,45.6834
207.0276,45.4512
207.0276,45.2155
207.0685,44.9833
207.1491,44.7617
207.2670,44.5575
207.4186,44.3769
207.5992,44.2254
207.8034,44.1075
208.0249,44.0269
208.2571,43.9859
208.3750,43.9833
212.0750,43.9833
212.1664,43.8655
212.3752,43.6527
212.6104,43.4693
212.8676,43.3186
213.1426,43.2032
213.4304,43.1252
213.7259,43.0858
213.8750,43.0833
Z" /> 
<path style="fill:none; 
stroke:#000000; stroke-width:0.1000; stroke-opacity:1; 
stroke-linecap:round; stroke-linejoin:round;fill:none"
d="M 175.8310,32.7537
175.9367,32.7561
176.1445,32.7949
176.3416,32.8713
176.5213,32.9826
176.6775,33.1250
176.8049,33.2937
176.8991,33.4829
176.9569,33.6862
176.9764,33.8967
176.9569,34.1071
176.8991,34.3104
176.8049,34.4997
176.6775,34.6683
176.5213,34.8107
176.3416,34.9220
176.1445,34.9984
175.9367,35.0372
175.8310,35.0397
172.5290,35.0397
172.4233,35.0372
172.2155,34.9984
172.0184,34.9220
171.8387,34.8107
171.6825,34.6683
171.5551,34.4997
171.4609,34.3104
171.4031,34.1071
171.3836,33.8967
171.4031,33.6862
171.4609,33.4829
171.5551,33.2937
171.6825,33.1250
171.8387,32.9826
172.0184,32.8713
172.2155,32.7949
172.4233,32.7561
172.5290,32.7537
Z" /> 
<path style="fill:none; 
stroke:#000000; stroke-width:0.1000; stroke-opacity:1; 
stroke-linecap:round; stroke-linejoin:round;fill:none"
d="M 247.5870,29.2823
247.5894,29.1767
247.6283,28.9689
247.7046,28.7718
247.8159,28.5921
247.9583,28.4358
248.1270,28.3085
248.3162,28.2142
248.5195,28.1564
248.7300,28.1369
248.9405,28.1564
249.1438,28.2142
249.3330,28.3085
249.5017,28.4358
249.6441,28.5921
249.7554,28.7718
249.8317,28.9689
249.8706,29.1767
249.8730,29.2823
249.8730,32.5843
249.8706,32.6900
249.8317,32.8978
249.7554,33.0949
249.6441,33.2746
249.5017,33.4308
249.3330,33.5582
249.1438,33.6524
248.9405,33.7103
248.7300,33.7298
248.5195,33.7103
248.3162,33.6524
248.1270,33.5582
247.9583,33.4308
247.8159,33.2746
247.7046,33.0949
247.6283,32.8978
247.5894,32.6900
247.5870,32.5843
Z" /> 
<path style="fill:none; 
stroke:#000000; stroke-width:0.1000; stroke-opacity:1; 
stroke-linecap:round; stroke-linejoin:round;fill:none"
d="M 252.1241,30.3358
252.4196,30.3751
252.7074,30.4532
252.9824,30.5686
253.2396,30.7193
253.4748,30.9027
253.6836,31.1155
253.7750,31.2333
257.4750,31.2333
257.5929,31.2359
257.8251,31.2768
258.0466,31.3575
258.2508,31.4754
258.4314,31.6269
258.5830,31.8075
258.7009,32.0117
258.7815,32.2333
258.8224,32.4655
258.8224,32.7012
258.7815,32.9334
258.7009,33.1550
258.5830,33.3591
258.4314,33.5398
258.2508,33.6913
258.0466,33.8092
257.8251,33.8898
257.5929,33.9308
257.4750,33.9333
249.3080,36.9013
249.3080,33.9333
246.4750,33.9333
246.3571,33.9308
246.1249,33.8898
245.9034,33.8092
245.6992,33.6913
245.5186,33.5398
245.3670,33.3591
245.2491,33.1550
245.1685,32.9334
245.1276,32.7012
245.1276,32.4655
245.1685,32.2333
245.2491,32.0117
245.3670,31.8075
245.5186,31.6269
245.6992,31.4754
245.9034,31.3575
246.1249,31.2768
246.3571,31.2359
246.4750,31.2333
250.1750,31.2333
250.2664,31.1155
250.4752,30.9027
250.7104,30.7193
250.9676,30.5686
251.2426,30.4532
251.5304,30.3751
251.8259,30.3358
251.9750,30.3333
Z" /> 
<path style="fill:none; 
stroke:#000000; stroke-width:0.1000; stroke-opacity:1; 
stroke-linecap:round; stroke-linejoin:round;fill:none"
d="M 194.9741,13.3358
195.2696,13.3751
195.5574,13.4532
195.8324,13.5686
196.0896,13.7193
196.3248,13.9027
196.5336,14.1155
196.6250,14.2333
200.3250,14.2333
200.4429,14.2359
200.6751,14.2768
200.8966,14.3575
201.1008,14.4754
201.2814,14.6269
201.4330,14.8075
201.5509,15.0117
201.6315,15.2333
201.6724,15.4655
201.6724,15.7012
201.6315,15.9334
201.5509,16.1550
201.4330,16.3591
201.2814,16.5398
201.1008,16.6913
200.8966,16.8092
200.6751,16.8898
200.4429,16.9308
200.3250,16.9333
192.1580,19.9013
192.1580,16.9333
189.3250,16.9333
189.2071,16.9308
188.9749,16.8898
188.7534,16.8092
188.5492,16.6913
188.3686,16.5398
188.2170,16.3591
188.0991,16.1550
188.0185,15.9334
187.9776,15.7012
187.9776,15.4655
188.0185,15.2333
188.0991,15.0117
188.2170,14.8075
188.3686,14.6269
188.5492,14.4754
188.7534,14.3575
188.9749,14.2768
189.2071,14.2359
189.3250,14.2333
193.0250,14.2333
193.1164,14.1155
193.3252,13.9027
193.5604,13.7193
193.8176,13.5686
194.0926,13.4532
194.3804,13.3751
194.6759,13.3358
194.8250,13.3333
Z" /> 
<path style="fill:none; 
stroke:#000000; stroke-width:0.1000; stroke-opacity:1; 
stroke-linecap:round; stroke-linejoin:round;fill:none"
d="M 266.6370,20.7823
266.6394,20.6766
266.6783,20.4689
266.7546,20.2718
266.8659,20.0921
267.0083,19.9358
267.1770,19.8085
267.3662,19.7142
267.5695,19.6564
267.7800,19.6369
267.9905,19.6564
268.1938,19.7142
268.3830,19.8085
268.5517,19.9358
268.6941,20.0921
268.8054,20.2718
268.8817,20.4689
268.9206,20.6766
268.9230,20.7823
268.9230,24.0843
268.9206,24.1900
268.8817,24.3978
268.8054,24.5949
268.6941,24.7746
268.5517,24.9308
268.3830,25.0582
268.1938,25.1524
267.9905,25.2103
267.7800,25.2298
267.5695,25.2103
267.3662,25.1524
267.1770,25.0582
267.0083,24.9308
266.8659,24.7746
266.7546,24.5949
266.6783,24.3978
266.6394,24.1900
266.6370,24.0843
Z" /> 
<path style="fill:none; 
stroke:#000000; stroke-width:0.1000; stroke-opacity:1; 
stroke-linecap:round; stroke-linejoin:round;fill:none"
d="M 247.5870,46.2823
247.5894,46.1767
247.6283,45.9689
247.7046,45.7718
247.8159,45.5921
247.9583,45.4358
248.1270,45.3085
248.3162,45.2142
248.5195,45.1564
248.7300,45.1369
248.9405,45.1564
249.1438,45.2142
249.3330,45.3085
249.5017,45.4358
249.6441,45.5921
249.7554,45.7718
249.8317,45.9689
249.8706,46.1767
249.8730,46.2823
249.8730,49.5843
249.8706,49.6900
249.8317,49.8978
249.7554,50.0949
249.6441,50.2746
249.5017,50.4308
249.3330,50.5582
249.1438,50.6524
248.9405,50.7103
248.7300,50.7298
248.5195,50.7103
248.3162,50.6524
248.1270,50.5582
247.9583,50.4308
247.8159,50.2746
247.7046,50.0949
247.6283,49.8978
247.5894,49.6900
247.5870,49.5843
Z" /> 
<path style="fill:none; 
stroke:#000000; stroke-width:0.1000; stroke-opacity:1; 
stroke-linecap:round; stroke-linejoin:round;fill:none"
d="M 228.5370,26.6823
228.5394,26.5767
228.5783,26.3689
228.6546,26.1718
228.7659,25.9921
228.9083,25.8358
229.0770,25.7085
229.2662,25.6142
229.4695,25.5564
229.6800,25.5369
229.8905,25.5564
230.0938,25.6142
230.2830,25.7085
230.4517,25.8358
230.5941,25.9921
230.7054,26.1718
230.7817,26.3689
230.8206,26.5767
230.8230,26.6823
230.8230,29.9843
230.8206,30.0900
230.7817,30.2978
230.7054,30.4949
230.5941,30.6746
230.4517,30.8308
230.2830,30.9582
230.0938,31.0524
229.8905,31.1103
229.6800,31.1298
229.4695,31.1103
229.2662,31.0524
229.0770,30.9582
228.9083,30.8308
228.7659,30.6746
228.6546,30.4949
228.5783,30.2978
228.5394,30.0900
228.5370,29.9843
Z" /> 
<path style="fill:none; 
stroke:#000000; stroke-width:0.1000; stroke-opacity:1; 
stroke-linecap:round; stroke-linejoin:round;fill:none"
d="M 196.8570,29.2823
196.8594,29.1767
196.8983,28.9689
196.9746,28.7718
197.0859,28.5921
197.2283,28.4358
197.3970,28.3085
197.5862,28.2142
197.7895,28.1564
198.0000,28.1369
198.2105,28.1564
198.4138,28.2142
198.6030,28.3085
198.7717,28.4358
198.9141,28.5921
199.0254,28.7718
199.1017,28.9689
199.1406,29.1767
199.1430,29.2823
199.1430,32.5843
199.1406,32.6900
199.1017,32.8978
199.0254,33.0949
198.9141,33.2746
198.7717,33.4308
198.6030,33.5582
198.4138,33.6524
198.2105,33.7103
198.0000,33.7298
197.7895,33.7103
197.5862,33.6524
197.3970,33.5582
197.2283,33.4308
197.0859,33.2746
196.9746,33.0949
196.8983,32.8978
196.8594,32.6900
196.8570,32.5843
Z" /> 
<path style="fill:none; 
stroke:#000000; stroke-width:0.1000; stroke-opacity:1; 
stroke-linecap:round; stroke-linejoin:round;fill:none"
d="M 247.5870,13.9548
247.5894,13.8491
247.6283,13.6414
247.7046,13.4443
247.8159,13.2645
247.9583,13.1083
248.1270,12.9810
248.3162,12.8867
248.5195,12.8289
248.7300,12.8094
248.9405,12.8289
249.1438,12.8867
249.3330,12.9810
249.5017,13.1083
249.6441,13.2645
249.7554,13.4443
249.8317,13.6414
249.8706,13.8491
249.8730,13.9548
249.8730,17.2568
249.8706,17.3625
249.8317,17.5703
249.7554,17.7674
249.6441,17.9471
249.5017,18.1033
249.3330,18.2307
249.1438,18.3249
248.9405,18.3828
248.7300,18.4023
248.5195,18.3828
248.3162,18.3249
248.1270,18.2307
247.9583,18.1033
247.8159,17.9471
247.7046,17.7674
247.6283,17.5703
247.5894,17.3625
247.5870,17.2568
Z" /> 
<path style="fill:none; 
stroke:#000000; stroke-width:0.1000; stroke-opacity:1; 
stroke-linecap:round; stroke-linejoin:round;fill:none"
d="M 209.4870,26.6823
209.4894,26.5767
209.5283,26.3689
209.6046,26.1718
209.7159,25.9921
209.8583,25.8358
210.0270,25.7085
210.2162,25.6142
210.4195,25.5564
210.6300,25.5369
210.8405,25.5564
211.0438,25.6142
211.2330,25.7085
211.4017,25.8358
211.5441,25.9921
211.6554,26.1718
211.7317,26.3689
211.7706,26.5767
211.7730,26.6823
211.7730,29.9843
211.7706,30.0900
211.7317,30.2978
211.6554,30.4949
211.5441,30.6746
211.4017,30.8308
211.2330,30.9582
211.0438,31.0524
210.8405,31.1103
210.6300,31.1298
210.4195,31.1103
210.2162,31.0524
210.0270,30.9582
209.8583,30.8308
209.7159,30.6746
209.6046,30.4949
209.5283,30.2978
209.4894,30.0900
209.4870,29.9843
Z" /> 
<path style="fill:none; 
stroke:#000000; stroke-width:0.1000; stroke-opacity:1; 
stroke-linecap:round; stroke-linejoin:round;fill:none"
d="M 190.4370,14.0678
190.4394,13.9621
190.4783,13.7544
190.5546,13.5573
190.6659,13.3775
190.8083,13.2213
190.9770,13.0940
191.1662,12.9997
191.3695,12.9419
191.5800,12.9224
191.7905,12.9419
191.9938,12.9997
192.1830,13.0940
192.3517,13.2213
192.4941,13.3775
192.6054,13.5573
192.6817,13.7544
192.7206,13.9621
192.7230,14.0678
192.7230,17.3698
192.7206,17.4755
192.6817,17.6833
192.6054,17.8804
192.4941,18.0601
192.3517,18.2163
192.1830,18.3437
191.9938,18.4379
191.7905,18.4958
191.5800,18.5153
191.3695,18.4958
191.1662,18.4379
190.9770,18.3437
190.8083,18.2163
190.6659,18.0601
190.5546,17.8804
190.4783,17.6833
190.4394,17.4755
190.4370,17.3698
Z" /> 
<path style="fill:none; 
stroke:#000000; stroke-width:0.1000; stroke-opacity:1; 
stroke-linecap:round; stroke-linejoin:round;fill:none"
d="M 198.0020,73.4234
197.9842,73.3192
197.9827,73.1078
198.0201,72.8998
198.0950,72.7021
198.2050,72.5216
198.3463,72.3644
198.5140,72.2358
198.7026,72.1402
198.9054,72.0809
199.1158,72.0599
199.3264,72.0779
199.5301,72.1343
199.7200,72.2271
199.8896,72.3533
200.0331,72.5085
200.1457,72.6874
200.2234,72.8840
200.2460,72.9872
200.8761,76.2286
200.8938,76.3328
200.8953,76.5442
200.8580,76.7522
200.7831,76.9499
200.6731,77.1304
200.5318,77.2876
200.3640,77.4162
200.1755,77.5118
199.9726,77.5711
199.7623,77.5921
199.5517,77.5741
199.3480,77.5177
199.1581,77.4249
198.9885,77.2987
198.8450,77.1435
198.7324,76.9646
198.6546,76.7680
198.6321,76.6648
Z" /> 
<path style="fill:none; 
stroke:#000000; stroke-width:0.1000; stroke-opacity:1; 
stroke-linecap:round; stroke-linejoin:round;fill:none"
d="M 190.4370,46.2823
190.4394,46.1767
190.4783,45.9689
190.5546,45.7718
190.6659,45.5921
190.8083,45.4358
190.9770,45.3085
191.1662,45.2142
191.3695,45.1564
191.5800,45.1369
191.7905,45.1564
191.9938,45.2142
192.1830,45.3085
192.3517,45.4358
192.4941,45.5921
192.6054,45.7718
192.6817,45.9689
192.7206,46.1767
192.7230,46.2823
192.7230,49.5843
192.7206,49.6900
192.6817,49.8978
192.6054,50.0949
192.4941,50.2746
192.3517,50.4308
192.1830,50.5582
191.9938,50.6524
191.7905,50.7103
191.5800,50.7298
191.3695,50.7103
191.1662,50.6524
190.9770,50.5582
190.8083,50.4308
190.6659,50.2746
190.5546,50.0949
190.4783,49.8978
190.4394,49.6900
190.4370,49.5843
Z" /> 
<path style="fill:none; 
stroke:#000000; stroke-width:0.1000; stroke-opacity:1; 
stroke-linecap:round; stroke-linejoin:round;fill:none"
d="M 233.0741,9.0858
233.3696,9.1251
233.6574,9.2032
233.9324,9.3186
234.1896,9.4693
234.4248,9.6527
234.6336,9.8655
234.7250,9.9833
238.4250,9.9833
238.5429,9.9859
238.7751,10.0268
238.9966,10.1075
239.2008,10.2254
239.3814,10.3769
239.5330,10.5575
239.6509,10.7617
239.7315,10.9833
239.7724,11.2155
239.7724,11.4512
239.7315,11.6834
239.6509,11.9050
239.5330,12.1091
239.3814,12.2898
239.2008,12.4413
238.9966,12.5592
238.7751,12.6398
238.5429,12.6808
238.4250,12.6833
230.2580,15.6513
230.2580,12.6833
227.4250,12.6833
227.3071,12.6808
227.0749,12.6398
226.8534,12.5592
226.6492,12.4413
226.4686,12.2898
226.3170,12.1091
226.1991,11.9050
226.1185,11.6834
226.0776,11.4512
226.0776,11.2155
226.1185,10.9833
226.1991,10.7617
226.3170,10.5575
226.4686,10.3769
226.6492,10.2254
226.8534,10.1075
227.0749,10.0268
227.3071,9.9859
227.4250,9.9833
231.1250,9.9833
231.2164,9.8655
231.4252,9.6527
231.6604,9.4693
231.9176,9.3186
232.1926,9.2032
232.4804,9.1251
232.7759,9.0858
232.9250,9.0833
Z" /> 
<path style="fill:none; 
stroke:#000000; stroke-width:0.1000; stroke-opacity:1; 
stroke-linecap:round; stroke-linejoin:round;fill:none"
d="M 209.4870,42.0323
209.4894,41.9267
209.5283,41.7189
209.6046,41.5218
209.7159,41.3421
209.8583,41.1858
210.0270,41.0585
210.2162,40.9642
210.4195,40.9064
210.6300,40.8869
210.8405,40.9064
211.0438,40.9642
211.2330,41.0585
211.4017,41.1858
211.5441,41.3421
211.6554,41.5218
211.7317,41.7189
211.7706,41.9267
211.7730,42.0323
211.7730,45.3343
211.7706,45.4400
211.7317,45.6478
211.6554,45.8449
211.5441,46.0246
211.4017,46.1808
211.2330,46.3082
211.0438,46.4024
210.8405,46.4603
210.6300,46.4798
210.4195,46.4603
210.2162,46.4024
210.0270,46.3082
209.8583,46.1808
209.7159,46.0246
209.6046,45.8449
209.5283,45.6478
209.4894,45.4400
209.4870,45.3343
Z" /> 
<path style="fill:none; 
stroke:#000000; stroke-width:0.1000; stroke-opacity:1; 
stroke-linecap:round; stroke-linejoin:round;fill:none"
d="M 233.0741,26.0858
233.3696,26.1251
233.6574,26.2032
233.9324,26.3186
234.1896,26.4693
234.4248,26.6527
234.6336,26.8655
234.7250,26.9833
238.4250,26.9833
238.5429,26.9859
238.7751,27.0268
238.9966,27.1075
239.2008,27.2254
239.3814,27.3769
239.5330,27.5575
239.6509,27.7617
239.7315,27.9833
239.7724,28.2155
239.7724,28.4512
239.7315,28.6834
239.6509,28.9050
239.5330,29.1091
239.3814,29.2898
239.2008,29.4413
238.9966,29.5592
238.7751,29.6398
238.5429,29.6808
238.4250,29.6833
230.2580,32.6513
230.2580,29.6833
227.4250,29.6833
227.3071,29.6808
227.0749,29.6398
226.8534,29.5592
226.6492,29.4413
226.4686,29.2898
226.3170,29.1091
226.1991,28.9050
226.1185,28.6834
226.0776,28.4512
226.0776,28.2155
226.1185,27.9833
226.1991,27.7617
226.3170,27.5575
226.4686,27.3769
226.6492,27.2254
226.8534,27.1075
227.0749,27.0268
227.3071,26.9859
227.4250,26.9833
231.1250,26.9833
231.2164,26.8655
231.4252,26.6527
231.6604,26.4693
231.9176,26.3186
232.1926,26.2032
232.4804,26.1251
232.7759,26.0858
232.9250,26.0833
Z" /> 
<path style="fill:none; 
stroke:#000000; stroke-width:0.1000; stroke-opacity:1; 
stroke-linecap:round; stroke-linejoin:round;fill:none"
d="M 228.5370,42.0323
228.5394,41.9267
228.5783,41.7189
228.6546,41.5218
228.7659,41.3421
228.9083,41.1858
229.0770,41.0585
229.2662,40.9642
229.4695,40.9064
229.6800,40.8869
229.8905,40.9064
230.0938,40.9642
230.2830,41.0585
230.4517,41.1858
230.5941,41.3421
230.7054,41.5218
230.7817,41.7189
230.8206,41.9267
230.8230,42.0323
230.8230,45.3343
230.8206,45.4400
230.7817,45.6478
230.7054,45.8449
230.5941,46.0246
230.4517,46.1808
230.2830,46.3082
230.0938,46.4024
229.8905,46.4603
229.6800,46.4798
229.4695,46.4603
229.2662,46.4024
229.0770,46.3082
228.9083,46.1808
228.7659,46.0246
228.6546,45.8449
228.5783,45.6478
228.5394,45.4400
228.5370,45.3343
Z" /> 
<path style="fill:none; 
stroke:#000000; stroke-width:0.1000; stroke-opacity:1; 
stroke-linecap:round; stroke-linejoin:round;fill:none"
d="M 233.0741,43.0858
233.3696,43.1251
233.6574,43.2032
233.9324,43.3186
234.1896,43.4693
234.4248,43.6527
234.6336,43.8655
234.7250,43.9833
238.4250,43.9833
238.5429,43.9859
238.7751,44.0269
238.9966,44.1075
239.2008,44.2254
239.3814,44.3769
239.5330,44.5575
239.6509,44.7617
239.7315,44.9833
239.7724,45.2155
239.7724,45.4512
239.7315,45.6834
239.6509,45.9050
239.5330,46.1092
239.3814,46.2898
239.2008,46.4413
238.9966,46.5592
238.7751,46.6398
238.5429,46.6808
238.4250,46.6833
230.2580,49.6513
230.2580,46.6833
227.4250,46.6833
227.3071,46.6808
227.0749,46.6398
226.8534,46.5592
226.6492,46.4413
226.4686,46.2898
226.3170,46.1092
226.1991,45.9050
226.1185,45.6834
226.0776,45.4512
226.0776,45.2155
226.1185,44.9833
226.1991,44.7617
226.3170,44.5575
226.4686,44.3769
226.6492,44.2254
226.8534,44.1075
227.0749,44.0269
227.3071,43.9859
227.4250,43.9833
231.1250,43.9833
231.2164,43.8655
231.4252,43.6527
231.6604,43.4693
231.9176,43.3186
232.1926,43.2032
232.4804,43.1252
232.7759,43.0858
232.9250,43.0833
Z" /> 
<path style="fill:none; 
stroke:#000000; stroke-width:0.1000; stroke-opacity:1; 
stroke-linecap:round; stroke-linejoin:round;fill:none"
d="M 214.0241,9.0858
214.3196,9.1251
214.6074,9.2032
214.8824,9.3186
215.1396,9.4693
215.3748,9.6527
215.5836,9.8655
215.6750,9.9833
219.3750,9.9833
219.4929,9.9859
219.7251,10.0268
219.9466,10.1075
220.1508,10.2254
220.3314,10.3769
220.4830,10.5575
220.6009,10.7617
220.6815,10.9833
220.7224,11.2155
220.7224,11.4512
220.6815,11.6834
220.6009,11.9050
220.4830,12.1091
220.3314,12.2898
220.1508,12.4413
219.9466,12.5592
219.7251,12.6398
219.4929,12.6808
219.3750,12.6833
211.2080,15.6513
211.2080,12.6833
208.3750,12.6833
208.2571,12.6808
208.0249,12.6398
207.8034,12.5592
207.5992,12.4413
207.4186,12.2898
207.2670,12.1091
207.1491,11.9050
207.0685,11.6834
207.0276,11.4512
207.0276,11.2155
207.0685,10.9833
207.1491,10.7617
207.2670,10.5575
207.4186,10.3769
207.5992,10.2254
207.8034,10.1075
208.0249,10.0268
208.2571,9.9859
208.3750,9.9833
212.0750,9.9833
212.1664,9.8655
212.3752,9.6527
212.6104,9.4693
212.8676,9.3186
213.1426,9.2032
213.4304,9.1251
213.7259,9.0858
213.8750,9.0833
Z" /> 
<path style="fill:none; 
stroke:#000000; stroke-width:0.1000; stroke-opacity:1; 
stroke-linecap:round; stroke-linejoin:round;fill:none"
d="M 228.5370,9.7048
228.5394,9.5991
228.5783,9.3914
228.6546,9.1943
228.7659,9.0145
228.9083,8.8583
229.0770,8.7310
229.2662,8.6367
229.4695,8.5789
229.6800,8.5594
229.8905,8.5789
230.0938,8.6367
230.2830,8.7310
230.4517,8.8583
230.5941,9.0145
230.7054,9.1943
230.7817,9.3914
230.8206,9.5991
230.8230,9.7048
230.8230,13.0068
230.8206,13.1125
230.7817,13.3203
230.7054,13.5174
230.5941,13.6971
230.4517,13.8533
230.2830,13.9807
230.0938,14.0749
229.8905,14.1328
229.6800,14.1523
229.4695,14.1328
229.2662,14.0749
229.0770,13.9807
228.9083,13.8533
228.7659,13.6971
228.6546,13.5174
228.5783,13.3203
228.5394,13.1125
228.5370,13.0068
Z" /> 
</g> 
</svg>
