<?xml version="1.0" encoding="UTF-8" standalone="no"?>
<!DOCTYPE svg PUBLIC "-//W3C//DTD SVG 1.1//EN" "http://www.w3.org/Graphics/SVG/1.1/DTD/svg11.dtd">
<svg width="1137px" height="461px" version="1.1" xmlns="http://www.w3.org/2000/svg" xmlns:xlink="http://www.w3.org/1999/xlink" xml:space="preserve" xmlns:serif="http://www.serif.com/" style="fill-rule:evenodd;clip-rule:evenodd;stroke-linecap:round;stroke-linejoin:round;">
    <g transform="matrix(1.33333,0,0,1.33333,0,0)">
        <g>
            <path d="M442.46,36.142L484.76,36.142C578.441,-9.441 688.078,-9.441 781.76,36.142L824.06,36.142C828.01,36.142 831.26,39.392 831.26,43.342L831.26,141.383C831.26,145.332 828.01,148.583 824.06,148.583L750.26,148.583C746.511,165.385 731.475,177.436 714.26,177.436C701.778,177.436 690.113,171.1 683.319,160.63L583.201,160.63C579.452,166.406 574.16,171.019 567.926,173.944L571.288,180.267L593.665,175.917C596.908,175.287 600.096,177.437 600.727,180.681L609.922,227.985C610.552,231.228 608.402,234.416 605.158,235.047L479.943,259.386C479.564,259.46 479.179,259.497 478.793,259.497C475.921,259.497 473.429,257.442 472.881,254.623L463.686,207.319C463.612,206.94 463.575,206.555 463.575,206.17C463.575,203.297 465.63,200.805 468.449,200.257L539.995,186.35L542.187,176.034C529.179,172.342 519.204,161.78 516.26,148.583L442.46,148.583C438.51,148.583 435.26,145.333 435.26,141.383L435.26,43.342C435.26,39.392 438.51,36.142 442.46,36.142Z" style="fill:rgb(255,0,83);fill-rule:nonzero;stroke:black;stroke-width:0.14px;"/>
        </g>
    </g>
</svg>
