<?xml version="1.0" standalone="no"?>
 <!DOCTYPE svg PUBLIC "-//W3C//DTD SVG 1.1//EN" 
 "http://www.w3.org/Graphics/SVG/1.1/DTD/svg11.dtd"> 
<svg
  xmlns:svg="http://www.w3.org/2000/svg"
  xmlns="http://www.w3.org/2000/svg"
  xmlns:xlink="http://www.w3.org/1999/xlink"
  version="1.1"
  width="300.8122mm" height="121.8692mm" viewBox="0.0000 0.0000 300.8122 121.8692">
<title>SVG Image created as Alufo-User_4.svg date 2024/11/09 18:57:44 </title>
  <desc>Image generated by PCBNEW </desc>
<g style="fill:#000000; fill-opacity:1.0000;stroke:#000000; stroke-opacity:1.0000;
stroke-linecap:round; stroke-linejoin:round;"
 transform="translate(0 0) scale(1 1)">
<path style="fill:none; 
stroke:#000000; stroke-width:0.1000; stroke-opacity:1; 
stroke-linecap:round; stroke-linejoin:round;fill:none"
d="M 178.8103,17.3383
179.0030,17.3766
179.1845,17.4518
179.3479,17.5610
179.4869,17.6999
179.5961,17.8633
179.6713,18.0449
179.7096,18.2376
179.7120,18.3359
179.7120,25.1074
171.8949,31.6107
171.8949,36.9608
171.8926,37.0598
171.8537,37.2540
171.7773,37.4367
171.6665,37.6009
171.5256,37.7401
171.3601,37.8489
171.1765,37.9230
170.9818,37.9596
170.8828,37.9607
156.4741,37.9615
156.3750,37.9592
156.1809,37.9202
155.9982,37.8439
155.8340,37.7332
155.6948,37.5923
155.5860,37.4269
155.5118,37.2433
155.4752,37.0487
155.4741,36.9496
155.4741,18.3359
155.4764,18.2370
155.5152,18.0430
155.5914,17.8605
155.7019,17.6964
155.8424,17.5573
156.0076,17.4484
156.1909,17.3741
156.3852,17.3372
156.4841,17.3359
178.7120,17.3359
Z" /> 
<path style="fill:none; 
stroke:#000000; stroke-width:0.1000; stroke-opacity:1; 
stroke-linecap:round; stroke-linejoin:round;fill:none"
d="M 227.4535,4.1403
227.5518,4.1428
227.7445,4.1811
227.9260,4.2563
228.0894,4.3655
228.2284,4.5044
228.3375,4.6678
228.4127,4.8494
228.4511,5.0421
228.4535,5.1403
228.4535,5.4263
228.4512,5.5246
228.4129,5.7174
228.3377,5.8989
228.2285,6.0624
228.0895,6.2013
227.9261,6.3105
227.7445,6.3857
227.5518,6.4241
227.4535,6.4263
222.5955,6.4263
222.4972,6.4241
222.3045,6.3858
222.1229,6.3106
221.9595,6.2014
221.8205,6.0624
221.7113,5.8990
221.6361,5.7174
221.5977,5.5246
221.5955,5.4263
221.5955,5.1403
221.5979,5.0421
221.6362,4.8493
221.7114,4.6678
221.8206,4.5044
221.9596,4.3655
222.1230,4.2563
222.3045,4.1811
222.4972,4.1427
222.5955,4.1403
Z" /> 
<path style="fill:none; 
stroke:#000000; stroke-width:0.1000; stroke-opacity:1; 
stroke-linecap:round; stroke-linejoin:round;fill:none"
d="M 164.1683,40.9751
164.3610,41.0134
164.5425,41.0886
164.7059,41.1978
164.8449,41.3367
164.9541,41.5001
165.0293,41.6817
165.0676,41.8744
165.0700,41.9727
165.0700,43.2747
165.0676,43.3729
165.0293,43.5656
164.9541,43.7472
164.8449,43.9106
164.7059,44.0495
164.5425,44.1587
164.3610,44.2339
164.1683,44.2723
164.0700,44.2747
161.1965,44.2747
161.1965,40.9727
164.0700,40.9727
Z" /> 
<path style="fill:none; 
stroke:#000000; stroke-width:0.1000; stroke-opacity:1; 
stroke-linecap:round; stroke-linejoin:round;fill:none"
d="M 180.2220,41.7481
180.3946,41.6842
180.7508,41.5919
181.1152,41.5410
181.4830,41.5323
181.8494,41.5658
182.2096,41.6411
182.5587,41.7572
182.8922,41.9126
183.2057,42.1053
183.4951,42.3326
183.7564,42.5916
183.9864,42.8788
184.0863,43.0333
184.5200,43.0333
184.6547,43.0359
184.9211,43.0760
185.1785,43.1554
185.4213,43.2723
185.6439,43.4241
185.8413,43.6073
186.0093,43.8179
186.1440,44.0513
186.2424,44.3020
186.3024,44.5647
186.3225,44.8333
186.3024,45.1020
186.2424,45.3646
186.1440,45.6154
186.0093,45.8487
185.8413,46.0594
185.6439,46.2426
185.4213,46.3944
185.1785,46.5113
184.9211,46.5907
184.6547,46.6308
184.5200,46.6333
183.9502,46.6333
183.8452,46.7719
183.6096,47.0277
183.3477,47.2564
183.0626,47.4554
182.7575,47.6223
182.5977,47.6908
177.0987,49.8903
176.9342,49.9558
176.5940,50.0543
176.2451,50.1146
175.8916,50.1360
175.5379,50.1182
175.1884,50.0616
174.8472,49.9666
174.5186,49.8346
174.2066,49.6671
173.9150,49.4663
173.6474,49.2344
173.4070,48.9744
173.2999,48.8333
172.0300,48.8333
171.8953,48.8308
171.6289,48.7907
171.3715,48.7113
171.1287,48.5944
170.9061,48.4426
170.7087,48.2594
170.5407,48.0487
170.4060,47.8154
170.3076,47.5646
170.2476,47.3020
170.2275,47.0333
170.2476,46.7647
170.3076,46.5020
170.4060,46.2513
170.5407,46.0179
170.7087,45.8073
170.9061,45.6241
171.1287,45.4723
171.3715,45.3554
171.6289,45.2760
171.8953,45.2359
172.0300,45.2333
173.1636,45.2333
173.2565,45.0894
173.4684,44.8202
173.7080,44.5752
173.9723,44.3572
174.2584,44.1686
174.5630,44.0117
174.7221,43.9479
Z" /> 
<path style="fill:none; 
stroke:#000000; stroke-width:0.1000; stroke-opacity:1; 
stroke-linecap:round; stroke-linejoin:round;fill:none"
d="M 199.2720,50.2481
199.4446,50.1842
199.8008,50.0919
200.1652,50.0410
200.5330,50.0323
200.8994,50.0658
201.2596,50.1411
201.6087,50.2572
201.9422,50.4127
202.2557,50.6053
202.5451,50.8326
202.8064,51.0916
203.0364,51.3788
203.1363,51.5333
203.5700,51.5333
203.7047,51.5359
203.9711,51.5760
204.2285,51.6554
204.4713,51.7723
204.6939,51.9241
204.8913,52.1073
205.0593,52.3179
205.1940,52.5513
205.2924,52.8020
205.3524,53.0647
205.3725,53.3333
205.3524,53.6020
205.2924,53.8646
205.1940,54.1154
205.0593,54.3487
204.8913,54.5594
204.6939,54.7426
204.4713,54.8944
204.2285,55.0113
203.9711,55.0907
203.7047,55.1308
203.5700,55.1333
203.0002,55.1333
202.8952,55.2719
202.6596,55.5277
202.3977,55.7564
202.1126,55.9554
201.8075,56.1223
201.6477,56.1908
196.1487,58.3903
195.9842,58.4558
195.6440,58.5543
195.2951,58.6146
194.9416,58.6360
194.5879,58.6182
194.2384,58.5616
193.8972,58.4666
193.5686,58.3346
193.2566,58.1672
192.9650,57.9663
192.6974,57.7344
192.4570,57.4744
192.3499,57.3333
191.0800,57.3333
190.9453,57.3308
190.6789,57.2907
190.4215,57.2113
190.1787,57.0944
189.9561,56.9426
189.7587,56.7594
189.5907,56.5487
189.4560,56.3154
189.3576,56.0646
189.2976,55.8020
189.2775,55.5333
189.2976,55.2647
189.3576,55.0020
189.4560,54.7513
189.5907,54.5179
189.7587,54.3073
189.9561,54.1241
190.1787,53.9723
190.4215,53.8554
190.6789,53.7760
190.9453,53.7359
191.0800,53.7333
192.2136,53.7333
192.3065,53.5894
192.5184,53.3202
192.7580,53.0752
193.0223,52.8572
193.3084,52.6686
193.6130,52.5117
193.7721,52.4479
Z" /> 
<path style="fill:none; 
stroke:#000000; stroke-width:0.1000; stroke-opacity:1; 
stroke-linecap:round; stroke-linejoin:round;fill:none"
d="M 256.4220,16.2481
256.5946,16.1842
256.9508,16.0919
257.3152,16.0410
257.6830,16.0323
258.0494,16.0658
258.4096,16.1411
258.7587,16.2572
259.0922,16.4126
259.4057,16.6053
259.6951,16.8326
259.9564,17.0916
260.1864,17.3788
260.2863,17.5333
260.7200,17.5333
260.8547,17.5359
261.1211,17.5760
261.3785,17.6554
261.6213,17.7723
261.8439,17.9241
262.0413,18.1073
262.2093,18.3179
262.3440,18.5513
262.4424,18.8020
262.5024,19.0647
262.5225,19.3333
262.5024,19.6020
262.4424,19.8646
262.3440,20.1154
262.2093,20.3487
262.0413,20.5594
261.8439,20.7426
261.6213,20.8944
261.3785,21.0113
261.1211,21.0907
260.8547,21.1308
260.7200,21.1333
260.1502,21.1333
260.0452,21.2719
259.8096,21.5277
259.5477,21.7564
259.2626,21.9554
258.9575,22.1223
258.7977,22.1908
253.2987,24.3903
253.1342,24.4558
252.7940,24.5543
252.4451,24.6146
252.0916,24.6360
251.7379,24.6182
251.3884,24.5615
251.0472,24.4666
250.7186,24.3346
250.4066,24.1671
250.1150,23.9662
249.8474,23.7344
249.6070,23.4744
249.4999,23.3333
248.2300,23.3333
248.0953,23.3308
247.8289,23.2907
247.5715,23.2113
247.3287,23.0944
247.1061,22.9426
246.9087,22.7594
246.7407,22.5487
246.6060,22.3154
246.5076,22.0646
246.4476,21.8020
246.4275,21.5333
246.4476,21.2647
246.5076,21.0020
246.6060,20.7513
246.7407,20.5179
246.9087,20.3073
247.1061,20.1241
247.3287,19.9723
247.5715,19.8554
247.8289,19.7760
248.0953,19.7359
248.2300,19.7333
249.3636,19.7333
249.4565,19.5894
249.6684,19.3202
249.9080,19.0752
250.1723,18.8571
250.4584,18.6686
250.7630,18.5117
250.9221,18.4479
Z" /> 
<path style="fill:none; 
stroke:#000000; stroke-width:0.1000; stroke-opacity:1; 
stroke-linecap:round; stroke-linejoin:round;fill:none"
d="M 218.3220,28.9981
218.4946,28.9342
218.8508,28.8419
219.2152,28.7910
219.5830,28.7823
219.9494,28.8158
220.3096,28.8911
220.6587,29.0072
220.9922,29.1626
221.3057,29.3553
221.5951,29.5826
221.8564,29.8416
222.0864,30.1288
222.1863,30.2833
222.6200,30.2833
222.7547,30.2859
223.0211,30.3260
223.2785,30.4054
223.5213,30.5223
223.7439,30.6741
223.9413,30.8573
224.1093,31.0679
224.2440,31.3013
224.3424,31.5520
224.4024,31.8147
224.4225,32.0833
224.4024,32.3520
224.3424,32.6146
224.2440,32.8654
224.1093,33.0987
223.9413,33.3094
223.7439,33.4926
223.5213,33.6444
223.2785,33.7613
223.0211,33.8407
222.7547,33.8808
222.6200,33.8833
222.0502,33.8833
221.9452,34.0219
221.7096,34.2777
221.4477,34.5064
221.1626,34.7054
220.8575,34.8723
220.6977,34.9408
215.1987,37.1403
215.0342,37.2058
214.6940,37.3043
214.3451,37.3646
213.9916,37.3860
213.6379,37.3682
213.2884,37.3115
212.9472,37.2166
212.6186,37.0846
212.3066,36.9171
212.0150,36.7163
211.7474,36.4844
211.5070,36.2244
211.3999,36.0833
210.1300,36.0833
209.9953,36.0808
209.7289,36.0407
209.4715,35.9613
209.2287,35.8444
209.0061,35.6926
208.8087,35.5094
208.6407,35.2987
208.5060,35.0654
208.4076,34.8146
208.3476,34.5520
208.3275,34.2833
208.3476,34.0147
208.4076,33.7520
208.5060,33.5013
208.6407,33.2679
208.8087,33.0573
209.0061,32.8741
209.2287,32.7223
209.4715,32.6054
209.7289,32.5260
209.9953,32.4859
210.1300,32.4833
211.2636,32.4833
211.3565,32.3394
211.5684,32.0702
211.8080,31.8252
212.0723,31.6071
212.3584,31.4186
212.6630,31.2617
212.8221,31.1979
Z" /> 
<path style="fill:none; 
stroke:#000000; stroke-width:0.1000; stroke-opacity:1; 
stroke-linecap:round; stroke-linejoin:round;fill:none"
d="M 199.2720,33.2481
199.4446,33.1842
199.8008,33.0919
200.1652,33.0410
200.5330,33.0323
200.8994,33.0658
201.2596,33.1411
201.6087,33.2572
201.9422,33.4126
202.2557,33.6053
202.5451,33.8326
202.8064,34.0916
203.0364,34.3788
203.1363,34.5333
203.5700,34.5333
203.7047,34.5359
203.9711,34.5760
204.2285,34.6554
204.4713,34.7723
204.6939,34.9241
204.8913,35.1073
205.0593,35.3179
205.1940,35.5513
205.2924,35.8020
205.3524,36.0647
205.3725,36.3333
205.3524,36.6020
205.2924,36.8646
205.1940,37.1154
205.0593,37.3487
204.8913,37.5594
204.6939,37.7426
204.4713,37.8944
204.2285,38.0113
203.9711,38.0907
203.7047,38.1308
203.5700,38.1333
203.0002,38.1333
202.8952,38.2719
202.6596,38.5277
202.3977,38.7564
202.1126,38.9554
201.8075,39.1223
201.6477,39.1908
196.1487,41.3903
195.9842,41.4558
195.6440,41.5543
195.2951,41.6146
194.9416,41.6360
194.5879,41.6182
194.2384,41.5615
193.8972,41.4666
193.5686,41.3346
193.2566,41.1671
192.9650,40.9663
192.6974,40.7344
192.4570,40.4744
192.3499,40.3333
191.0800,40.3333
190.9453,40.3308
190.6789,40.2907
190.4215,40.2113
190.1787,40.0944
189.9561,39.9426
189.7587,39.7594
189.5907,39.5487
189.4560,39.3154
189.3576,39.0646
189.2976,38.8020
189.2775,38.5333
189.2976,38.2647
189.3576,38.0020
189.4560,37.7513
189.5907,37.5179
189.7587,37.3073
189.9561,37.1241
190.1787,36.9723
190.4215,36.8554
190.6789,36.7760
190.9453,36.7359
191.0800,36.7333
192.2136,36.7333
192.3065,36.5894
192.5184,36.3202
192.7580,36.0752
193.0223,35.8571
193.3084,35.6686
193.6130,35.5117
193.7721,35.4479
Z" /> 
<path style="fill:none; 
stroke:#000000; stroke-width:0.1000; stroke-opacity:1; 
stroke-linecap:round; stroke-linejoin:round;fill:none"
d="M 275.4720,41.7481
275.6446,41.6842
276.0008,41.5919
276.3652,41.5410
276.7330,41.5323
277.0994,41.5658
277.4596,41.6411
277.8087,41.7572
278.1422,41.9126
278.4557,42.1053
278.7451,42.3326
279.0064,42.5916
279.2364,42.8788
279.3363,43.0333
279.7700,43.0333
279.9047,43.0359
280.1711,43.0760
280.4285,43.1554
280.6713,43.2723
280.8939,43.4241
281.0913,43.6073
281.2593,43.8179
281.3940,44.0513
281.4924,44.3020
281.5524,44.5647
281.5725,44.8333
281.5524,45.1020
281.4924,45.3646
281.3940,45.6154
281.2593,45.8487
281.0913,46.0594
280.8939,46.2426
280.6713,46.3944
280.4285,46.5113
280.1711,46.5907
279.9047,46.6308
279.7700,46.6333
279.2002,46.6333
279.0952,46.7719
278.8596,47.0277
278.5977,47.2564
278.3126,47.4554
278.0075,47.6223
277.8477,47.6908
272.3487,49.8903
272.1842,49.9558
271.8440,50.0543
271.4951,50.1146
271.1416,50.1360
270.7879,50.1182
270.4384,50.0616
270.0972,49.9666
269.7686,49.8346
269.4566,49.6671
269.1650,49.4663
268.8974,49.2344
268.6570,48.9744
268.5499,48.8333
267.2800,48.8333
267.1453,48.8308
266.8789,48.7907
266.6215,48.7113
266.3787,48.5944
266.1561,48.4426
265.9587,48.2594
265.7907,48.0487
265.6560,47.8154
265.5576,47.5646
265.4976,47.3020
265.4775,47.0333
265.4976,46.7647
265.5576,46.5020
265.6560,46.2513
265.7907,46.0179
265.9587,45.8073
266.1561,45.6241
266.3787,45.4723
266.6215,45.3554
266.8789,45.2760
267.1453,45.2359
267.2800,45.2333
268.4136,45.2333
268.5065,45.0894
268.7184,44.8202
268.9580,44.5752
269.2223,44.3572
269.5084,44.1686
269.8130,44.0117
269.9721,43.9479
Z" /> 
<path style="fill:none; 
stroke:#000000; stroke-width:0.1000; stroke-opacity:1; 
stroke-linecap:round; stroke-linejoin:round;fill:none"
d="M 180.2220,24.7481
180.3946,24.6842
180.7508,24.5919
181.1152,24.5410
181.4830,24.5323
181.8494,24.5658
182.2096,24.6411
182.5587,24.7572
182.8922,24.9126
183.2057,25.1053
183.4951,25.3326
183.7564,25.5916
183.9864,25.8788
184.0863,26.0333
184.5200,26.0333
184.6547,26.0359
184.9211,26.0760
185.1785,26.1554
185.4213,26.2723
185.6439,26.4241
185.8413,26.6073
186.0093,26.8179
186.1440,27.0513
186.2424,27.3020
186.3024,27.5647
186.3225,27.8333
186.3024,28.1020
186.2424,28.3646
186.1440,28.6154
186.0093,28.8487
185.8413,29.0594
185.6439,29.2426
185.4213,29.3944
185.1785,29.5113
184.9211,29.5907
184.6547,29.6308
184.5200,29.6333
183.9502,29.6333
183.8452,29.7719
183.6096,30.0277
183.3477,30.2564
183.0626,30.4554
182.7575,30.6223
182.5977,30.6908
177.0987,32.8903
176.9342,32.9558
176.5940,33.0543
176.2451,33.1146
175.8916,33.1360
175.5379,33.1182
175.1884,33.0615
174.8472,32.9666
174.5186,32.8346
174.2066,32.6671
173.9150,32.4663
173.6474,32.2344
173.4070,31.9744
173.2999,31.8333
172.0300,31.8333
171.8953,31.8308
171.6289,31.7907
171.3715,31.7113
171.1287,31.5944
170.9061,31.4426
170.7087,31.2594
170.5407,31.0487
170.4060,30.8154
170.3076,30.5646
170.2476,30.3020
170.2275,30.0333
170.2476,29.7647
170.3076,29.5020
170.4060,29.2513
170.5407,29.0179
170.7087,28.8073
170.9061,28.6241
171.1287,28.4723
171.3715,28.3554
171.6289,28.2760
171.8953,28.2359
172.0300,28.2333
173.1636,28.2333
173.2565,28.0894
173.4684,27.8202
173.7080,27.5752
173.9723,27.3571
174.2584,27.1686
174.5630,27.0117
174.7221,26.9479
Z" /> 
<path style="fill:none; 
stroke:#000000; stroke-width:0.1000; stroke-opacity:1; 
stroke-linecap:round; stroke-linejoin:round;fill:none"
d="M 275.4720,24.7481
275.6446,24.6842
276.0008,24.5919
276.3652,24.5410
276.7330,24.5323
277.0994,24.5658
277.4596,24.6411
277.8087,24.7572
278.1422,24.9126
278.4557,25.1053
278.7451,25.3326
279.0064,25.5916
279.2364,25.8788
279.3363,26.0333
279.7700,26.0333
279.9047,26.0359
280.1711,26.0760
280.4285,26.1554
280.6713,26.2723
280.8939,26.4241
281.0913,26.6073
281.2593,26.8179
281.3940,27.0513
281.4924,27.3020
281.5524,27.5647
281.5725,27.8333
281.5524,28.1020
281.4924,28.3646
281.3940,28.6154
281.2593,28.8487
281.0913,29.0594
280.8939,29.2426
280.6713,29.3944
280.4285,29.5113
280.1711,29.5907
279.9047,29.6308
279.7700,29.6333
279.2002,29.6333
279.0952,29.7719
278.8596,30.0277
278.5977,30.2564
278.3126,30.4554
278.0075,30.6223
277.8477,30.6908
272.3487,32.8903
272.1842,32.9558
271.8440,33.0543
271.4951,33.1146
271.1416,33.1360
270.7879,33.1182
270.4384,33.0615
270.0972,32.9666
269.7686,32.8346
269.4566,32.6671
269.1650,32.4663
268.8974,32.2344
268.6570,31.9744
268.5499,31.8333
267.2800,31.8333
267.1453,31.8308
266.8789,31.7907
266.6215,31.7113
266.3787,31.5944
266.1561,31.4426
265.9587,31.2594
265.7907,31.0487
265.6560,30.8154
265.5576,30.5646
265.4976,30.3020
265.4775,30.0333
265.4976,29.7647
265.5576,29.5020
265.6560,29.2513
265.7907,29.0179
265.9587,28.8073
266.1561,28.6241
266.3787,28.4723
266.6215,28.3554
266.8789,28.2760
267.1453,28.2359
267.2800,28.2333
268.4136,28.2333
268.5065,28.0894
268.7184,27.8202
268.9580,27.5752
269.2223,27.3571
269.5084,27.1686
269.8130,27.0117
269.9721,26.9479
Z" /> 
<path style="fill:none; 
stroke:#000000; stroke-width:0.1000; stroke-opacity:1; 
stroke-linecap:round; stroke-linejoin:round;fill:none"
d="M 256.4220,50.2481
256.5946,50.1842
256.9508,50.0919
257.3152,50.0410
257.6830,50.0323
258.0494,50.0658
258.4096,50.1411
258.7587,50.2573
259.0922,50.4127
259.4057,50.6053
259.6951,50.8326
259.9564,51.0916
260.1864,51.3788
260.2863,51.5333
260.7200,51.5333
260.8547,51.5359
261.1211,51.5760
261.3785,51.6554
261.6213,51.7723
261.8439,51.9241
262.0413,52.1073
262.2093,52.3179
262.3440,52.5513
262.4424,52.8020
262.5024,53.0647
262.5225,53.3333
262.5024,53.6020
262.4424,53.8646
262.3440,54.1154
262.2093,54.3487
262.0413,54.5594
261.8439,54.7426
261.6213,54.8944
261.3785,55.0113
261.1211,55.0907
260.8547,55.1308
260.7200,55.1333
260.1502,55.1333
260.0452,55.2719
259.8096,55.5277
259.5477,55.7564
259.2626,55.9554
258.9575,56.1223
258.7977,56.1908
253.2987,58.3903
253.1342,58.4558
252.7940,58.5543
252.4451,58.6146
252.0916,58.6360
251.7379,58.6182
251.3884,58.5616
251.0472,58.4666
250.7186,58.3346
250.4066,58.1672
250.1150,57.9663
249.8474,57.7344
249.6070,57.4744
249.4999,57.3333
248.2300,57.3333
248.0953,57.3308
247.8289,57.2907
247.5715,57.2113
247.3287,57.0944
247.1061,56.9426
246.9087,56.7594
246.7407,56.5487
246.6060,56.3154
246.5076,56.0646
246.4476,55.8020
246.4275,55.5333
246.4476,55.2647
246.5076,55.0020
246.6060,54.7513
246.7407,54.5179
246.9087,54.3073
247.1061,54.1241
247.3287,53.9723
247.5715,53.8554
247.8289,53.7760
248.0953,53.7359
248.2300,53.7333
249.3636,53.7333
249.4565,53.5894
249.6684,53.3202
249.9080,53.0752
250.1723,52.8572
250.4584,52.6686
250.7630,52.5117
250.9221,52.4479
Z" /> 
<path style="fill:none; 
stroke:#000000; stroke-width:0.1000; stroke-opacity:1; 
stroke-linecap:round; stroke-linejoin:round;fill:none"
d="M 207.1166,74.0108
207.2738,73.9152
207.6058,73.7566
207.9538,73.6371
208.3132,73.5584
208.6793,73.5214
209.0472,73.5266
209.4121,73.5739
209.7691,73.6629
210.1136,73.7921
210.4410,73.9601
210.7470,74.1644
211.0275,74.4025
211.1551,74.5351
211.5808,74.4524
211.7359,74.4265
212.0502,74.4211
212.3609,74.4685
212.5111,74.5150
213.1068,77.5797
213.0165,77.6555
212.8195,77.7854
212.6072,77.8883
212.3833,77.9624
212.2677,77.9862
211.7084,78.0949
211.6317,78.2510
211.4493,78.5470
211.2359,78.8215
210.9939,79.0713
210.7263,79.2933
210.5826,79.3911
205.6042,82.5994
205.4552,82.6951
205.1401,82.8566
204.8091,82.9824
204.4662,83.0709
204.1156,83.1209
203.7617,83.1320
203.4087,83.1039
203.0610,83.0370
202.7227,82.9322
202.3981,82.7906
202.0912,82.6141
201.8056,82.4047
201.6736,82.2867
200.4270,82.5290
200.2943,82.5524
200.0251,82.5638
199.7572,82.5350
199.4966,82.4665
199.2492,82.3600
199.0203,82.2178
198.8152,82.0431
198.6385,81.8397
198.4940,81.6123
198.3850,81.3659
198.3140,81.1060
198.2825,80.8385
198.2912,80.5692
198.3400,80.3042
198.4277,80.0495
198.5524,79.8106
198.7113,79.5931
198.9009,79.4016
199.1169,79.2405
199.3544,79.1135
199.6083,79.0232
199.7401,78.9951
200.8528,78.7789
200.9165,78.6198
201.0733,78.3151
201.2616,78.0289
201.4795,77.7644
201.7244,77.5248
201.9935,77.3127
202.1374,77.2197
Z" /> 
<path style="fill:none; 
stroke:#000000; stroke-width:0.1000; stroke-opacity:1; 
stroke-linecap:round; stroke-linejoin:round;fill:none"
d="M 164.7920,20.6207
164.7898,20.7189
164.7514,20.9117
164.6762,21.0933
164.5670,21.2567
164.4280,21.3957
164.2646,21.5049
164.0830,21.5801
163.8903,21.6184
163.7920,21.6207
157.7920,21.6207
157.6937,21.6183
157.5010,21.5799
157.3195,21.5047
157.1561,21.3955
157.0171,21.2566
156.9079,21.0932
156.8327,20.9116
156.7944,20.7189
156.7920,20.6207
156.7920,19.3707
164.7920,19.3707
Z" /> 
<path style="fill:none; 
stroke:#000000; stroke-width:0.1000; stroke-opacity:1; 
stroke-linecap:round; stroke-linejoin:round;fill:none"
d="M 185.0300,78.3040
185.1872,78.2084
185.5192,78.0498
185.8672,77.9303
186.2266,77.8516
186.5927,77.8146
186.9606,77.8198
187.3255,77.8671
187.6825,77.9561
188.0270,78.0853
188.3544,78.2533
188.6604,78.4576
188.9409,78.6957
189.0684,78.8283
189.4942,78.7456
189.6269,78.7223
189.8961,78.7109
190.1639,78.7397
190.4245,78.8082
190.6720,78.9147
190.9008,79.0569
191.1059,79.2316
191.2826,79.4349
191.4271,79.6623
191.5360,79.9087
191.6071,80.1686
191.6386,80.4361
191.6298,80.7054
191.5811,80.9703
191.4934,81.2251
191.3687,81.4639
191.2098,81.6814
191.0202,81.8729
190.8043,82.0339
190.5667,82.1610
190.3129,82.2513
190.1811,82.2794
189.6218,82.3881
189.5451,82.5442
189.3627,82.8402
189.1493,83.1147
188.9073,83.3645
188.6397,83.5865
188.4960,83.6843
183.5176,86.8926
183.3686,86.9883
183.0535,87.1498
182.7225,87.2756
182.3796,87.3641
182.0290,87.4141
181.6751,87.4252
181.3221,87.3971
180.9744,87.3302
180.6361,87.2254
180.3115,87.0838
180.0046,86.9073
179.7190,86.6979
179.5870,86.5799
178.3404,86.8222
178.2077,86.8456
177.9385,86.8570
177.6706,86.8282
177.4100,86.7597
177.1626,86.6532
176.9337,86.5110
176.7286,86.3363
176.5519,86.1329
176.4074,85.9055
176.2984,85.6591
176.2274,85.3992
176.1959,85.1317
176.2046,84.8624
176.2534,84.5974
176.3411,84.3427
176.4658,84.1038
176.6247,83.8863
176.8143,83.6948
177.0303,83.5337
177.2678,83.4067
177.5217,83.3164
177.6535,83.2884
178.7662,83.0721
178.8299,82.9130
178.9866,82.6083
179.1750,82.3221
179.3929,82.0576
179.6378,81.8180
179.9069,81.6059
180.0508,81.5129
Z" /> 
<path style="fill:none; 
stroke:#000000; stroke-width:0.1000; stroke-opacity:1; 
stroke-linecap:round; stroke-linejoin:round;fill:none"
d="M 218.3220,45.9981
218.4946,45.9342
218.8508,45.8419
219.2152,45.7910
219.5830,45.7823
219.9494,45.8158
220.3096,45.8911
220.6587,46.0072
220.9922,46.1627
221.3057,46.3553
221.5951,46.5826
221.8564,46.8416
222.0864,47.1288
222.1863,47.2833
222.6200,47.2833
222.7547,47.2859
223.0211,47.3260
223.2785,47.4054
223.5213,47.5223
223.7439,47.6741
223.9413,47.8573
224.1093,48.0679
224.2440,48.3013
224.3424,48.5520
224.4024,48.8147
224.4225,49.0833
224.4024,49.3520
224.3424,49.6146
224.2440,49.8654
224.1093,50.0987
223.9413,50.3094
223.7439,50.4926
223.5213,50.6444
223.2785,50.7613
223.0211,50.8407
222.7547,50.8808
222.6200,50.8833
222.0502,50.8833
221.9452,51.0219
221.7096,51.2777
221.4477,51.5064
221.1626,51.7054
220.8575,51.8723
220.6977,51.9408
215.1987,54.1403
215.0342,54.2058
214.6940,54.3043
214.3451,54.3646
213.9916,54.3860
213.6379,54.3682
213.2884,54.3116
212.9472,54.2166
212.6186,54.0846
212.3066,53.9172
212.0150,53.7163
211.7474,53.4844
211.5070,53.2244
211.3999,53.0833
210.1300,53.0833
209.9953,53.0808
209.7289,53.0407
209.4715,52.9613
209.2287,52.8444
209.0061,52.6926
208.8087,52.5094
208.6407,52.2987
208.5060,52.0654
208.4076,51.8146
208.3476,51.5520
208.3275,51.2833
208.3476,51.0147
208.4076,50.7520
208.5060,50.5013
208.6407,50.2679
208.8087,50.0573
209.0061,49.8741
209.2287,49.7223
209.4715,49.6054
209.7289,49.5260
209.9953,49.4859
210.1300,49.4833
211.2636,49.4833
211.3565,49.3394
211.5684,49.0702
211.8080,48.8252
212.0723,48.6072
212.3584,48.4186
212.6630,48.2617
212.8221,48.1979
Z" /> 
<path style="fill:none; 
stroke:#000000; stroke-width:0.1000; stroke-opacity:1; 
stroke-linecap:round; stroke-linejoin:round;fill:none"
d="M 256.4220,33.2481
256.5946,33.1842
256.9508,33.0919
257.3152,33.0410
257.6830,33.0323
258.0494,33.0658
258.4096,33.1411
258.7587,33.2572
259.0922,33.4126
259.4057,33.6053
259.6951,33.8326
259.9564,34.0916
260.1864,34.3788
260.2863,34.5333
260.7200,34.5333
260.8547,34.5359
261.1211,34.5760
261.3785,34.6554
261.6213,34.7723
261.8439,34.9241
262.0413,35.1073
262.2093,35.3179
262.3440,35.5513
262.4424,35.8020
262.5024,36.0647
262.5225,36.3333
262.5024,36.6020
262.4424,36.8646
262.3440,37.1154
262.2093,37.3487
262.0413,37.5594
261.8439,37.7426
261.6213,37.8944
261.3785,38.0113
261.1211,38.0907
260.8547,38.1308
260.7200,38.1333
260.1502,38.1333
260.0452,38.2719
259.8096,38.5277
259.5477,38.7564
259.2626,38.9554
258.9575,39.1223
258.7977,39.1908
253.2987,41.3903
253.1342,41.4558
252.7940,41.5543
252.4451,41.6146
252.0916,41.6360
251.7379,41.6182
251.3884,41.5615
251.0472,41.4666
250.7186,41.3346
250.4066,41.1671
250.1150,40.9663
249.8474,40.7344
249.6070,40.4744
249.4999,40.3333
248.2300,40.3333
248.0953,40.3308
247.8289,40.2907
247.5715,40.2113
247.3287,40.0944
247.1061,39.9426
246.9087,39.7594
246.7407,39.5487
246.6060,39.3154
246.5076,39.0646
246.4476,38.8020
246.4275,38.5333
246.4476,38.2647
246.5076,38.0020
246.6060,37.7513
246.7407,37.5179
246.9087,37.3073
247.1061,37.1241
247.3287,36.9723
247.5715,36.8554
247.8289,36.7760
248.0953,36.7359
248.2300,36.7333
249.3636,36.7333
249.4565,36.5894
249.6684,36.3202
249.9080,36.0752
250.1723,35.8571
250.4584,35.6686
250.7630,35.5117
250.9221,35.4479
Z" /> 
<path style="fill:none; 
stroke:#000000; stroke-width:0.1000; stroke-opacity:1; 
stroke-linecap:round; stroke-linejoin:round;fill:none"
d="M 161.5170,41.3333
161.6153,41.3356
161.8080,41.3739
161.9896,41.4491
162.1530,41.5583
162.2920,41.6973
162.4012,41.8607
162.4764,42.0423
162.5148,42.2351
162.5170,42.3333
162.5170,48.3333
162.5146,48.4316
162.4763,48.6243
162.4011,48.8059
162.2919,48.9693
162.1529,49.1082
161.9895,49.2174
161.8080,49.2926
161.6153,49.3309
161.5170,49.3333
160.2670,49.3333
160.2670,41.3333
Z" /> 
<path style="fill:none; 
stroke:#000000; stroke-width:0.1000; stroke-opacity:1; 
stroke-linecap:round; stroke-linejoin:round;fill:none"
d="M 199.2720,16.2481
199.4446,16.1842
199.8008,16.0919
200.1652,16.0410
200.5330,16.0323
200.8994,16.0658
201.2596,16.1411
201.6087,16.2572
201.9422,16.4126
202.2557,16.6053
202.5451,16.8326
202.8064,17.0916
203.0364,17.3788
203.1363,17.5333
203.5700,17.5333
203.7047,17.5359
203.9711,17.5760
204.2285,17.6554
204.4713,17.7723
204.6939,17.9241
204.8913,18.1073
205.0593,18.3179
205.1940,18.5513
205.2924,18.8020
205.3524,19.0647
205.3725,19.3333
205.3524,19.6020
205.2924,19.8646
205.1940,20.1154
205.0593,20.3487
204.8913,20.5594
204.6939,20.7426
204.4713,20.8944
204.2285,21.0113
203.9711,21.0907
203.7047,21.1308
203.5700,21.1333
203.0002,21.1333
202.8952,21.2719
202.6596,21.5277
202.3977,21.7564
202.1126,21.9554
201.8075,22.1223
201.6477,22.1908
196.1487,24.3903
195.9842,24.4558
195.6440,24.5543
195.2951,24.6146
194.9416,24.6360
194.5879,24.6182
194.2384,24.5615
193.8972,24.4666
193.5686,24.3346
193.2566,24.1671
192.9650,23.9662
192.6974,23.7344
192.4570,23.4744
192.3499,23.3333
191.0800,23.3333
190.9453,23.3308
190.6789,23.2907
190.4215,23.2113
190.1787,23.0944
189.9561,22.9426
189.7587,22.7594
189.5907,22.5487
189.4560,22.3154
189.3576,22.0646
189.2976,21.8020
189.2775,21.5333
189.2976,21.2647
189.3576,21.0020
189.4560,20.7513
189.5907,20.5179
189.7587,20.3073
189.9561,20.1241
190.1787,19.9723
190.4215,19.8554
190.6789,19.7760
190.9453,19.7359
191.0800,19.7333
192.2136,19.7333
192.3065,19.5894
192.5184,19.3202
192.7580,19.0752
193.0223,18.8571
193.3084,18.6686
193.6130,18.5117
193.7721,18.4479
Z" /> 
<path style="fill:none; 
stroke:#000000; stroke-width:0.1000; stroke-opacity:1; 
stroke-linecap:round; stroke-linejoin:round;fill:none"
d="M 198.3096,6.6333
198.4079,6.6356
198.6006,6.6739
198.7822,6.7491
198.9456,6.8583
199.0846,6.9973
199.1938,7.1607
199.2690,7.3423
199.3073,7.5351
199.3096,7.6333
199.3096,14.1583
199.3073,14.2566
199.2690,14.4494
199.1938,14.6309
199.0846,14.7944
198.9456,14.9333
198.7822,15.0425
198.6006,15.1177
198.4079,15.1561
198.3096,15.1583
191.3096,15.1583
191.2113,15.1559
191.0186,15.1176
190.8371,15.0424
190.6737,14.9332
190.5347,14.7943
190.4255,14.6309
190.3503,14.4493
190.3120,14.2566
190.3096,14.1583
190.3096,7.6333
190.3120,7.5351
190.3503,7.3423
190.4255,7.1608
190.5347,6.9974
190.6737,6.8585
190.8371,6.7493
191.0186,6.6741
191.2113,6.6357
191.3096,6.6333
Z" /> 
<path style="fill:none; 
stroke:#000000; stroke-width:0.1000; stroke-opacity:1; 
stroke-linecap:round; stroke-linejoin:round;fill:none"
d="M 237.3720,11.9981
237.5446,11.9342
237.9008,11.8419
238.2652,11.7910
238.6330,11.7823
238.9994,11.8158
239.3596,11.8911
239.7087,12.0072
240.0422,12.1626
240.3557,12.3553
240.6451,12.5826
240.9064,12.8416
241.1364,13.1288
241.2363,13.2833
241.6700,13.2833
241.8047,13.2859
242.0711,13.3260
242.3285,13.4054
242.5713,13.5223
242.7939,13.6741
242.9913,13.8573
243.1593,14.0679
243.2940,14.3012
243.3924,14.5520
243.4524,14.8147
243.4725,15.0833
243.4524,15.3520
243.3924,15.6146
243.2940,15.8654
243.1593,16.0987
242.9913,16.3094
242.7939,16.4926
242.5713,16.6444
242.3285,16.7613
242.0711,16.8407
241.8047,16.8808
241.6700,16.8833
241.1002,16.8833
240.9952,17.0219
240.7596,17.2777
240.4977,17.5064
240.2126,17.7054
239.9075,17.8723
239.7477,17.9408
234.2487,20.1403
234.0842,20.2058
233.7440,20.3043
233.3951,20.3646
233.0416,20.3860
232.6879,20.3682
232.3384,20.3115
231.9972,20.2166
231.6686,20.0846
231.3566,19.9171
231.0650,19.7162
230.7974,19.4844
230.5570,19.2244
230.4499,19.0833
229.1800,19.0833
229.0453,19.0808
228.7789,19.0407
228.5215,18.9613
228.2787,18.8444
228.0561,18.6926
227.8587,18.5094
227.6907,18.2987
227.5560,18.0654
227.4576,17.8146
227.3976,17.5520
227.3775,17.2833
227.3976,17.0147
227.4576,16.7520
227.5560,16.5012
227.6907,16.2679
227.8587,16.0573
228.0561,15.8741
228.2787,15.7223
228.5215,15.6054
228.7789,15.5260
229.0453,15.4859
229.1800,15.4833
230.3136,15.4833
230.4065,15.3394
230.6184,15.0702
230.8580,14.8252
231.1223,14.6071
231.4084,14.4186
231.7130,14.2617
231.8721,14.1979
Z" /> 
<path style="fill:none; 
stroke:#000000; stroke-width:0.1000; stroke-opacity:1; 
stroke-linecap:round; stroke-linejoin:round;fill:none"
d="M 237.3720,28.9981
237.5446,28.9342
237.9008,28.8419
238.2652,28.7910
238.6330,28.7823
238.9994,28.8158
239.3596,28.8911
239.7087,29.0072
240.0422,29.1626
240.3557,29.3553
240.6451,29.5826
240.9064,29.8416
241.1364,30.1288
241.2363,30.2833
241.6700,30.2833
241.8047,30.2859
242.0711,30.3260
242.3285,30.4054
242.5713,30.5223
242.7939,30.6741
242.9913,30.8573
243.1593,31.0679
243.2940,31.3013
243.3924,31.5520
243.4524,31.8147
243.4725,32.0833
243.4524,32.3520
243.3924,32.6146
243.2940,32.8654
243.1593,33.0987
242.9913,33.3094
242.7939,33.4926
242.5713,33.6444
242.3285,33.7613
242.0711,33.8407
241.8047,33.8808
241.6700,33.8833
241.1002,33.8833
240.9952,34.0219
240.7596,34.2777
240.4977,34.5064
240.2126,34.7054
239.9075,34.8723
239.7477,34.9408
234.2487,37.1403
234.0842,37.2058
233.7440,37.3043
233.3951,37.3646
233.0416,37.3860
232.6879,37.3682
232.3384,37.3115
231.9972,37.2166
231.6686,37.0846
231.3566,36.9171
231.0650,36.7163
230.7974,36.4844
230.5570,36.2244
230.4499,36.0833
229.1800,36.0833
229.0453,36.0808
228.7789,36.0407
228.5215,35.9613
228.2787,35.8444
228.0561,35.6926
227.8587,35.5094
227.6907,35.2987
227.5560,35.0654
227.4576,34.8146
227.3976,34.5520
227.3775,34.2833
227.3976,34.0147
227.4576,33.7520
227.5560,33.5013
227.6907,33.2679
227.8587,33.0573
228.0561,32.8741
228.2787,32.7223
228.5215,32.6054
228.7789,32.5260
229.0453,32.4859
229.1800,32.4833
230.3136,32.4833
230.4065,32.3394
230.6184,32.0702
230.8580,31.8252
231.1223,31.6071
231.4084,31.4186
231.7130,31.2617
231.8721,31.1979
Z" /> 
<path style="fill:none; 
stroke:#000000; stroke-width:0.1000; stroke-opacity:1; 
stroke-linecap:round; stroke-linejoin:round;fill:none"
d="M 237.3720,45.9981
237.5446,45.9342
237.9008,45.8419
238.2652,45.7910
238.6330,45.7823
238.9994,45.8158
239.3596,45.8911
239.7087,46.0072
240.0422,46.1627
240.3557,46.3553
240.6451,46.5826
240.9064,46.8416
241.1364,47.1288
241.2363,47.2833
241.6700,47.2833
241.8047,47.2859
242.0711,47.3260
242.3285,47.4054
242.5713,47.5223
242.7939,47.6741
242.9913,47.8573
243.1593,48.0679
243.2940,48.3013
243.3924,48.5520
243.4524,48.8147
243.4725,49.0833
243.4524,49.3520
243.3924,49.6146
243.2940,49.8654
243.1593,50.0987
242.9913,50.3094
242.7939,50.4926
242.5713,50.6444
242.3285,50.7613
242.0711,50.8407
241.8047,50.8808
241.6700,50.8833
241.1002,50.8833
240.9952,51.0219
240.7596,51.2777
240.4977,51.5064
240.2126,51.7054
239.9075,51.8723
239.7477,51.9408
234.2487,54.1403
234.0842,54.2058
233.7440,54.3043
233.3951,54.3646
233.0416,54.3860
232.6879,54.3682
232.3384,54.3116
231.9972,54.2166
231.6686,54.0846
231.3566,53.9172
231.0650,53.7163
230.7974,53.4844
230.5570,53.2244
230.4499,53.0833
229.1800,53.0833
229.0453,53.0808
228.7789,53.0407
228.5215,52.9613
228.2787,52.8444
228.0561,52.6926
227.8587,52.5094
227.6907,52.2987
227.5560,52.0654
227.4576,51.8146
227.3976,51.5520
227.3775,51.2833
227.3976,51.0147
227.4576,50.7520
227.5560,50.5013
227.6907,50.2679
227.8587,50.0573
228.0561,49.8741
228.2787,49.7223
228.5215,49.6054
228.7789,49.5260
229.0453,49.4859
229.1800,49.4833
230.3136,49.4833
230.4065,49.3394
230.6184,49.0702
230.8580,48.8252
231.1223,48.6072
231.4084,48.4186
231.7130,48.2617
231.8721,48.1979
Z" /> 
<path style="fill:none; 
stroke:#000000; stroke-width:0.1000; stroke-opacity:1; 
stroke-linecap:round; stroke-linejoin:round;fill:none"
d="M 218.3220,11.9981
218.4946,11.9342
218.8508,11.8419
219.2152,11.7910
219.5830,11.7823
219.9494,11.8158
220.3096,11.8911
220.6587,12.0072
220.9922,12.1626
221.3057,12.3553
221.5951,12.5826
221.8564,12.8416
222.0864,13.1288
222.1863,13.2833
222.6200,13.2833
222.7547,13.2859
223.0211,13.3260
223.2785,13.4054
223.5213,13.5223
223.7439,13.6741
223.9413,13.8573
224.1093,14.0679
224.2440,14.3012
224.3424,14.5520
224.4024,14.8147
224.4225,15.0833
224.4024,15.3520
224.3424,15.6146
224.2440,15.8654
224.1093,16.0987
223.9413,16.3094
223.7439,16.4926
223.5213,16.6444
223.2785,16.7613
223.0211,16.8407
222.7547,16.8808
222.6200,16.8833
222.0502,16.8833
221.9452,17.0219
221.7096,17.2777
221.4477,17.5064
221.1626,17.7054
220.8575,17.8723
220.6977,17.9408
215.1987,20.1403
215.0342,20.2058
214.6940,20.3043
214.3451,20.3646
213.9916,20.3860
213.6379,20.3682
213.2884,20.3115
212.9472,20.2166
212.6186,20.0846
212.3066,19.9171
212.0150,19.7162
211.7474,19.4844
211.5070,19.2244
211.3999,19.0833
210.1300,19.0833
209.9953,19.0808
209.7289,19.0407
209.4715,18.9613
209.2287,18.8444
209.0061,18.6926
208.8087,18.5094
208.6407,18.2987
208.5060,18.0654
208.4076,17.8146
208.3476,17.5520
208.3275,17.2833
208.3476,17.0147
208.4076,16.7520
208.5060,16.5012
208.6407,16.2679
208.8087,16.0573
209.0061,15.8741
209.2287,15.7223
209.4715,15.6054
209.7289,15.5260
209.9953,15.4859
210.1300,15.4833
211.2636,15.4833
211.3565,15.3394
211.5684,15.0702
211.8080,14.8252
212.0723,14.6071
212.3584,14.4186
212.6630,14.2617
212.8221,14.1979
Z" /> 
</g> 
</svg>
