<?xml version="1.0" standalone="no"?>
 <!DOCTYPE svg PUBLIC "-//W3C//DTD SVG 1.1//EN" 
 "http://www.w3.org/Graphics/SVG/1.1/DTD/svg11.dtd"> 
<svg
  xmlns:svg="http://www.w3.org/2000/svg"
  xmlns="http://www.w3.org/2000/svg"
  xmlns:xlink="http://www.w3.org/1999/xlink"
  version="1.1"
  width="300.8122mm" height="121.8692mm" viewBox="0.0000 0.0000 300.8122 121.8692">
<title>SVG Image created as Alufo-Edge_Cuts.svg date 2024/11/09 18:57:44 </title>
  <desc>Image generated by PCBNEW </desc>
<g style="fill:#000000; fill-opacity:1.0000;stroke:#000000; stroke-opacity:1.0000;
stroke-linecap:round; stroke-linejoin:round;"
 transform="translate(0 0) scale(1 1)">
</g>
<g style="fill:none; 
stroke:#000000; stroke-width:0.0500; stroke-opacity:1; 
stroke-linecap:round; stroke-linejoin:round;">
<path d="M165.2585 70.6461
L190.4981 65.7401
" />
<path d="M11.9449 25.5000
L22.1050 25.5000
" />
<path d="M169.3132 91.5057
L213.4864 82.9193
" />
<path d="M200.3517 61.3635 A13.0115 13.0115 0.0 0 0 205.7403 56.6667" />
<path d="M137.6751 24.2300 A1.2699 1.2699 0.0 0 0 138.9450 25.5000" />
<path d="M211.9231 63.7402 A2.1250 2.1250 0.0 0 0 209.4317 62.0597" />
<path d="M209.4317 62.0597
L201.5377 63.5942
" />
<path d="M275.7875 12.7500
L290.7100 12.7500
" />
<path d="M150.3750 26.7584
L150.3750 38.3967
" />
<path d="M153.5500 41.2867
L153.5500 23.5833
" />
<path d="M137.6750 15.2005
L137.6750 16.0833
" />
<path d="M80.5250 0.6813 A119.7354 119.7354 0.0 0 0 23.3750 15.2005" />
<path d="M163.5780 73.1376
L166.8218 89.8252
" />
<path d="M137.6750 15.2005 A119.7354 119.7354 0.0 0 0 80.5250 0.6813" />
<path d="M153.5500 49.8767 A2.5400 2.5400 0.0 0 0 156.0900 52.4167" />
<path d="M57.4767 61.3635 A13.0113 13.0113 0.0 0 0 63.9034 54.7247" />
<path d="M205.7403 56.6667
L241.0597 56.6667
" />
<path d="M165.2585 70.6461 A2.1250 2.1250 0.0 0 0 163.5780 73.1376" />
<path d="M149.1049 25.5000
L138.9450 25.5000
" />
<path d="M10.6750 26.7699
L10.6750 38.3905
" />
<path d="M122.0861 50.4067
L136.4050 50.4067
" />
<path d="M138.9514 39.6667 A1.2700 1.2700 0.0 0 0 137.6750 40.9367" />
<path d="M20.7030 73.1376
L23.9484 89.8336
" />
<path d="M11.9449 25.5000 A1.2699 1.2699 0.0 0 0 10.6750 26.7699" />
<path d="M22.1050 25.5000 A1.2700 1.2700 0.0 0 0 23.3750 24.2300" />
<path d="M290.7100 52.4167
L264.6750 52.4167
" />
<path d="M10.6750 38.3905 A1.2700 1.2700 0.0 0 0 11.9450 39.6667" />
<path d="M63.9034 54.7247
L97.1466 54.7247
" />
<path d="M66.5567 62.0597
L58.6627 63.5942
" />
<path d="M150.3750 26.7584 A1.2702 1.2702 0.0 0 0 149.1049 25.5000" />
<path d="M138.9250 17.3333
L152.3000 17.3333
" />
<path d="M152.3000 47.5367
L138.9250 47.5367
" />
<path d="M23.3750 49.1367 A1.2700 1.2700 0.0 0 0 24.6450 50.4067" />
<path d="M136.4050 50.4067 A1.2700 1.2700 0.0 0 0 137.6750 49.1367" />
<path d="M153.5500 15.2900
L153.5500 16.0833
" />
<path d="M149.1050 39.6667 A1.2700 1.2700 0.0 0 0 150.3750 38.3967" />
<path d="M149.1050 39.6667
L138.9514 39.6667
" />
<path d="M191.2716 62.1010
L190.4981 65.7401
" />
<path d="M293.2500 15.2900
L293.2500 49.8767
" />
<path d="M23.9484 89.8336 A2.1250 2.1250 0.0 0 0 26.4382 91.5057" />
<path d="M137.6750 23.5833
L137.6750 24.2300
" />
<path d="M293.2500 15.2900 A2.5400 2.5400 0.0 0 0 290.7100 12.7500" />
<path d="M24.6450 50.4067
L38.9639 50.4067
" />
<path d="M137.6750 40.9367
L137.6750 41.2867
" />
<path d="M23.3750 40.9367
L23.3750 49.1367
" />
<path d="M69.0481 63.7402 A2.1250 2.1250 0.0 0 0 66.5567 62.0597" />
<path d="M156.0900 12.7500 A2.5400 2.5400 0.0 0 0 153.5500 15.2900" />
<path d="M138.9250 42.5367
L152.3000 42.5367
" />
<path d="M156.0900 52.4167
L182.1250 52.4167
" />
<path d="M166.8217 89.8252 A2.1250 2.1250 0.0 0 0 169.3132 91.5057" />
<path d="M138.9250 22.3333
L152.3000 22.3333
" />
<path d="M200.3517 61.3635
L201.5377 63.5942
" />
<path d="M22.3835 70.6461 A2.1250 2.1250 0.0 0 0 20.7030 73.1376" />
<path d="M23.3750 40.9367 A1.2700 1.2700 0.0 0 0 22.1050 39.6667" />
<path d="M156.0900 12.7500
L171.0125 12.7500
" />
<path d="M70.6189 82.9179 A2.1250 2.1250 0.0 0 0 72.2919 80.4279" />
<path d="M215.1669 80.4279
L211.9231 63.7402
" />
<path d="M241.0597 56.6667 A13.0122 13.0122 0.0 0 0 264.6750 52.4167" />
<path d="M290.7100 52.4167 A2.5399 2.5399 0.0 0 0 293.2500 49.8767" />
<path d="M137.6750 49.1367
L137.6750 48.7867
" />
<path d="M22.3835 70.6462
L47.6231 65.7401
" />
<path d="M275.7875 12.7500 A119.7354 119.7354 0.0 0 0 171.0125 12.7500" />
<path d="M22.1050 39.6667
L11.9450 39.6667
" />
<path d="M72.2919 80.4279
L69.0481 63.7402
" />
<path d="M48.3966 62.1010
L47.6231 65.7401
" />
<path d="M57.4767 61.3635
L58.6627 63.5942
" />
<path d="M26.4382 91.5057
L70.6189 82.9179
" />
<path d="M182.1250 52.4167 A13.0122 13.0122 0.0 0 0 191.2716 62.1010" />
<path d="M213.4864 82.9193 A2.1250 2.1250 0.0 0 0 215.1669 80.4279" />
<path d="M97.1466 54.7247 A13.0122 13.0122 0.0 0 0 122.0861 50.4067" />
<path d="M38.9639 50.4067 A13.0122 13.0122 0.0 0 0 48.3966 62.1010" />
<path d="M153.5500 49.8767
L153.5500 48.7867
" />
<path d="M23.3750 15.2005
L23.3750 24.2300
" />
<path style="fill:none; 
stroke:#000000; stroke-width:0.0500; stroke-opacity:1; 
stroke-linecap:round; stroke-linejoin:round;fill:none"
d="M 102.1000,8.5833
116.1000,8.5833
116.1000,22.5833
102.1000,22.5833
Z" /> 
<path d="M152.3000 17.3333
L152.5500 17.3333
" />
<path d="M152.3000 22.3333
L152.5500 22.3333
" />
<path d="M153.5500 16.3333
L153.5500 16.0833
" />
<path d="M153.5500 23.3333
L153.5500 23.5833
" />
<path d="M153.5500 23.3333 A1.0000 1.0000 0.0 0 0 152.5500 22.3333" />
<path d="M152.5500 17.3333 A1.0000 1.0000 0.0 0 0 153.5500 16.3333" />
<path style="fill:none; 
stroke:#000000; stroke-width:0.0500; stroke-opacity:1; 
stroke-linecap:round; stroke-linejoin:round;fill:none"
d="M 64.0000,38.3333
78.0000,38.3333
78.0000,52.3333
64.0000,52.3333
Z" /> 
<path style="fill:none; 
stroke:#000000; stroke-width:0.0500; stroke-opacity:1; 
stroke-linecap:round; stroke-linejoin:round;fill:none"
d="M 102.1000,42.5833
116.1000,42.5833
116.1000,56.5833
102.1000,56.5833
Z" /> 
<path style="fill:none; 
stroke:#000000; stroke-width:0.0500; stroke-opacity:1; 
stroke-linecap:round; stroke-linejoin:round;fill:none"
d="M 25.9000,34.0833
39.9000,34.0833
39.9000,48.0833
25.9000,48.0833
Z" /> 
<path d="M152.3000 42.5367
L152.5500 42.5367
" />
<path d="M152.3000 47.5367
L152.5500 47.5367
" />
<path d="M153.5500 41.5367
L153.5500 41.2867
" />
<path d="M153.5500 48.5367
L153.5500 48.7867
" />
<path d="M153.5500 48.5367 A1.0000 1.0000 0.0 0 0 152.5500 47.5367" />
<path d="M152.5500 42.5367 A1.0000 1.0000 0.0 0 0 153.5500 41.5367" />
<path style="fill:none; 
stroke:#000000; stroke-width:0.0500; stroke-opacity:1; 
stroke-linecap:round; stroke-linejoin:round;fill:none"
d="M 64.0000,21.3333
78.0000,21.3333
78.0000,35.3333
64.0000,35.3333
Z" /> 
<path style="fill:none; 
stroke:#000000; stroke-width:0.0500; stroke-opacity:1; 
stroke-linecap:round; stroke-linejoin:round;fill:none"
d="M 83.0500,21.3333
97.0500,21.3333
97.0500,35.3333
83.0500,35.3333
Z" /> 
<path style="fill:none; 
stroke:#000000; stroke-width:0.0500; stroke-opacity:1; 
stroke-linecap:round; stroke-linejoin:round;fill:none"
d="M 45.8699,84.0357
32.1271,86.7071
29.4557,72.9643
43.1985,70.2930
Z" /> 
<path style="fill:none; 
stroke:#000000; stroke-width:0.0500; stroke-opacity:1; 
stroke-linecap:round; stroke-linejoin:round;fill:none"
d="M 44.9500,42.5833
58.9500,42.5833
58.9500,56.5833
44.9500,56.5833
Z" /> 
<path d="M137.6750 16.3333
L137.6750 16.0833
" />
<path d="M137.6750 23.3333
L137.6750 23.5833
" />
<path d="M138.9250 17.3333
L138.6750 17.3333
" />
<path d="M138.9250 22.3333
L138.6750 22.3333
" />
<path d="M138.6750 22.3333 A1.0000 1.0000 0.0 0 0 137.6750 23.3333" />
<path d="M137.6750 16.3333 A1.0000 1.0000 0.0 0 0 138.6750 17.3333" />
<path style="fill:none; 
stroke:#000000; stroke-width:0.0500; stroke-opacity:1; 
stroke-linecap:round; stroke-linejoin:round;fill:none"
d="M 25.9000,17.0833
39.9000,17.0833
39.9000,31.0833
25.9000,31.0833
Z" /> 
<path style="fill:none; 
stroke:#000000; stroke-width:0.0500; stroke-opacity:1; 
stroke-linecap:round; stroke-linejoin:round;fill:none"
d="M 44.9500,25.5833
58.9500,25.5833
58.9500,39.5833
44.9500,39.5833
Z" /> 
<path style="fill:none; 
stroke:#000000; stroke-width:0.0500; stroke-opacity:1; 
stroke-linecap:round; stroke-linejoin:round;fill:none"
d="M 83.0500,38.3333
97.0500,38.3333
97.0500,52.3333
83.0500,52.3333
Z" /> 
</g>
<g style="fill:none; 
stroke:#000000; stroke-width:0.1000; stroke-opacity:1; 
stroke-linecap:round; stroke-linejoin:round;">
<path d="M174.0750 18.6805
L174.0750 20.0862
" />
<path d="M174.9805 20.8833
L176.5695 20.8833
" />
<path d="M176.5695 17.8833
L174.9805 17.8833
" />
<path d="M177.4750 20.0862
L177.4750 18.6805
" />
<path d="M174.0750 18.6805 A0.4994 0.4994 0.0 0 0 174.0255 18.4636" />
<path d="M174.7283 17.8150 A0.5000 0.5000 0.0 0 0 174.0255 18.4636" />
<path d="M174.0255 20.3031 A0.5000 0.5000 0.0 0 0 174.0750 20.0862" />
<path d="M174.0255 20.3031 A0.5000 0.5000 0.0 0 0 174.7283 20.9516" />
<path d="M174.9805 20.8833 A0.5000 0.5000 0.0 0 0 174.7283 20.9516" />
<path d="M174.7283 17.8150 A0.5000 0.5000 0.0 0 0 174.9805 17.8833" />
<path d="M176.8217 20.9516 A0.5000 0.5000 0.0 0 0 176.5695 20.8833" />
<path d="M176.5695 17.8833 A0.5000 0.5000 0.0 0 0 176.8217 17.8150" />
<path d="M177.5245 18.4636 A0.5000 0.5000 0.0 0 0 176.8217 17.8150" />
<path d="M177.5245 18.4636 A0.5000 0.5000 0.0 0 0 177.4750 18.6805" />
<path d="M176.8217 20.9516 A0.5000 0.5000 0.0 0 0 177.5245 20.3031" />
<path d="M177.4750 20.0862 A0.5000 0.5000 0.0 0 0 177.5245 20.3031" />
</g>
<g style="fill:none; 
stroke:#000000; stroke-width:0.0500; stroke-opacity:1; 
stroke-linecap:round; stroke-linejoin:round;">
<path d="M137.6750 41.5367
L137.6750 41.2867
" />
<path d="M137.6750 48.5367
L137.6750 48.7867
" />
<path d="M138.9250 42.5367
L138.6750 42.5367
" />
<path d="M138.9250 47.5367
L138.6750 47.5367
" />
<path d="M138.6750 47.5367 A1.0000 1.0000 0.0 0 0 137.6750 48.5367" />
<path d="M137.6750 41.5367 A1.0000 1.0000 0.0 0 0 138.6750 42.5367" />
<path style="fill:none; 
stroke:#000000; stroke-width:0.0500; stroke-opacity:1; 
stroke-linecap:round; stroke-linejoin:round;fill:none"
d="M 102.1000,25.5833
116.1000,25.5833
116.1000,39.5833
102.1000,39.5833
Z" /> 
<path style="fill:none; 
stroke:#000000; stroke-width:0.0500; stroke-opacity:1; 
stroke-linecap:round; stroke-linejoin:round;fill:none"
d="M 121.1500,17.0833
135.1500,17.0833
135.1500,31.0833
121.1500,31.0833
Z" /> 
<path style="fill:none; 
stroke:#000000; stroke-width:0.0500; stroke-opacity:1; 
stroke-linecap:round; stroke-linejoin:round;fill:none"
d="M 121.1500,34.0833
135.1500,34.0833
135.1500,48.0833
121.1500,48.0833
Z" /> 
<path style="fill:none; 
stroke:#000000; stroke-width:0.0500; stroke-opacity:1; 
stroke-linecap:round; stroke-linejoin:round;fill:none"
d="M 44.9500,8.5833
58.9500,8.5833
58.9500,22.5833
44.9500,22.5833
Z" /> 
<path style="fill:none; 
stroke:#000000; stroke-width:0.0500; stroke-opacity:1; 
stroke-linecap:round; stroke-linejoin:round;fill:none"
d="M 64.0000,4.3333
78.0000,4.3333
78.0000,18.3333
64.0000,18.3333
Z" /> 
<path style="fill:none; 
stroke:#000000; stroke-width:0.0500; stroke-opacity:1; 
stroke-linecap:round; stroke-linejoin:round;fill:none"
d="M 67.9565,79.7425
54.2137,82.4139
51.5424,68.6711
65.2851,65.9998
Z" /> 
<path style="fill:none; 
stroke:#000000; stroke-width:0.0500; stroke-opacity:1; 
stroke-linecap:round; stroke-linejoin:round;fill:none"
d="M 83.0500,4.3333
97.0500,4.3333
97.0500,18.3333
83.0500,18.3333
Z" /> 
</g> 
</svg>
