<?xml version="1.0" standalone="no"?>
 <!DOCTYPE svg PUBLIC "-//W3C//DTD SVG 1.1//EN" 
 "http://www.w3.org/Graphics/SVG/1.1/DTD/svg11.dtd"> 
<svg
  xmlns:svg="http://www.w3.org/2000/svg"
  xmlns="http://www.w3.org/2000/svg"
  xmlns:xlink="http://www.w3.org/1999/xlink"
  version="1.1"
  width="300.8122mm" height="121.8692mm" viewBox="0.0000 0.0000 300.8122 121.8692">
<title>SVG Image created as Alufo-User_2.svg date 2024/11/09 18:57:44 </title>
  <desc>Image generated by PCBNEW </desc>
<g style="fill:#000000; fill-opacity:1.0000;stroke:#000000; stroke-opacity:1.0000;
stroke-linecap:round; stroke-linejoin:round;"
 transform="translate(0 0) scale(1 1)">
<path style="fill:none; 
stroke:#000000; stroke-width:0.1000; stroke-opacity:1; 
stroke-linecap:round; stroke-linejoin:round;fill:none"
d="M 241.9950,22.4757
242.0933,22.4781
242.2860,22.5164
242.4675,22.5916
242.6309,22.7008
242.7699,22.8397
242.8791,23.0031
242.9543,23.1847
242.9926,23.3774
242.9950,23.4757
242.9950,31.0833
242.9927,31.1816
242.9544,31.3744
242.8792,31.5560
242.7700,31.7194
242.6310,31.8583
242.4676,31.9675
242.2860,32.0427
242.0933,32.0811
241.9950,32.0833
240.3450,32.0833
240.2467,32.0811
240.0540,32.0428
239.8724,31.9676
239.7090,31.8584
239.5700,31.7194
239.4608,31.5560
239.3856,31.3744
239.3472,31.1816
239.3450,31.0833
239.3450,23.4757
239.3474,23.3774
239.3857,23.1847
239.4609,23.0031
239.5701,22.8397
239.7091,22.7008
239.8725,22.5916
240.0540,22.5164
240.2467,22.4781
240.3450,22.4757
Z" /> 
<path style="fill:none; 
stroke:#000000; stroke-width:0.1000; stroke-opacity:1; 
stroke-linecap:round; stroke-linejoin:round;fill:none"
d="M 258.3950,19.3333
262.0450,19.3333
262.0450,36.3333
258.3950,36.3333
Z" /> 
<path style="fill:none; 
stroke:#000000; stroke-width:0.1000; stroke-opacity:1; 
stroke-linecap:round; stroke-linejoin:round;fill:none"
d="M 203.8950,19.3333
203.9933,19.3358
204.1860,19.3741
204.3675,19.4493
204.5309,19.5585
204.6699,19.6974
204.7790,19.8608
204.8542,20.0424
204.8926,20.2351
204.8950,20.3333
204.8950,28.3483
204.8927,28.4466
204.8544,28.6394
204.7792,28.8210
204.6700,28.9844
204.5310,29.1233
204.3676,29.2325
204.1860,29.3077
203.9933,29.3461
203.8950,29.3483
202.2450,29.3483
202.1467,29.3461
201.9540,29.3078
201.7724,29.2326
201.6090,29.1234
201.4700,28.9844
201.3608,28.8210
201.2856,28.6394
201.2472,28.4466
201.2450,28.3483
201.2450,20.3333
201.2474,20.2351
201.2857,20.0423
201.3609,19.8608
201.4701,19.6974
201.6091,19.5585
201.7725,19.4493
201.9540,19.3741
202.1467,19.3357
202.2450,19.3333
Z" /> 
<path style="fill:none; 
stroke:#000000; stroke-width:0.1000; stroke-opacity:1; 
stroke-linecap:round; stroke-linejoin:round;fill:none"
d="M 220.2950,19.9093
223.9450,19.9093
223.9450,32.0833
220.2950,32.0833
Z" /> 
<path style="fill:none; 
stroke:#000000; stroke-width:0.1000; stroke-opacity:1; 
stroke-linecap:round; stroke-linejoin:round;fill:none"
d="M 182.1950,27.8333
185.8450,27.8333
185.8450,44.8333
182.1950,44.8333
Z" /> 
</g> 
</svg>
