<?xml version="1.0" standalone="no"?>
 <!DOCTYPE svg PUBLIC "-//W3C//DTD SVG 1.1//EN" 
 "http://www.w3.org/Graphics/SVG/1.1/DTD/svg11.dtd"> 
<svg
  xmlns:svg="http://www.w3.org/2000/svg"
  xmlns="http://www.w3.org/2000/svg"
  xmlns:xlink="http://www.w3.org/1999/xlink"
  version="1.1"
  width="301.6250mm" height="99.1616mm" viewBox="0.0000 0.0000 301.6250 99.1616">
<title>SVG Image created as Alufo-Edge_Cuts.svg date 2024/11/09 20:54:08 </title>
  <desc>Image generated by PCBNEW </desc>
<g style="fill:#000000; fill-opacity:1.0000;stroke:#000000; stroke-opacity:1.0000;
stroke-linecap:round; stroke-linejoin:round;"
 transform="translate(0 0) scale(1 1)">
</g>
<g style="fill:none; 
stroke:#000000; stroke-width:0.0500; stroke-opacity:1; 
stroke-linecap:round; stroke-linejoin:round;">
<path d="M254.4710 62.1010
L255.2445 65.7401
" />
<path d="M149.3225 49.8767
L149.3225 48.7867
" />
<path d="M238.9642 54.7247 A13.0114 13.0114 0.0 0 0 245.3909 61.3635" />
<path d="M9.6225 15.2900
L9.6225 49.8767
" />
<path d="M222.3426 0.6813 A119.7354 119.7354 0.0 0 0 165.1926 15.2005" />
<path d="M165.1926 15.2005
L165.1926 16.0833
" />
<path d="M97.1322 56.6667 A13.0123 13.0123 0.0 0 0 102.5211 61.3637" />
<path d="M278.2226 50.4067 A1.2700 1.2700 0.0 0 0 279.4926 49.1367" />
<path d="M131.8600 12.7500
L146.7825 12.7500
" />
<path d="M153.7626 39.6667
L163.9226 39.6667
" />
<path d="M279.4926 40.9367
L279.4926 49.1367
" />
<path d="M150.5725 17.3333
L163.9426 17.3333
" />
<path d="M165.1926 40.9367
L165.1926 41.2867
" />
<path d="M279.4926 15.2005
L279.4926 24.2300
" />
<path d="M9.6225 49.8767 A2.5400 2.5400 0.0 0 0 12.1625 52.4167" />
<path d="M292.1926 26.7700 A1.2700 1.2700 0.0 0 0 290.9226 25.5000" />
<path d="M89.3864 82.9193
L133.5596 91.5057
" />
<path d="M61.8128 56.6667
L97.1322 56.6667
" />
<path d="M152.4926 38.3967 A1.2700 1.2700 0.0 0 0 153.7626 39.6667" />
<path d="M163.9226 25.5000 A1.2700 1.2700 0.0 0 0 165.1926 24.2300" />
<path d="M276.4294 91.5057 A2.1250 2.1250 0.0 0 0 278.9209 89.8252" />
<path d="M245.3909 61.3635
L244.2049 63.5942
" />
<path d="M153.7626 25.5000
L163.9226 25.5000
" />
<path d="M230.5757 80.4279 A2.1250 2.1250 0.0 0 0 232.2562 82.9193" />
<path d="M163.9426 47.5367
L150.5725 47.5367
" />
<path d="M102.5211 61.3637
L101.3352 63.5942
" />
<path d="M236.3109 62.0597
L244.2049 63.5942
" />
<path d="M278.2226 50.4067
L263.9037 50.4067
" />
<path d="M230.5757 80.4279
L233.8195 63.7402
" />
<path d="M111.6011 62.1009
L112.3747 65.7400
" />
<path d="M146.7825 52.4167
L120.7475 52.4167
" />
<path d="M139.2948 73.1375
L136.0511 89.8252
" />
<path d="M150.5725 42.5367
L163.9426 42.5367
" />
<path d="M149.3225 41.2867
L149.3225 23.5833
" />
<path d="M238.9642 54.7247
L205.7210 54.7247
" />
<path d="M153.7626 25.5001 A1.2700 1.2700 0.0 0 0 152.4926 26.7700" />
<path d="M280.4841 70.6461
L255.2445 65.7401
" />
<path d="M87.7060 80.4279 A2.1251 2.1251 0.0 0 0 89.3864 82.9193" />
<path d="M280.7626 39.6667
L290.9226 39.6667
" />
<path d="M165.1926 49.1367 A1.2700 1.2700 0.0 0 0 166.4626 50.4067" />
<path d="M280.7626 39.6667 A1.2700 1.2700 0.0 0 0 279.4926 40.9367" />
<path d="M152.4926 26.7700
L152.4926 38.3967
" />
<path d="M111.6011 62.1009 A13.0122 13.0122 0.0 0 0 120.7475 52.4167" />
<path d="M149.3225 15.2900 A2.5400 2.5400 0.0 0 0 146.7825 12.7500" />
<path d="M165.1926 40.9367 A1.2700 1.2700 0.0 0 0 163.9226 39.6667" />
<path d="M93.4411 62.0597 A2.1250 2.1250 0.0 0 0 90.9496 63.7402" />
<path d="M165.1926 48.7867
L165.1926 49.1367
" />
<path d="M292.1926 26.7700
L292.1926 38.3967
" />
<path d="M12.1625 12.7500 A2.5400 2.5400 0.0 0 0 9.6225 15.2900" />
<path d="M282.1646 73.1376 A2.1249 2.1249 0.0 0 0 280.4841 70.6461" />
<path d="M254.4710 62.1010 A13.0122 13.0122 0.0 0 0 263.9037 50.4067" />
<path d="M133.5596 91.5057 A2.1250 2.1250 0.0 0 0 136.0511 89.8252" />
<path d="M279.4926 15.2005 A119.7354 119.7354 0.0 0 0 222.3426 0.6813" />
<path d="M12.1625 52.4167
L38.1975 52.4167
" />
<path d="M137.6143 70.6461
L112.3747 65.7400
" />
<path d="M236.3109 62.0597 A2.1250 2.1250 0.0 0 0 233.8195 63.7402" />
<path d="M180.7815 50.4067
L166.4626 50.4067
" />
<path d="M282.1646 73.1376
L278.9208 89.8252
" />
<path d="M12.1625 12.7500
L27.0850 12.7500
" />
<path d="M290.9226 39.6667 A1.2700 1.2700 0.0 0 0 292.1926 38.3967" />
<path d="M146.7825 52.4167 A2.5399 2.5399 0.0 0 0 149.3225 49.8767" />
<path d="M149.3225 15.2900
L149.3225 16.0833
" />
<path d="M90.9496 63.7402
L87.7059 80.4279
" />
<path d="M131.8600 12.7500 A119.7354 119.7354 0.0 0 0 27.0850 12.7500" />
<path d="M290.9226 25.5000
L280.7626 25.5000
" />
<path d="M150.5725 22.3333
L163.9426 22.3333
" />
<path d="M38.1975 52.4167 A13.0122 13.0122 0.0 0 0 61.8128 56.6667" />
<path d="M279.4926 24.2300 A1.2699 1.2699 0.0 0 0 280.7626 25.5000" />
<path d="M139.2948 73.1375 A2.1249 2.1249 0.0 0 0 137.6143 70.6461" />
<path d="M165.1926 23.5833
L165.1926 24.2300
" />
<path d="M276.4294 91.5057
L232.2562 82.9193
" />
<path d="M180.7815 50.4067 A13.0122 13.0122 0.0 0 0 205.7210 54.7247" />
<path d="M93.4411 62.0597
L101.3352 63.5942
" />
<path style="fill:none; 
stroke:#000000; stroke-width:0.0500; stroke-opacity:1; 
stroke-linecap:round; stroke-linejoin:round;fill:none"
d="M 167.7176,17.0833
181.7176,17.0833
181.7176,31.0833
167.7176,31.0833
Z" /> 
<path style="fill:none; 
stroke:#000000; stroke-width:0.0500; stroke-opacity:1; 
stroke-linecap:round; stroke-linejoin:round;fill:none"
d="M 243.9176,25.5833
257.9176,25.5833
257.9176,39.5833
243.9176,39.5833
Z" /> 
<path d="M149.3225 16.3333
L149.3225 16.0833
" />
<path d="M149.3225 23.3333
L149.3225 23.5833
" />
<path d="M150.5725 17.3333
L150.3225 17.3333
" />
<path d="M150.5725 22.3333
L150.3225 22.3333
" />
<path d="M150.3225 22.3333 A1.0000 1.0000 0.0 0 0 149.3225 23.3333" />
<path d="M149.3225 16.3333 A1.0000 1.0000 0.0 0 0 150.3225 17.3333" />
<path style="fill:none; 
stroke:#000000; stroke-width:0.0500; stroke-opacity:1; 
stroke-linecap:round; stroke-linejoin:round;fill:none"
d="M 224.8676,21.3333
238.8676,21.3333
238.8676,35.3333
224.8676,35.3333
Z" /> 
<path style="fill:none; 
stroke:#000000; stroke-width:0.0500; stroke-opacity:1; 
stroke-linecap:round; stroke-linejoin:round;fill:none"
d="M 224.8676,38.3333
238.8676,38.3333
238.8676,52.3333
224.8676,52.3333
Z" /> 
<path d="M163.9426 17.3333
L164.1926 17.3333
" />
<path d="M163.9426 22.3333
L164.1926 22.3333
" />
<path d="M165.1926 16.3333
L165.1926 16.0833
" />
<path d="M165.1926 23.3333
L165.1926 23.5833
" />
<path d="M165.1926 23.3333 A1.0000 1.0000 0.0 0 0 164.1926 22.3333" />
<path d="M164.1926 17.3333 A1.0000 1.0000 0.0 0 0 165.1926 16.3333" />
<path style="fill:none; 
stroke:#000000; stroke-width:0.0500; stroke-opacity:1; 
stroke-linecap:round; stroke-linejoin:round;fill:none"
d="M 205.8176,21.3333
219.8176,21.3333
219.8176,35.3333
205.8176,35.3333
Z" /> 
<path style="fill:none; 
stroke:#000000; stroke-width:0.0500; stroke-opacity:1; 
stroke-linecap:round; stroke-linejoin:round;fill:none"
d="M 251.3255,68.6711
248.6542,82.4139
234.9114,79.7425
237.5828,65.9998
Z" /> 
<path style="fill:none; 
stroke:#000000; stroke-width:0.0500; stroke-opacity:1; 
stroke-linecap:round; stroke-linejoin:round;fill:none"
d="M 262.9676,17.0833
276.9676,17.0833
276.9676,31.0833
262.9676,31.0833
Z" /> 
<path style="fill:none; 
stroke:#000000; stroke-width:0.0500; stroke-opacity:1; 
stroke-linecap:round; stroke-linejoin:round;fill:none"
d="M 167.7176,34.0833
181.7176,34.0833
181.7176,48.0833
167.7176,48.0833
Z" /> 
<path style="fill:none; 
stroke:#000000; stroke-width:0.0500; stroke-opacity:1; 
stroke-linecap:round; stroke-linejoin:round;fill:none"
d="M 186.7676,25.5833
200.7676,25.5833
200.7676,39.5833
186.7676,39.5833
Z" /> 
<path style="fill:none; 
stroke:#000000; stroke-width:0.0500; stroke-opacity:1; 
stroke-linecap:round; stroke-linejoin:round;fill:none"
d="M 186.7676,42.5833
200.7676,42.5833
200.7676,56.5833
186.7676,56.5833
Z" /> 
<path style="fill:none; 
stroke:#000000; stroke-width:0.0500; stroke-opacity:1; 
stroke-linecap:round; stroke-linejoin:round;fill:none"
d="M 243.9176,8.5833
257.9176,8.5833
257.9176,22.5833
243.9176,22.5833
Z" /> 
<path style="fill:none; 
stroke:#000000; stroke-width:0.0500; stroke-opacity:1; 
stroke-linecap:round; stroke-linejoin:round;fill:none"
d="M 186.7676,8.5833
200.7676,8.5833
200.7676,22.5833
186.7676,22.5833
Z" /> 
<path d="M163.9426 42.5367
L164.1926 42.5367
" />
<path d="M163.9426 47.5367
L164.1926 47.5367
" />
<path d="M165.1926 41.5367
L165.1926 41.2867
" />
<path d="M165.1926 48.5367
L165.1926 48.7867
" />
<path d="M165.1926 48.5367 A1.0000 1.0000 0.0 0 0 164.1926 47.5367" />
<path d="M164.1926 42.5367 A1.0000 1.0000 0.0 0 0 165.1926 41.5367" />
<path style="fill:none; 
stroke:#000000; stroke-width:0.0500; stroke-opacity:1; 
stroke-linecap:round; stroke-linejoin:round;fill:none"
d="M 205.8176,38.3333
219.8176,38.3333
219.8176,52.3333
205.8176,52.3333
Z" /> 
<path style="fill:none; 
stroke:#000000; stroke-width:0.0500; stroke-opacity:1; 
stroke-linecap:round; stroke-linejoin:round;fill:none"
d="M 205.8176,4.3333
219.8176,4.3333
219.8176,18.3333
205.8176,18.3333
Z" /> 
<path style="fill:none; 
stroke:#000000; stroke-width:0.0500; stroke-opacity:1; 
stroke-linecap:round; stroke-linejoin:round;fill:none"
d="M 243.9176,42.5833
257.9176,42.5833
257.9176,56.5833
243.9176,56.5833
Z" /> 
<path style="fill:none; 
stroke:#000000; stroke-width:0.0500; stroke-opacity:1; 
stroke-linecap:round; stroke-linejoin:round;fill:none"
d="M 262.9676,34.0833
276.9676,34.0833
276.9676,48.0833
262.9676,48.0833
Z" /> 
<path style="fill:none; 
stroke:#000000; stroke-width:0.0500; stroke-opacity:1; 
stroke-linecap:round; stroke-linejoin:round;fill:none"
d="M 224.8676,4.3333
238.8676,4.3333
238.8676,18.3333
224.8676,18.3333
Z" /> 
<path style="fill:none; 
stroke:#000000; stroke-width:0.0500; stroke-opacity:1; 
stroke-linecap:round; stroke-linejoin:round;fill:none"
d="M 273.4122,72.9643
270.7408,86.7071
256.9980,84.0357
259.6694,70.2930
Z" /> 
<path d="M149.3225 41.5367
L149.3225 41.2867
" />
<path d="M149.3225 48.5367
L149.3225 48.7867
" />
<path d="M150.5725 42.5367
L150.3225 42.5367
" />
<path d="M150.5725 47.5367
L150.3225 47.5367
" />
<path d="M150.3225 47.5367 A1.0000 1.0000 0.0 0 0 149.3225 48.5367" />
<path d="M149.3225 41.5367 A1.0000 1.0000 0.0 0 0 150.3225 42.5367" />
</g> 
</svg>
