<?xml version="1.0" standalone="no"?>
 <!DOCTYPE svg PUBLIC "-//W3C//DTD SVG 1.1//EN" 
 "http://www.w3.org/Graphics/SVG/1.1/DTD/svg11.dtd"> 
<svg
  xmlns:svg="http://www.w3.org/2000/svg"
  xmlns="http://www.w3.org/2000/svg"
  xmlns:xlink="http://www.w3.org/1999/xlink"
  version="1.1"
  width="301.6250mm" height="99.1616mm" viewBox="0.0000 0.0000 301.6250 99.1616">
<title>SVG Image created as Alufo-User_4.svg date 2024/11/09 20:54:08 </title>
  <desc>Image generated by PCBNEW </desc>
<g style="fill:#000000; fill-opacity:1.0000;stroke:#000000; stroke-opacity:1.0000;
stroke-linecap:round; stroke-linejoin:round;"
 transform="translate(0 0) scale(1 1)">
<path style="fill:none; 
stroke:#000000; stroke-width:0.1000; stroke-opacity:1; 
stroke-linecap:round; stroke-linejoin:round;fill:none"
d="M 141.5225,44.2747
138.8395,44.2747
138.7412,44.2723
138.5485,44.2339
138.3670,44.1587
138.2036,44.0495
138.0646,43.9106
137.9554,43.7472
137.8802,43.5656
137.8419,43.3729
137.8395,43.2747
137.8395,41.9727
137.8419,41.8744
137.8802,41.6817
137.9554,41.5001
138.0646,41.3367
138.2036,41.1978
138.3670,41.0886
138.5485,41.0134
138.7412,40.9751
138.8395,40.9727
141.5225,40.9727
Z" /> 
<path style="fill:none; 
stroke:#000000; stroke-width:0.1000; stroke-opacity:1; 
stroke-linecap:round; stroke-linejoin:round;fill:none"
d="M 80.3070,4.1403
80.4053,4.1428
80.5980,4.1811
80.7795,4.2563
80.9429,4.3655
81.0819,4.5044
81.1910,4.6678
81.2662,4.8494
81.3046,5.0421
81.3070,5.1403
81.3070,5.4263
81.3047,5.5246
81.2664,5.7174
81.1912,5.8989
81.0820,6.0624
80.9430,6.2013
80.7796,6.3105
80.5980,6.3857
80.4053,6.4241
80.3070,6.4263
75.4490,6.4263
75.3507,6.4241
75.1580,6.3858
74.9764,6.3106
74.8130,6.2014
74.6740,6.0624
74.5648,5.8990
74.4896,5.7174
74.4512,5.5246
74.4490,5.4263
74.4490,5.1403
74.4514,5.0421
74.4897,4.8493
74.5649,4.6678
74.6741,4.5044
74.8131,4.3655
74.9765,4.2563
75.1580,4.1811
75.3507,4.1427
75.4490,4.1403
Z" /> 
<path style="fill:none; 
stroke:#000000; stroke-width:0.1000; stroke-opacity:1; 
stroke-linecap:round; stroke-linejoin:round;fill:none"
d="M 146.4904,18.0992
146.6831,18.1376
146.8647,18.2128
147.0281,18.3220
147.1671,18.4609
147.2763,18.6244
147.3515,18.8059
147.3899,18.9987
147.3921,19.0970
147.3921,36.9607
147.3897,37.0589
147.3514,37.2516
147.2762,37.4332
147.1670,37.5966
147.0280,37.7355
146.8646,37.8447
146.6831,37.9199
146.4904,37.9583
146.3921,37.9607
133.8125,37.9607
133.7142,37.9583
133.5215,37.9199
133.3400,37.8447
133.1766,37.7355
133.0376,37.5966
132.9284,37.4332
132.8532,37.2516
132.8149,37.0589
132.8125,36.9607
132.8125,19.0970
132.8148,18.9987
132.8531,18.8060
132.9283,18.6244
133.0375,18.4610
133.1765,18.3220
133.3399,18.2128
133.5215,18.1376
133.7142,18.0992
133.8125,18.0970
146.3921,18.0970
Z" /> 
<path style="fill:none; 
stroke:#000000; stroke-width:0.1000; stroke-opacity:1; 
stroke-linecap:round; stroke-linejoin:round;fill:none"
d="M 36.2945,41.7481
36.4671,41.6842
36.8233,41.5919
37.1877,41.5410
37.5555,41.5323
37.9219,41.5658
38.2821,41.6411
38.6312,41.7572
38.9647,41.9126
39.2782,42.1053
39.5676,42.3326
39.8289,42.5916
40.0589,42.8788
40.1588,43.0333
40.5925,43.0333
40.7272,43.0359
40.9936,43.0760
41.2510,43.1554
41.4938,43.2723
41.7164,43.4241
41.9138,43.6073
42.0818,43.8179
42.2165,44.0513
42.3149,44.3020
42.3749,44.5647
42.3950,44.8333
42.3749,45.1020
42.3149,45.3646
42.2165,45.6154
42.0818,45.8487
41.9138,46.0594
41.7164,46.2426
41.4938,46.3944
41.2510,46.5113
40.9936,46.5907
40.7272,46.6308
40.5925,46.6333
40.0227,46.6333
39.9177,46.7719
39.6821,47.0277
39.4202,47.2564
39.1351,47.4554
38.8300,47.6223
38.6702,47.6908
33.1712,49.8903
33.0067,49.9558
32.6665,50.0543
32.3176,50.1146
31.9641,50.1360
31.6104,50.1182
31.2609,50.0616
30.9197,49.9666
30.5911,49.8346
30.2791,49.6671
29.9875,49.4663
29.7199,49.2344
29.4795,48.9744
29.3724,48.8333
28.1025,48.8333
27.9678,48.8308
27.7014,48.7907
27.4440,48.7113
27.2012,48.5944
26.9786,48.4426
26.7812,48.2594
26.6132,48.0487
26.4785,47.8154
26.3801,47.5646
26.3201,47.3020
26.3000,47.0333
26.3201,46.7647
26.3801,46.5020
26.4785,46.2513
26.6132,46.0179
26.7812,45.8073
26.9786,45.6241
27.2012,45.4723
27.4440,45.3554
27.7014,45.2760
27.9678,45.2359
28.1025,45.2333
29.2361,45.2333
29.3290,45.0894
29.5409,44.8202
29.7805,44.5752
30.0448,44.3572
30.3309,44.1686
30.6355,44.0117
30.7946,43.9479
Z" /> 
<path style="fill:none; 
stroke:#000000; stroke-width:0.1000; stroke-opacity:1; 
stroke-linecap:round; stroke-linejoin:round;fill:none"
d="M 55.3445,50.2481
55.5171,50.1842
55.8733,50.0919
56.2377,50.0410
56.6055,50.0323
56.9719,50.0658
57.3321,50.1411
57.6812,50.2572
58.0147,50.4127
58.3282,50.6053
58.6176,50.8326
58.8789,51.0916
59.1089,51.3788
59.2088,51.5333
59.6425,51.5333
59.7772,51.5359
60.0436,51.5760
60.3010,51.6554
60.5438,51.7723
60.7664,51.9241
60.9638,52.1073
61.1318,52.3179
61.2665,52.5513
61.3649,52.8020
61.4249,53.0647
61.4450,53.3333
61.4249,53.6020
61.3649,53.8646
61.2665,54.1154
61.1318,54.3487
60.9638,54.5594
60.7664,54.7426
60.5438,54.8944
60.3010,55.0113
60.0436,55.0907
59.7772,55.1308
59.6425,55.1333
59.0727,55.1333
58.9677,55.2719
58.7321,55.5277
58.4702,55.7564
58.1851,55.9554
57.8800,56.1223
57.7202,56.1908
52.2212,58.3903
52.0567,58.4558
51.7165,58.5543
51.3676,58.6146
51.0141,58.6360
50.6604,58.6182
50.3109,58.5616
49.9697,58.4666
49.6411,58.3346
49.3291,58.1672
49.0375,57.9663
48.7699,57.7344
48.5295,57.4744
48.4224,57.3333
47.1525,57.3333
47.0178,57.3308
46.7514,57.2907
46.4940,57.2113
46.2512,57.0944
46.0286,56.9426
45.8312,56.7594
45.6632,56.5487
45.5285,56.3154
45.4301,56.0646
45.3701,55.8020
45.3500,55.5333
45.3701,55.2647
45.4301,55.0020
45.5285,54.7513
45.6632,54.5179
45.8312,54.3073
46.0286,54.1241
46.2512,53.9723
46.4940,53.8554
46.7514,53.7760
47.0178,53.7359
47.1525,53.7333
48.2861,53.7333
48.3790,53.5894
48.5909,53.3202
48.8305,53.0752
49.0948,52.8572
49.3809,52.6686
49.6855,52.5117
49.8446,52.4479
Z" /> 
<path style="fill:none; 
stroke:#000000; stroke-width:0.1000; stroke-opacity:1; 
stroke-linecap:round; stroke-linejoin:round;fill:none"
d="M 112.4945,16.2481
112.6671,16.1842
113.0233,16.0919
113.3877,16.0410
113.7555,16.0323
114.1219,16.0658
114.4821,16.1411
114.8312,16.2572
115.1647,16.4126
115.4782,16.6053
115.7676,16.8326
116.0289,17.0916
116.2589,17.3788
116.3588,17.5333
116.7925,17.5333
116.9272,17.5359
117.1936,17.5760
117.4510,17.6554
117.6938,17.7723
117.9164,17.9241
118.1138,18.1073
118.2818,18.3179
118.4165,18.5513
118.5149,18.8020
118.5749,19.0647
118.5950,19.3333
118.5749,19.6020
118.5149,19.8646
118.4165,20.1154
118.2818,20.3487
118.1138,20.5594
117.9164,20.7426
117.6938,20.8944
117.4510,21.0113
117.1936,21.0907
116.9272,21.1308
116.7925,21.1333
116.2227,21.1333
116.1177,21.2719
115.8821,21.5277
115.6202,21.7564
115.3351,21.9554
115.0300,22.1223
114.8702,22.1908
109.3712,24.3903
109.2067,24.4558
108.8665,24.5543
108.5176,24.6146
108.1641,24.6360
107.8104,24.6182
107.4609,24.5615
107.1197,24.4666
106.7911,24.3346
106.4791,24.1671
106.1875,23.9662
105.9199,23.7344
105.6795,23.4744
105.5724,23.3333
104.3025,23.3333
104.1678,23.3308
103.9014,23.2907
103.6440,23.2113
103.4012,23.0944
103.1786,22.9426
102.9812,22.7594
102.8132,22.5487
102.6785,22.3154
102.5801,22.0646
102.5201,21.8020
102.5000,21.5333
102.5201,21.2647
102.5801,21.0020
102.6785,20.7513
102.8132,20.5179
102.9812,20.3073
103.1786,20.1241
103.4012,19.9723
103.6440,19.8554
103.9014,19.7760
104.1678,19.7359
104.3025,19.7333
105.4361,19.7333
105.5290,19.5894
105.7409,19.3202
105.9805,19.0752
106.2448,18.8571
106.5309,18.6686
106.8355,18.5117
106.9946,18.4479
Z" /> 
<path style="fill:none; 
stroke:#000000; stroke-width:0.1000; stroke-opacity:1; 
stroke-linecap:round; stroke-linejoin:round;fill:none"
d="M 126.5735,80.0011
126.7551,79.9713
127.1223,79.9486
127.4897,79.9683
127.8525,80.0299
128.2058,80.1327
128.5449,80.2753
128.8655,80.4559
129.1632,80.6721
129.4342,80.9210
129.6749,81.1994
129.8820,81.5035
130.0529,81.8293
130.1215,82.0001
130.5473,82.0828
130.6790,82.1110
130.9328,82.2012
131.1704,82.3283
131.3864,82.4894
131.5759,82.6808
131.7348,82.8984
131.8595,83.1372
131.9472,83.3919
131.9960,83.6569
132.0047,83.9261
131.9732,84.1937
131.9022,84.4536
131.7932,84.6999
131.6487,84.9273
131.4720,85.1307
131.2669,85.3054
131.0381,85.4476
130.7906,85.5541
130.5301,85.6225
130.2622,85.6513
129.9930,85.6399
129.8603,85.6167
129.3011,85.5080
129.1715,85.6239
128.8915,85.8300
128.5907,86.0046
128.2728,86.1455
127.9416,86.2512
127.7716,86.2879
121.9539,87.3977
121.7799,87.4307
121.4272,87.4624
121.0732,87.4550
120.7221,87.4086
120.3783,87.3237
120.0460,87.2013
119.7293,87.0431
119.4319,86.8508
119.1576,86.6269
118.9097,86.3740
118.6912,86.0953
118.5048,85.7943
118.4266,85.6354
117.1800,85.3930
117.0483,85.3649
116.7944,85.2746
116.5569,85.1476
116.3409,84.9865
116.1514,84.7951
115.9925,84.5775
115.8678,84.3387
115.7801,84.0840
115.7313,83.8190
115.7226,83.5497
115.7541,83.2822
115.8251,83.0223
115.9341,82.7759
116.0785,82.5485
116.2553,82.3452
116.4604,82.1705
116.6892,82.0283
116.9366,81.9218
117.1972,81.8534
117.4651,81.8245
117.7342,81.8360
117.8669,81.8592
118.9797,82.0755
119.0983,81.9519
119.3578,81.7281
119.6397,81.5333
119.9408,81.3697
120.2576,81.2392
120.5866,81.1434
120.7548,81.1111
Z" /> 
<path style="fill:none; 
stroke:#000000; stroke-width:0.1000; stroke-opacity:1; 
stroke-linecap:round; stroke-linejoin:round;fill:none"
d="M 74.3945,28.9981
74.5671,28.9342
74.9233,28.8419
75.2877,28.7910
75.6555,28.7823
76.0219,28.8158
76.3821,28.8911
76.7312,29.0072
77.0647,29.1626
77.3782,29.3553
77.6676,29.5826
77.9289,29.8416
78.1589,30.1288
78.2588,30.2833
78.6925,30.2833
78.8272,30.2859
79.0936,30.3260
79.3510,30.4054
79.5938,30.5223
79.8164,30.6741
80.0138,30.8573
80.1818,31.0679
80.3165,31.3013
80.4149,31.5520
80.4749,31.8147
80.4950,32.0833
80.4749,32.3520
80.4149,32.6146
80.3165,32.8654
80.1818,33.0987
80.0138,33.3094
79.8164,33.4926
79.5938,33.6444
79.3510,33.7613
79.0936,33.8407
78.8272,33.8808
78.6925,33.8833
78.1227,33.8833
78.0177,34.0219
77.7821,34.2777
77.5202,34.5064
77.2351,34.7054
76.9300,34.8723
76.7702,34.9408
71.2712,37.1403
71.1067,37.2058
70.7665,37.3043
70.4176,37.3646
70.0641,37.3860
69.7104,37.3682
69.3609,37.3115
69.0197,37.2166
68.6911,37.0846
68.3791,36.9171
68.0875,36.7163
67.8199,36.4844
67.5795,36.2244
67.4724,36.0833
66.2025,36.0833
66.0678,36.0808
65.8014,36.0407
65.5440,35.9613
65.3012,35.8444
65.0786,35.6926
64.8812,35.5094
64.7132,35.2987
64.5785,35.0654
64.4801,34.8146
64.4201,34.5520
64.4000,34.2833
64.4201,34.0147
64.4801,33.7520
64.5785,33.5013
64.7132,33.2679
64.8812,33.0573
65.0786,32.8741
65.3012,32.7223
65.5440,32.6054
65.8014,32.5260
66.0678,32.4859
66.2025,32.4833
67.3361,32.4833
67.4290,32.3394
67.6409,32.0702
67.8805,31.8252
68.1448,31.6071
68.4309,31.4186
68.7355,31.2617
68.8946,31.1979
Z" /> 
<path style="fill:none; 
stroke:#000000; stroke-width:0.1000; stroke-opacity:1; 
stroke-linecap:round; stroke-linejoin:round;fill:none"
d="M 146.0805,20.6207
146.0783,20.7189
146.0399,20.9117
145.9647,21.0933
145.8555,21.2567
145.7165,21.3957
145.5531,21.5049
145.3715,21.5801
145.1788,21.6184
145.0805,21.6207
139.0805,21.6207
138.9822,21.6183
138.7895,21.5799
138.6080,21.5047
138.4446,21.3955
138.3056,21.2566
138.1964,21.0932
138.1212,20.9116
138.0829,20.7189
138.0805,20.6207
138.0805,19.3707
146.0805,19.3707
Z" /> 
<path style="fill:none; 
stroke:#000000; stroke-width:0.1000; stroke-opacity:1; 
stroke-linecap:round; stroke-linejoin:round;fill:none"
d="M 55.3445,33.2481
55.5171,33.1842
55.8733,33.0919
56.2377,33.0410
56.6055,33.0323
56.9719,33.0658
57.3321,33.1411
57.6812,33.2572
58.0147,33.4126
58.3282,33.6053
58.6176,33.8326
58.8789,34.0916
59.1089,34.3788
59.2088,34.5333
59.6425,34.5333
59.7772,34.5359
60.0436,34.5760
60.3010,34.6554
60.5438,34.7723
60.7664,34.9241
60.9638,35.1073
61.1318,35.3179
61.2665,35.5513
61.3649,35.8020
61.4249,36.0647
61.4450,36.3333
61.4249,36.6020
61.3649,36.8646
61.2665,37.1154
61.1318,37.3487
60.9638,37.5594
60.7664,37.7426
60.5438,37.8944
60.3010,38.0113
60.0436,38.0907
59.7772,38.1308
59.6425,38.1333
59.0727,38.1333
58.9677,38.2719
58.7321,38.5277
58.4702,38.7564
58.1851,38.9554
57.8800,39.1223
57.7202,39.1908
52.2212,41.3903
52.0567,41.4558
51.7165,41.5543
51.3676,41.6146
51.0141,41.6360
50.6604,41.6182
50.3109,41.5615
49.9697,41.4666
49.6411,41.3346
49.3291,41.1671
49.0375,40.9663
48.7699,40.7344
48.5295,40.4744
48.4224,40.3333
47.1525,40.3333
47.0178,40.3308
46.7514,40.2907
46.4940,40.2113
46.2512,40.0944
46.0286,39.9426
45.8312,39.7594
45.6632,39.5487
45.5285,39.3154
45.4301,39.0646
45.3701,38.8020
45.3500,38.5333
45.3701,38.2647
45.4301,38.0020
45.5285,37.7513
45.6632,37.5179
45.8312,37.3073
46.0286,37.1241
46.2512,36.9723
46.4940,36.8554
46.7514,36.7760
47.0178,36.7359
47.1525,36.7333
48.2861,36.7333
48.3790,36.5894
48.5909,36.3202
48.8305,36.0752
49.0948,35.8571
49.3809,35.6686
49.6855,35.5117
49.8446,35.4479
Z" /> 
<path style="fill:none; 
stroke:#000000; stroke-width:0.1000; stroke-opacity:1; 
stroke-linecap:round; stroke-linejoin:round;fill:none"
d="M 131.5445,41.7481
131.7171,41.6842
132.0733,41.5919
132.4377,41.5410
132.8055,41.5323
133.1719,41.5658
133.5321,41.6411
133.8812,41.7572
134.2147,41.9126
134.5282,42.1053
134.8176,42.3326
135.0789,42.5916
135.3089,42.8788
135.4088,43.0333
135.8425,43.0333
135.9772,43.0359
136.2436,43.0760
136.5010,43.1554
136.7438,43.2723
136.9664,43.4241
137.1638,43.6073
137.3318,43.8179
137.4665,44.0513
137.5649,44.3020
137.6249,44.5647
137.6450,44.8333
137.6249,45.1020
137.5649,45.3646
137.4665,45.6154
137.3318,45.8487
137.1638,46.0594
136.9664,46.2426
136.7438,46.3944
136.5010,46.5113
136.2436,46.5907
135.9772,46.6308
135.8425,46.6333
135.2727,46.6333
135.1677,46.7719
134.9321,47.0277
134.6702,47.2564
134.3851,47.4554
134.0800,47.6223
133.9202,47.6908
128.4212,49.8903
128.2567,49.9558
127.9165,50.0543
127.5676,50.1146
127.2141,50.1360
126.8604,50.1182
126.5109,50.0616
126.1697,49.9666
125.8411,49.8346
125.5291,49.6671
125.2375,49.4663
124.9699,49.2344
124.7295,48.9744
124.6224,48.8333
123.3525,48.8333
123.2178,48.8308
122.9514,48.7907
122.6940,48.7113
122.4512,48.5944
122.2286,48.4426
122.0312,48.2594
121.8632,48.0487
121.7285,47.8154
121.6301,47.5646
121.5701,47.3020
121.5500,47.0333
121.5701,46.7647
121.6301,46.5020
121.7285,46.2513
121.8632,46.0179
122.0312,45.8073
122.2286,45.6241
122.4512,45.4723
122.6940,45.3554
122.9514,45.2760
123.2178,45.2359
123.3525,45.2333
124.4861,45.2333
124.5790,45.0894
124.7909,44.8202
125.0305,44.5752
125.2948,44.3572
125.5809,44.1686
125.8855,44.0117
126.0446,43.9479
Z" /> 
<path style="fill:none; 
stroke:#000000; stroke-width:0.1000; stroke-opacity:1; 
stroke-linecap:round; stroke-linejoin:round;fill:none"
d="M 36.2945,24.7481
36.4671,24.6842
36.8233,24.5919
37.1877,24.5410
37.5555,24.5323
37.9219,24.5658
38.2821,24.6411
38.6312,24.7572
38.9647,24.9126
39.2782,25.1053
39.5676,25.3326
39.8289,25.5916
40.0589,25.8788
40.1588,26.0333
40.5925,26.0333
40.7272,26.0359
40.9936,26.0760
41.2510,26.1554
41.4938,26.2723
41.7164,26.4241
41.9138,26.6073
42.0818,26.8179
42.2165,27.0513
42.3149,27.3020
42.3749,27.5647
42.3950,27.8333
42.3749,28.1020
42.3149,28.3646
42.2165,28.6154
42.0818,28.8487
41.9138,29.0594
41.7164,29.2426
41.4938,29.3944
41.2510,29.5113
40.9936,29.5907
40.7272,29.6308
40.5925,29.6333
40.0227,29.6333
39.9177,29.7719
39.6821,30.0277
39.4202,30.2564
39.1351,30.4554
38.8300,30.6223
38.6702,30.6908
33.1712,32.8903
33.0067,32.9558
32.6665,33.0543
32.3176,33.1146
31.9641,33.1360
31.6104,33.1182
31.2609,33.0615
30.9197,32.9666
30.5911,32.8346
30.2791,32.6671
29.9875,32.4663
29.7199,32.2344
29.4795,31.9744
29.3724,31.8333
28.1025,31.8333
27.9678,31.8308
27.7014,31.7907
27.4440,31.7113
27.2012,31.5944
26.9786,31.4426
26.7812,31.2594
26.6132,31.0487
26.4785,30.8154
26.3801,30.5646
26.3201,30.3020
26.3000,30.0333
26.3201,29.7647
26.3801,29.5020
26.4785,29.2513
26.6132,29.0179
26.7812,28.8073
26.9786,28.6241
27.2012,28.4723
27.4440,28.3554
27.7014,28.2760
27.9678,28.2359
28.1025,28.2333
29.2361,28.2333
29.3290,28.0894
29.5409,27.8202
29.7805,27.5752
30.0448,27.3571
30.3309,27.1686
30.6355,27.0117
30.7946,26.9479
Z" /> 
<path style="fill:none; 
stroke:#000000; stroke-width:0.1000; stroke-opacity:1; 
stroke-linecap:round; stroke-linejoin:round;fill:none"
d="M 131.5445,24.7481
131.7171,24.6842
132.0733,24.5919
132.4377,24.5410
132.8055,24.5323
133.1719,24.5658
133.5321,24.6411
133.8812,24.7572
134.2147,24.9126
134.5282,25.1053
134.8176,25.3326
135.0789,25.5916
135.3089,25.8788
135.4088,26.0333
135.8425,26.0333
135.9772,26.0359
136.2436,26.0760
136.5010,26.1554
136.7438,26.2723
136.9664,26.4241
137.1638,26.6073
137.3318,26.8179
137.4665,27.0513
137.5649,27.3020
137.6249,27.5647
137.6450,27.8333
137.6249,28.1020
137.5649,28.3646
137.4665,28.6154
137.3318,28.8487
137.1638,29.0594
136.9664,29.2426
136.7438,29.3944
136.5010,29.5113
136.2436,29.5907
135.9772,29.6308
135.8425,29.6333
135.2727,29.6333
135.1677,29.7719
134.9321,30.0277
134.6702,30.2564
134.3851,30.4554
134.0800,30.6223
133.9202,30.6908
128.4212,32.8903
128.2567,32.9558
127.9165,33.0543
127.5676,33.1146
127.2141,33.1360
126.8604,33.1182
126.5109,33.0615
126.1697,32.9666
125.8411,32.8346
125.5291,32.6671
125.2375,32.4663
124.9699,32.2344
124.7295,31.9744
124.6224,31.8333
123.3525,31.8333
123.2178,31.8308
122.9514,31.7907
122.6940,31.7113
122.4512,31.5944
122.2286,31.4426
122.0312,31.2594
121.8632,31.0487
121.7285,30.8154
121.6301,30.5646
121.5701,30.3020
121.5500,30.0333
121.5701,29.7647
121.6301,29.5020
121.7285,29.2513
121.8632,29.0179
122.0312,28.8073
122.2286,28.6241
122.4512,28.4723
122.6940,28.3554
122.9514,28.2760
123.2178,28.2359
123.3525,28.2333
124.4861,28.2333
124.5790,28.0894
124.7909,27.8202
125.0305,27.5752
125.2948,27.3571
125.5809,27.1686
125.8855,27.0117
126.0446,26.9479
Z" /> 
<path style="fill:none; 
stroke:#000000; stroke-width:0.1000; stroke-opacity:1; 
stroke-linecap:round; stroke-linejoin:round;fill:none"
d="M 112.4945,50.2481
112.6671,50.1842
113.0233,50.0919
113.3877,50.0410
113.7555,50.0323
114.1219,50.0658
114.4821,50.1411
114.8312,50.2573
115.1647,50.4127
115.4782,50.6053
115.7676,50.8326
116.0289,51.0916
116.2589,51.3788
116.3588,51.5333
116.7925,51.5333
116.9272,51.5359
117.1936,51.5760
117.4510,51.6554
117.6938,51.7723
117.9164,51.9241
118.1138,52.1073
118.2818,52.3179
118.4165,52.5513
118.5149,52.8020
118.5749,53.0647
118.5950,53.3333
118.5749,53.6020
118.5149,53.8646
118.4165,54.1154
118.2818,54.3487
118.1138,54.5594
117.9164,54.7426
117.6938,54.8944
117.4510,55.0113
117.1936,55.0907
116.9272,55.1308
116.7925,55.1333
116.2227,55.1333
116.1177,55.2719
115.8821,55.5277
115.6202,55.7564
115.3351,55.9554
115.0300,56.1223
114.8702,56.1908
109.3712,58.3903
109.2067,58.4558
108.8665,58.5543
108.5176,58.6146
108.1641,58.6360
107.8104,58.6182
107.4609,58.5616
107.1197,58.4666
106.7911,58.3346
106.4791,58.1672
106.1875,57.9663
105.9199,57.7344
105.6795,57.4744
105.5724,57.3333
104.3025,57.3333
104.1678,57.3308
103.9014,57.2907
103.6440,57.2113
103.4012,57.0944
103.1786,56.9426
102.9812,56.7594
102.8132,56.5487
102.6785,56.3154
102.5801,56.0646
102.5201,55.8020
102.5000,55.5333
102.5201,55.2647
102.5801,55.0020
102.6785,54.7513
102.8132,54.5179
102.9812,54.3073
103.1786,54.1241
103.4012,53.9723
103.6440,53.8554
103.9014,53.7760
104.1678,53.7359
104.3025,53.7333
105.4361,53.7333
105.5290,53.5894
105.7409,53.3202
105.9805,53.0752
106.2448,52.8572
106.5309,52.6686
106.8355,52.5117
106.9946,52.4479
Z" /> 
<path style="fill:none; 
stroke:#000000; stroke-width:0.1000; stroke-opacity:1; 
stroke-linecap:round; stroke-linejoin:round;fill:none"
d="M 74.3945,45.9981
74.5671,45.9342
74.9233,45.8419
75.2877,45.7910
75.6555,45.7823
76.0219,45.8158
76.3821,45.8911
76.7312,46.0072
77.0647,46.1627
77.3782,46.3553
77.6676,46.5826
77.9289,46.8416
78.1589,47.1288
78.2588,47.2833
78.6925,47.2833
78.8272,47.2859
79.0936,47.3260
79.3510,47.4054
79.5938,47.5223
79.8164,47.6741
80.0138,47.8573
80.1818,48.0679
80.3165,48.3013
80.4149,48.5520
80.4749,48.8147
80.4950,49.0833
80.4749,49.3520
80.4149,49.6146
80.3165,49.8654
80.1818,50.0987
80.0138,50.3094
79.8164,50.4926
79.5938,50.6444
79.3510,50.7613
79.0936,50.8407
78.8272,50.8808
78.6925,50.8833
78.1227,50.8833
78.0177,51.0219
77.7821,51.2777
77.5202,51.5064
77.2351,51.7054
76.9300,51.8723
76.7702,51.9408
71.2712,54.1403
71.1067,54.2058
70.7665,54.3043
70.4176,54.3646
70.0641,54.3860
69.7104,54.3682
69.3609,54.3116
69.0197,54.2166
68.6911,54.0846
68.3791,53.9172
68.0875,53.7163
67.8199,53.4844
67.5795,53.2244
67.4724,53.0833
66.2025,53.0833
66.0678,53.0808
65.8014,53.0407
65.5440,52.9613
65.3012,52.8444
65.0786,52.6926
64.8812,52.5094
64.7132,52.2987
64.5785,52.0654
64.4801,51.8146
64.4201,51.5520
64.4000,51.2833
64.4201,51.0147
64.4801,50.7520
64.5785,50.5013
64.7132,50.2679
64.8812,50.0573
65.0786,49.8741
65.3012,49.7223
65.5440,49.6054
65.8014,49.5260
66.0678,49.4859
66.2025,49.4833
67.3361,49.4833
67.4290,49.3394
67.6409,49.0702
67.8805,48.8252
68.1448,48.6072
68.4309,48.4186
68.7355,48.2617
68.8946,48.1979
Z" /> 
<path style="fill:none; 
stroke:#000000; stroke-width:0.1000; stroke-opacity:1; 
stroke-linecap:round; stroke-linejoin:round;fill:none"
d="M 112.4945,33.2481
112.6671,33.1842
113.0233,33.0919
113.3877,33.0410
113.7555,33.0323
114.1219,33.0658
114.4821,33.1411
114.8312,33.2572
115.1647,33.4126
115.4782,33.6053
115.7676,33.8326
116.0289,34.0916
116.2589,34.3788
116.3588,34.5333
116.7925,34.5333
116.9272,34.5359
117.1936,34.5760
117.4510,34.6554
117.6938,34.7723
117.9164,34.9241
118.1138,35.1073
118.2818,35.3179
118.4165,35.5513
118.5149,35.8020
118.5749,36.0647
118.5950,36.3333
118.5749,36.6020
118.5149,36.8646
118.4165,37.1154
118.2818,37.3487
118.1138,37.5594
117.9164,37.7426
117.6938,37.8944
117.4510,38.0113
117.1936,38.0907
116.9272,38.1308
116.7925,38.1333
116.2227,38.1333
116.1177,38.2719
115.8821,38.5277
115.6202,38.7564
115.3351,38.9554
115.0300,39.1223
114.8702,39.1908
109.3712,41.3903
109.2067,41.4558
108.8665,41.5543
108.5176,41.6146
108.1641,41.6360
107.8104,41.6182
107.4609,41.5615
107.1197,41.4666
106.7911,41.3346
106.4791,41.1671
106.1875,40.9663
105.9199,40.7344
105.6795,40.4744
105.5724,40.3333
104.3025,40.3333
104.1678,40.3308
103.9014,40.2907
103.6440,40.2113
103.4012,40.0944
103.1786,39.9426
102.9812,39.7594
102.8132,39.5487
102.6785,39.3154
102.5801,39.0646
102.5201,38.8020
102.5000,38.5333
102.5201,38.2647
102.5801,38.0020
102.6785,37.7513
102.8132,37.5179
102.9812,37.3073
103.1786,37.1241
103.4012,36.9723
103.6440,36.8554
103.9014,36.7760
104.1678,36.7359
104.3025,36.7333
105.4361,36.7333
105.5290,36.5894
105.7409,36.3202
105.9805,36.0752
106.2448,35.8571
106.5309,35.6686
106.8355,35.5117
106.9946,35.4479
Z" /> 
<path style="fill:none; 
stroke:#000000; stroke-width:0.1000; stroke-opacity:1; 
stroke-linecap:round; stroke-linejoin:round;fill:none"
d="M 55.3445,16.2481
55.5171,16.1842
55.8733,16.0919
56.2377,16.0410
56.6055,16.0323
56.9719,16.0658
57.3321,16.1411
57.6812,16.2572
58.0147,16.4126
58.3282,16.6053
58.6176,16.8326
58.8789,17.0916
59.1089,17.3788
59.2088,17.5333
59.6425,17.5333
59.7772,17.5359
60.0436,17.5760
60.3010,17.6554
60.5438,17.7723
60.7664,17.9241
60.9638,18.1073
61.1318,18.3179
61.2665,18.5513
61.3649,18.8020
61.4249,19.0647
61.4450,19.3333
61.4249,19.6020
61.3649,19.8646
61.2665,20.1154
61.1318,20.3487
60.9638,20.5594
60.7664,20.7426
60.5438,20.8944
60.3010,21.0113
60.0436,21.0907
59.7772,21.1308
59.6425,21.1333
59.0727,21.1333
58.9677,21.2719
58.7321,21.5277
58.4702,21.7564
58.1851,21.9554
57.8800,22.1223
57.7202,22.1908
52.2212,24.3903
52.0567,24.4558
51.7165,24.5543
51.3676,24.6146
51.0141,24.6360
50.6604,24.6182
50.3109,24.5615
49.9697,24.4666
49.6411,24.3346
49.3291,24.1671
49.0375,23.9662
48.7699,23.7344
48.5295,23.4744
48.4224,23.3333
47.1525,23.3333
47.0178,23.3308
46.7514,23.2907
46.4940,23.2113
46.2512,23.0944
46.0286,22.9426
45.8312,22.7594
45.6632,22.5487
45.5285,22.3154
45.4301,22.0646
45.3701,21.8020
45.3500,21.5333
45.3701,21.2647
45.4301,21.0020
45.5285,20.7513
45.6632,20.5179
45.8312,20.3073
46.0286,20.1241
46.2512,19.9723
46.4940,19.8554
46.7514,19.7760
47.0178,19.7359
47.1525,19.7333
48.2861,19.7333
48.3790,19.5894
48.5909,19.3202
48.8305,19.0752
49.0948,18.8571
49.3809,18.6686
49.6855,18.5117
49.8446,18.4479
Z" /> 
<path style="fill:none; 
stroke:#000000; stroke-width:0.1000; stroke-opacity:1; 
stroke-linecap:round; stroke-linejoin:round;fill:none"
d="M 104.4869,75.7079
104.6684,75.6781
105.0357,75.6555
105.4031,75.6751
105.7659,75.7367
106.1192,75.8395
106.4583,75.9821
106.7789,76.1627
107.0766,76.3789
107.3476,76.6278
107.5883,76.9062
107.7954,77.2103
107.9663,77.5361
108.0349,77.7069
108.4606,77.7896
108.5924,77.8178
108.8462,77.9080
109.0838,78.0351
109.2997,78.1962
109.4893,78.3876
109.6482,78.6052
109.7729,78.8440
109.8606,79.0987
109.9094,79.3637
109.9181,79.6329
109.8866,79.9005
109.8156,80.1604
109.7066,80.4067
109.5621,80.6341
109.3854,80.8375
109.1803,81.0122
108.9515,81.1544
108.7040,81.2609
108.4435,81.3293
108.1756,81.3581
107.9064,81.3467
107.7737,81.3235
107.2144,81.2148
107.0849,81.3307
106.8048,81.5368
106.5041,81.7114
106.1862,81.8523
105.8549,81.9580
105.6850,81.9948
99.8673,83.1045
99.6933,83.1375
99.3406,83.1692
98.9866,83.1618
98.6355,83.1154
98.2917,83.0305
97.9594,82.9081
97.6427,82.7499
97.3453,82.5576
97.0710,82.3337
96.8231,82.0808
96.6046,81.8021
96.4182,81.5011
96.3400,81.3422
95.0934,81.0999
94.9617,81.0717
94.7078,80.9814
94.4703,80.8544
94.2543,80.6933
94.0648,80.5019
93.9059,80.2843
93.7812,80.0455
93.6935,79.7908
93.6447,79.5258
93.6360,79.2565
93.6675,78.9890
93.7385,78.7291
93.8475,78.4827
93.9919,78.2553
94.1687,78.0520
94.3738,77.8773
94.6026,77.7351
94.8500,77.6286
95.1106,77.5602
95.3785,77.5313
95.6476,77.5428
95.7803,77.5660
96.8931,77.7823
97.0117,77.6587
97.2712,77.4349
97.5531,77.2401
97.8542,77.0765
98.1710,76.9460
98.4999,76.8502
98.6682,76.8179
Z" /> 
<path style="fill:none; 
stroke:#000000; stroke-width:0.1000; stroke-opacity:1; 
stroke-linecap:round; stroke-linejoin:round;fill:none"
d="M 111.5321,6.6333
111.6304,6.6356
111.8231,6.6739
112.0047,6.7491
112.1681,6.8583
112.3071,6.9973
112.4163,7.1607
112.4915,7.3423
112.5298,7.5351
112.5321,7.6333
112.5321,14.1583
112.5298,14.2566
112.4915,14.4494
112.4163,14.6309
112.3071,14.7944
112.1681,14.9333
112.0047,15.0425
111.8231,15.1177
111.6304,15.1561
111.5321,15.1583
104.5321,15.1583
104.4338,15.1559
104.2411,15.1176
104.0596,15.0424
103.8962,14.9332
103.7572,14.7943
103.6480,14.6309
103.5728,14.4493
103.5345,14.2566
103.5321,14.1583
103.5321,7.6333
103.5345,7.5351
103.5728,7.3423
103.6480,7.1608
103.7572,6.9974
103.8962,6.8585
104.0596,6.7493
104.2411,6.6741
104.4338,6.6357
104.5321,6.6333
Z" /> 
<path style="fill:none; 
stroke:#000000; stroke-width:0.1000; stroke-opacity:1; 
stroke-linecap:round; stroke-linejoin:round;fill:none"
d="M 142.6055,49.3333
141.3555,49.3333
141.2572,49.3311
141.0645,49.2928
140.8829,49.2175
140.7195,49.1083
140.5805,48.9694
140.4713,48.8060
140.3961,48.6244
140.3577,48.4316
140.3555,48.3333
140.3555,42.3333
140.3579,42.2351
140.3962,42.0424
140.4714,41.8608
140.5806,41.6974
140.7196,41.5585
140.8830,41.4493
141.0645,41.3741
141.2572,41.3358
141.3555,41.3333
142.6055,41.3333
Z" /> 
<path style="fill:none; 
stroke:#000000; stroke-width:0.1000; stroke-opacity:1; 
stroke-linecap:round; stroke-linejoin:round;fill:none"
d="M 93.4445,11.9981
93.6171,11.9342
93.9733,11.8419
94.3377,11.7910
94.7055,11.7823
95.0719,11.8158
95.4321,11.8911
95.7812,12.0072
96.1147,12.1626
96.4282,12.3553
96.7176,12.5826
96.9789,12.8416
97.2089,13.1288
97.3088,13.2833
97.7425,13.2833
97.8772,13.2859
98.1436,13.3260
98.4010,13.4054
98.6438,13.5223
98.8664,13.6741
99.0638,13.8573
99.2318,14.0679
99.3665,14.3012
99.4649,14.5520
99.5249,14.8147
99.5450,15.0833
99.5249,15.3520
99.4649,15.6146
99.3665,15.8654
99.2318,16.0987
99.0638,16.3094
98.8664,16.4926
98.6438,16.6444
98.4010,16.7613
98.1436,16.8407
97.8772,16.8808
97.7425,16.8833
97.1727,16.8833
97.0677,17.0219
96.8321,17.2777
96.5702,17.5064
96.2851,17.7054
95.9800,17.8723
95.8202,17.9408
90.3212,20.1403
90.1567,20.2058
89.8165,20.3043
89.4676,20.3646
89.1141,20.3860
88.7604,20.3682
88.4109,20.3115
88.0697,20.2166
87.7411,20.0846
87.4291,19.9171
87.1375,19.7162
86.8699,19.4844
86.6295,19.2244
86.5224,19.0833
85.2525,19.0833
85.1178,19.0808
84.8514,19.0407
84.5940,18.9613
84.3512,18.8444
84.1286,18.6926
83.9312,18.5094
83.7632,18.2987
83.6285,18.0654
83.5301,17.8146
83.4701,17.5520
83.4500,17.2833
83.4701,17.0147
83.5301,16.7520
83.6285,16.5012
83.7632,16.2679
83.9312,16.0573
84.1286,15.8741
84.3512,15.7223
84.5940,15.6054
84.8514,15.5260
85.1178,15.4859
85.2525,15.4833
86.3861,15.4833
86.4790,15.3394
86.6909,15.0702
86.9305,14.8252
87.1948,14.6071
87.4809,14.4186
87.7855,14.2617
87.9446,14.1979
Z" /> 
<path style="fill:none; 
stroke:#000000; stroke-width:0.1000; stroke-opacity:1; 
stroke-linecap:round; stroke-linejoin:round;fill:none"
d="M 93.4445,28.9981
93.6171,28.9342
93.9733,28.8419
94.3377,28.7910
94.7055,28.7823
95.0719,28.8158
95.4321,28.8911
95.7812,29.0072
96.1147,29.1626
96.4282,29.3553
96.7176,29.5826
96.9789,29.8416
97.2089,30.1288
97.3088,30.2833
97.7425,30.2833
97.8772,30.2859
98.1436,30.3260
98.4010,30.4054
98.6438,30.5223
98.8664,30.6741
99.0638,30.8573
99.2318,31.0679
99.3665,31.3013
99.4649,31.5520
99.5249,31.8147
99.5450,32.0833
99.5249,32.3520
99.4649,32.6146
99.3665,32.8654
99.2318,33.0987
99.0638,33.3094
98.8664,33.4926
98.6438,33.6444
98.4010,33.7613
98.1436,33.8407
97.8772,33.8808
97.7425,33.8833
97.1727,33.8833
97.0677,34.0219
96.8321,34.2777
96.5702,34.5064
96.2851,34.7054
95.9800,34.8723
95.8202,34.9408
90.3212,37.1403
90.1567,37.2058
89.8165,37.3043
89.4676,37.3646
89.1141,37.3860
88.7604,37.3682
88.4109,37.3115
88.0697,37.2166
87.7411,37.0846
87.4291,36.9171
87.1375,36.7163
86.8699,36.4844
86.6295,36.2244
86.5224,36.0833
85.2525,36.0833
85.1178,36.0808
84.8514,36.0407
84.5940,35.9613
84.3512,35.8444
84.1286,35.6926
83.9312,35.5094
83.7632,35.2987
83.6285,35.0654
83.5301,34.8146
83.4701,34.5520
83.4500,34.2833
83.4701,34.0147
83.5301,33.7520
83.6285,33.5013
83.7632,33.2679
83.9312,33.0573
84.1286,32.8741
84.3512,32.7223
84.5940,32.6054
84.8514,32.5260
85.1178,32.4859
85.2525,32.4833
86.3861,32.4833
86.4790,32.3394
86.6909,32.0702
86.9305,31.8252
87.1948,31.6071
87.4809,31.4186
87.7855,31.2617
87.9446,31.1979
Z" /> 
<path style="fill:none; 
stroke:#000000; stroke-width:0.1000; stroke-opacity:1; 
stroke-linecap:round; stroke-linejoin:round;fill:none"
d="M 93.4445,45.9981
93.6171,45.9342
93.9733,45.8419
94.3377,45.7910
94.7055,45.7823
95.0719,45.8158
95.4321,45.8911
95.7812,46.0072
96.1147,46.1627
96.4282,46.3553
96.7176,46.5826
96.9789,46.8416
97.2089,47.1288
97.3088,47.2833
97.7425,47.2833
97.8772,47.2859
98.1436,47.3260
98.4010,47.4054
98.6438,47.5223
98.8664,47.6741
99.0638,47.8573
99.2318,48.0679
99.3665,48.3013
99.4649,48.5520
99.5249,48.8147
99.5450,49.0833
99.5249,49.3520
99.4649,49.6146
99.3665,49.8654
99.2318,50.0987
99.0638,50.3094
98.8664,50.4926
98.6438,50.6444
98.4010,50.7613
98.1436,50.8407
97.8772,50.8808
97.7425,50.8833
97.1727,50.8833
97.0677,51.0219
96.8321,51.2777
96.5702,51.5064
96.2851,51.7054
95.9800,51.8723
95.8202,51.9408
90.3212,54.1403
90.1567,54.2058
89.8165,54.3043
89.4676,54.3646
89.1141,54.3860
88.7604,54.3682
88.4109,54.3116
88.0697,54.2166
87.7411,54.0846
87.4291,53.9172
87.1375,53.7163
86.8699,53.4844
86.6295,53.2244
86.5224,53.0833
85.2525,53.0833
85.1178,53.0808
84.8514,53.0407
84.5940,52.9613
84.3512,52.8444
84.1286,52.6926
83.9312,52.5094
83.7632,52.2987
83.6285,52.0654
83.5301,51.8146
83.4701,51.5520
83.4500,51.2833
83.4701,51.0147
83.5301,50.7520
83.6285,50.5013
83.7632,50.2679
83.9312,50.0573
84.1286,49.8741
84.3512,49.7223
84.5940,49.6054
84.8514,49.5260
85.1178,49.4859
85.2525,49.4833
86.3861,49.4833
86.4790,49.3394
86.6909,49.0702
86.9305,48.8252
87.1948,48.6072
87.4809,48.4186
87.7855,48.2617
87.9446,48.1979
Z" /> 
<path style="fill:none; 
stroke:#000000; stroke-width:0.1000; stroke-opacity:1; 
stroke-linecap:round; stroke-linejoin:round;fill:none"
d="M 74.3945,11.9981
74.5671,11.9342
74.9233,11.8419
75.2877,11.7910
75.6555,11.7823
76.0219,11.8158
76.3821,11.8911
76.7312,12.0072
77.0647,12.1626
77.3782,12.3553
77.6676,12.5826
77.9289,12.8416
78.1589,13.1288
78.2588,13.2833
78.6925,13.2833
78.8272,13.2859
79.0936,13.3260
79.3510,13.4054
79.5938,13.5223
79.8164,13.6741
80.0138,13.8573
80.1818,14.0679
80.3165,14.3012
80.4149,14.5520
80.4749,14.8147
80.4950,15.0833
80.4749,15.3520
80.4149,15.6146
80.3165,15.8654
80.1818,16.0987
80.0138,16.3094
79.8164,16.4926
79.5938,16.6444
79.3510,16.7613
79.0936,16.8407
78.8272,16.8808
78.6925,16.8833
78.1227,16.8833
78.0177,17.0219
77.7821,17.2777
77.5202,17.5064
77.2351,17.7054
76.9300,17.8723
76.7702,17.9408
71.2712,20.1403
71.1067,20.2058
70.7665,20.3043
70.4176,20.3646
70.0641,20.3860
69.7104,20.3682
69.3609,20.3115
69.0197,20.2166
68.6911,20.0846
68.3791,19.9171
68.0875,19.7162
67.8199,19.4844
67.5795,19.2244
67.4724,19.0833
66.2025,19.0833
66.0678,19.0808
65.8014,19.0407
65.5440,18.9613
65.3012,18.8444
65.0786,18.6926
64.8812,18.5094
64.7132,18.2987
64.5785,18.0654
64.4801,17.8146
64.4201,17.5520
64.4000,17.2833
64.4201,17.0147
64.4801,16.7520
64.5785,16.5012
64.7132,16.2679
64.8812,16.0573
65.0786,15.8741
65.3012,15.7223
65.5440,15.6054
65.8014,15.5260
66.0678,15.4859
66.2025,15.4833
67.3361,15.4833
67.4290,15.3394
67.6409,15.0702
67.8805,14.8252
68.1448,14.6071
68.4309,14.4186
68.7355,14.2617
68.8946,14.1979
Z" /> 
</g> 
</svg>
