<?xml version="1.0" standalone="no"?>
 <!DOCTYPE svg PUBLIC "-//W3C//DTD SVG 1.1//EN" 
 "http://www.w3.org/Graphics/SVG/1.1/DTD/svg11.dtd"> 
<svg
  xmlns:svg="http://www.w3.org/2000/svg"
  xmlns="http://www.w3.org/2000/svg"
  xmlns:xlink="http://www.w3.org/1999/xlink"
  version="1.1"
  width="301.6250mm" height="99.1616mm" viewBox="0.0000 0.0000 301.6250 99.1616">
<title>SVG Image created as Alufo-User_3.svg date 2024/11/09 20:54:08 </title>
  <desc>Image generated by PCBNEW </desc>
<g style="fill:#000000; fill-opacity:1.0000;stroke:#000000; stroke-opacity:1.0000;
stroke-linecap:round; stroke-linejoin:round;"
 transform="translate(0 0) scale(1 1)">
<path style="fill:none; 
stroke:#000000; stroke-width:0.1000; stroke-opacity:1; 
stroke-linecap:round; stroke-linejoin:round;fill:none"
d="M 116.0160,70.9034
116.0370,70.8074
116.1114,70.6254
116.2198,70.4616
116.3582,70.3220
116.5211,70.2121
116.7024,70.1361
116.8950,70.0969
117.0915,70.0960
117.1884,70.1126
130.4404,72.6885
130.5364,72.7097
130.7182,72.7841
130.8821,72.8925
131.0216,73.0309
131.1315,73.1938
131.2075,73.3750
131.2467,73.5675
131.2476,73.7640
131.2312,73.8609
130.2293,79.0155
130.2083,79.1115
130.1339,79.2934
130.0254,79.4573
129.8871,79.5969
129.7241,79.7068
129.5429,79.7828
129.3503,79.8220
129.1537,79.8228
129.0568,79.8063
114.8232,77.0395
Z" /> 
<path style="fill:none; 
stroke:#000000; stroke-width:0.1000; stroke-opacity:1; 
stroke-linecap:round; stroke-linejoin:round;fill:none"
d="M 31.9966,38.8358
32.2921,38.8751
32.5799,38.9532
32.8549,39.0686
33.1121,39.2193
33.3473,39.4027
33.5561,39.6155
33.6475,39.7333
37.3475,39.7333
37.4654,39.7359
37.6976,39.7769
37.9191,39.8575
38.1233,39.9754
38.3039,40.1269
38.4555,40.3075
38.5734,40.5117
38.6540,40.7333
38.6949,40.9655
38.6949,41.2012
38.6540,41.4334
38.5734,41.6550
38.4555,41.8591
38.3039,42.0398
38.1233,42.1913
37.9191,42.3092
37.6976,42.3898
37.4654,42.4308
37.3475,42.4333
29.1805,45.4013
29.1805,42.4333
26.3475,42.4333
26.2296,42.4308
25.9974,42.3898
25.7759,42.3092
25.5717,42.1913
25.3911,42.0398
25.2395,41.8591
25.1216,41.6550
25.0410,41.4334
25.0001,41.2012
25.0001,40.9655
25.0410,40.7333
25.1216,40.5117
25.2395,40.3075
25.3911,40.1269
25.5717,39.9754
25.7759,39.8575
25.9974,39.7769
26.2296,39.7359
26.3475,39.7333
30.0475,39.7333
30.1389,39.6155
30.3477,39.4027
30.5829,39.2193
30.8401,39.0686
31.1151,38.9532
31.4029,38.8751
31.6984,38.8358
31.8475,38.8333
Z" /> 
<path style="fill:none; 
stroke:#000000; stroke-width:0.1000; stroke-opacity:1; 
stroke-linecap:round; stroke-linejoin:round;fill:none"
d="M 33.8795,37.7823
33.8819,37.6767
33.9208,37.4689
33.9971,37.2718
34.1084,37.0921
34.2508,36.9358
34.4195,36.8085
34.6087,36.7142
34.8120,36.6564
35.0225,36.6369
35.2330,36.6564
35.4363,36.7142
35.6255,36.8085
35.7942,36.9358
35.9366,37.0921
36.0479,37.2718
36.1242,37.4689
36.1631,37.6767
36.1655,37.7823
36.1655,41.0843
36.1631,41.1900
36.1242,41.3978
36.0479,41.5949
35.9366,41.7746
35.7942,41.9308
35.6255,42.0582
35.4363,42.1524
35.2330,42.2103
35.0225,42.2298
34.8120,42.2103
34.6087,42.1524
34.4195,42.0582
34.2508,41.9308
34.1084,41.7746
33.9971,41.5949
33.9208,41.3978
33.8819,41.1900
33.8795,41.0843
Z" /> 
<path style="fill:none; 
stroke:#000000; stroke-width:0.1000; stroke-opacity:1; 
stroke-linecap:round; stroke-linejoin:round;fill:none"
d="M 51.0466,47.3358
51.3421,47.3751
51.6299,47.4532
51.9049,47.5686
52.1621,47.7193
52.3973,47.9027
52.6061,48.1155
52.6975,48.2333
56.3975,48.2333
56.5154,48.2359
56.7476,48.2769
56.9691,48.3575
57.1733,48.4754
57.3539,48.6269
57.5055,48.8075
57.6234,49.0117
57.7040,49.2333
57.7449,49.4655
57.7449,49.7012
57.7040,49.9334
57.6234,50.1550
57.5055,50.3592
57.3539,50.5398
57.1733,50.6913
56.9691,50.8092
56.7476,50.8898
56.5154,50.9308
56.3975,50.9333
48.2305,53.9013
48.2305,50.9333
45.3975,50.9333
45.2796,50.9308
45.0474,50.8898
44.8259,50.8092
44.6217,50.6913
44.4411,50.5398
44.2895,50.3592
44.1716,50.1550
44.0910,49.9334
44.0501,49.7012
44.0501,49.4655
44.0910,49.2333
44.1716,49.0117
44.2895,48.8075
44.4411,48.6269
44.6217,48.4754
44.8259,48.3575
45.0474,48.2769
45.2796,48.2359
45.3975,48.2333
49.0975,48.2333
49.1889,48.1155
49.3977,47.9027
49.6329,47.7193
49.8901,47.5686
50.1651,47.4532
50.4529,47.3752
50.7484,47.3358
50.8975,47.3333
Z" /> 
<path style="fill:none; 
stroke:#000000; stroke-width:0.1000; stroke-opacity:1; 
stroke-linecap:round; stroke-linejoin:round;fill:none"
d="M 108.1966,13.3358
108.4921,13.3751
108.7799,13.4532
109.0549,13.5686
109.3121,13.7193
109.5473,13.9027
109.7561,14.1155
109.8475,14.2333
113.5475,14.2333
113.6654,14.2359
113.8976,14.2768
114.1191,14.3575
114.3233,14.4754
114.5039,14.6269
114.6555,14.8075
114.7734,15.0117
114.8540,15.2333
114.8949,15.4655
114.8949,15.7012
114.8540,15.9334
114.7734,16.1550
114.6555,16.3591
114.5039,16.5398
114.3233,16.6913
114.1191,16.8092
113.8976,16.8898
113.6654,16.9308
113.5475,16.9333
105.3805,19.9013
105.3805,16.9333
102.5475,16.9333
102.4296,16.9308
102.1974,16.8898
101.9759,16.8092
101.7717,16.6913
101.5911,16.5398
101.4395,16.3591
101.3216,16.1550
101.2410,15.9334
101.2001,15.7012
101.2001,15.4655
101.2410,15.2333
101.3216,15.0117
101.4395,14.8075
101.5911,14.6269
101.7717,14.4754
101.9759,14.3575
102.1974,14.2768
102.4296,14.2359
102.5475,14.2333
106.2475,14.2333
106.3389,14.1155
106.5477,13.9027
106.7829,13.7193
107.0401,13.5686
107.3151,13.4532
107.6029,13.3751
107.8984,13.3358
108.0475,13.3333
Z" /> 
<path style="fill:none; 
stroke:#000000; stroke-width:0.1000; stroke-opacity:1; 
stroke-linecap:round; stroke-linejoin:round;fill:none"
d="M 117.0774,76.1054
117.1936,76.1254
120.8257,76.8314
120.9379,76.7332
121.1835,76.5641
121.4493,76.4290
121.7306,76.3301
122.0225,76.2693
122.3199,76.2476
122.6175,76.2653
122.7643,76.2914
122.9102,76.3222
123.1928,76.4172
123.4604,76.5488
123.7083,76.7145
123.9321,76.9116
124.1279,77.1364
124.2923,77.3852
124.3595,77.5183
127.9915,78.2243
128.1068,78.2493
128.3269,78.3338
128.5290,78.4552
128.7069,78.6099
128.8553,78.7931
128.9696,78.9993
129.0463,79.2222
129.0832,79.4551
129.0791,79.6909
129.0341,79.9223
128.9496,80.1424
128.8282,80.3445
128.6735,80.5224
128.4903,80.6708
128.2841,80.7851
128.0612,80.8619
127.8283,80.8988
127.5926,80.8946
127.4764,80.8747
118.8931,82.2298
119.4594,79.3163
116.6785,78.7758
116.5632,78.7508
116.3431,78.6663
116.1410,78.5448
115.9631,78.3901
115.8147,78.2069
115.7004,78.0007
115.6236,77.7778
115.5868,77.5449
115.5909,77.3092
115.6359,77.0777
115.7204,76.8576
115.8418,76.6555
115.9965,76.4776
116.1797,76.3292
116.3859,76.2149
116.6088,76.1382
116.8417,76.1013
Z" /> 
<path style="fill:none; 
stroke:#000000; stroke-width:0.1000; stroke-opacity:1; 
stroke-linecap:round; stroke-linejoin:round;fill:none"
d="M 70.0966,26.0858
70.3921,26.1251
70.6799,26.2032
70.9549,26.3186
71.2121,26.4693
71.4473,26.6527
71.6561,26.8655
71.7475,26.9833
75.4475,26.9833
75.5654,26.9859
75.7976,27.0268
76.0191,27.1075
76.2233,27.2254
76.4039,27.3769
76.5555,27.5575
76.6734,27.7617
76.7540,27.9833
76.7949,28.2155
76.7949,28.4512
76.7540,28.6834
76.6734,28.9050
76.5555,29.1091
76.4039,29.2898
76.2233,29.4413
76.0191,29.5592
75.7976,29.6398
75.5654,29.6808
75.4475,29.6833
67.2805,32.6513
67.2805,29.6833
64.4475,29.6833
64.3296,29.6808
64.0974,29.6398
63.8759,29.5592
63.6717,29.4413
63.4911,29.2898
63.3395,29.1091
63.2216,28.9050
63.1410,28.6834
63.1001,28.4512
63.1001,28.2155
63.1410,27.9833
63.2216,27.7617
63.3395,27.5575
63.4911,27.3769
63.6717,27.2254
63.8759,27.1075
64.0974,27.0268
64.3296,26.9859
64.4475,26.9833
68.1475,26.9833
68.2389,26.8655
68.4477,26.6527
68.6829,26.4693
68.9401,26.3186
69.2151,26.2032
69.5029,26.1251
69.7984,26.0858
69.9475,26.0833
Z" /> 
<path style="fill:none; 
stroke:#000000; stroke-width:0.1000; stroke-opacity:1; 
stroke-linecap:round; stroke-linejoin:round;fill:none"
d="M 65.5595,9.7048
65.5619,9.5991
65.6008,9.3914
65.6771,9.1943
65.7884,9.0145
65.9308,8.8583
66.0995,8.7310
66.2887,8.6367
66.4920,8.5789
66.7025,8.5594
66.9130,8.5789
67.1163,8.6367
67.3055,8.7310
67.4742,8.8583
67.6166,9.0145
67.7279,9.1943
67.8042,9.3914
67.8431,9.5991
67.8455,9.7048
67.8455,13.0068
67.8431,13.1125
67.8042,13.3203
67.7279,13.5174
67.6166,13.6971
67.4742,13.8533
67.3055,13.9807
67.1163,14.0749
66.9130,14.1328
66.7025,14.1523
66.4920,14.1328
66.2887,14.0749
66.0995,13.9807
65.9308,13.8533
65.7884,13.6971
65.6771,13.5174
65.6008,13.3203
65.5619,13.1125
65.5595,13.0068
Z" /> 
<path style="fill:none; 
stroke:#000000; stroke-width:0.1000; stroke-opacity:1; 
stroke-linecap:round; stroke-linejoin:round;fill:none"
d="M 122.7095,37.7823
122.7119,37.6767
122.7508,37.4689
122.8271,37.2718
122.9384,37.0921
123.0808,36.9358
123.2495,36.8085
123.4387,36.7142
123.6420,36.6564
123.8525,36.6369
124.0630,36.6564
124.2663,36.7142
124.4555,36.8085
124.6242,36.9358
124.7666,37.0921
124.8779,37.2718
124.9542,37.4689
124.9931,37.6767
124.9955,37.7823
124.9955,41.0843
124.9931,41.1900
124.9542,41.3978
124.8779,41.5949
124.7666,41.7746
124.6242,41.9308
124.4555,42.0582
124.2663,42.1524
124.0630,42.2103
123.8525,42.2298
123.6420,42.2103
123.4387,42.1524
123.2495,42.0582
123.0808,41.9308
122.9384,41.7746
122.8271,41.5949
122.7508,41.3978
122.7119,41.1900
122.7095,41.0843
Z" /> 
<path style="fill:none; 
stroke:#000000; stroke-width:0.1000; stroke-opacity:1; 
stroke-linecap:round; stroke-linejoin:round;fill:none"
d="M 51.0466,30.3358
51.3421,30.3751
51.6299,30.4532
51.9049,30.5686
52.1621,30.7193
52.3973,30.9027
52.6061,31.1155
52.6975,31.2333
56.3975,31.2333
56.5154,31.2359
56.7476,31.2768
56.9691,31.3575
57.1733,31.4754
57.3539,31.6269
57.5055,31.8075
57.6234,32.0117
57.7040,32.2333
57.7449,32.4655
57.7449,32.7012
57.7040,32.9334
57.6234,33.1550
57.5055,33.3591
57.3539,33.5398
57.1733,33.6913
56.9691,33.8092
56.7476,33.8898
56.5154,33.9308
56.3975,33.9333
48.2305,36.9013
48.2305,33.9333
45.3975,33.9333
45.2796,33.9308
45.0474,33.8898
44.8259,33.8092
44.6217,33.6913
44.4411,33.5398
44.2895,33.3591
44.1716,33.1550
44.0910,32.9334
44.0501,32.7012
44.0501,32.4655
44.0910,32.2333
44.1716,32.0117
44.2895,31.8075
44.4411,31.6269
44.6217,31.4754
44.8259,31.3575
45.0474,31.2768
45.2796,31.2359
45.3975,31.2333
49.0975,31.2333
49.1889,31.1155
49.3977,30.9027
49.6329,30.7193
49.8901,30.5686
50.1651,30.4532
50.4529,30.3751
50.7484,30.3358
50.8975,30.3333
Z" /> 
<path style="fill:none; 
stroke:#000000; stroke-width:0.1000; stroke-opacity:1; 
stroke-linecap:round; stroke-linejoin:round;fill:none"
d="M 127.2466,38.8358
127.5421,38.8751
127.8299,38.9532
128.1049,39.0686
128.3621,39.2193
128.5973,39.4027
128.8061,39.6155
128.8975,39.7333
132.5975,39.7333
132.7154,39.7359
132.9476,39.7769
133.1691,39.8575
133.3733,39.9754
133.5539,40.1269
133.7055,40.3075
133.8234,40.5117
133.9040,40.7333
133.9449,40.9655
133.9449,41.2012
133.9040,41.4334
133.8234,41.6550
133.7055,41.8591
133.5539,42.0398
133.3733,42.1913
133.1691,42.3092
132.9476,42.3898
132.7154,42.4308
132.5975,42.4333
124.4305,45.4013
124.4305,42.4333
121.5975,42.4333
121.4796,42.4308
121.2474,42.3898
121.0259,42.3092
120.8217,42.1913
120.6411,42.0398
120.4895,41.8591
120.3716,41.6550
120.2910,41.4334
120.2501,41.2012
120.2501,40.9655
120.2910,40.7333
120.3716,40.5117
120.4895,40.3075
120.6411,40.1269
120.8217,39.9754
121.0259,39.8575
121.2474,39.7769
121.4796,39.7359
121.5975,39.7333
125.2975,39.7333
125.3889,39.6155
125.5977,39.4027
125.8329,39.2193
126.0901,39.0686
126.3651,38.9532
126.6529,38.8751
126.9484,38.8358
127.0975,38.8333
Z" /> 
<path style="fill:none; 
stroke:#000000; stroke-width:0.1000; stroke-opacity:1; 
stroke-linecap:round; stroke-linejoin:round;fill:none"
d="M 31.9966,21.8358
32.2921,21.8751
32.5799,21.9532
32.8549,22.0686
33.1121,22.2193
33.3473,22.4027
33.5561,22.6155
33.6475,22.7333
37.3475,22.7333
37.4654,22.7359
37.6976,22.7768
37.9191,22.8575
38.1233,22.9754
38.3039,23.1269
38.4555,23.3075
38.5734,23.5117
38.6540,23.7333
38.6949,23.9655
38.6949,24.2012
38.6540,24.4334
38.5734,24.6550
38.4555,24.8591
38.3039,25.0398
38.1233,25.1913
37.9191,25.3092
37.6976,25.3898
37.4654,25.4308
37.3475,25.4333
29.1805,28.4013
29.1805,25.4333
26.3475,25.4333
26.2296,25.4308
25.9974,25.3898
25.7759,25.3092
25.5717,25.1913
25.3911,25.0398
25.2395,24.8591
25.1216,24.6550
25.0410,24.4334
25.0001,24.2012
25.0001,23.9655
25.0410,23.7333
25.1216,23.5117
25.2395,23.3075
25.3911,23.1269
25.5717,22.9754
25.7759,22.8575
25.9974,22.7768
26.2296,22.7359
26.3475,22.7333
30.0475,22.7333
30.1389,22.6155
30.3477,22.4027
30.5829,22.2193
30.8401,22.0686
31.1151,21.9532
31.4029,21.8751
31.6984,21.8358
31.8475,21.8333
Z" /> 
<path style="fill:none; 
stroke:#000000; stroke-width:0.1000; stroke-opacity:1; 
stroke-linecap:round; stroke-linejoin:round;fill:none"
d="M 127.2466,21.8358
127.5421,21.8751
127.8299,21.9532
128.1049,22.0686
128.3621,22.2193
128.5973,22.4027
128.8061,22.6155
128.8975,22.7333
132.5975,22.7333
132.7154,22.7359
132.9476,22.7768
133.1691,22.8575
133.3733,22.9754
133.5539,23.1269
133.7055,23.3075
133.8234,23.5117
133.9040,23.7333
133.9449,23.9655
133.9449,24.2012
133.9040,24.4334
133.8234,24.6550
133.7055,24.8591
133.5539,25.0398
133.3733,25.1913
133.1691,25.3092
132.9476,25.3898
132.7154,25.4308
132.5975,25.4333
124.4305,28.4013
124.4305,25.4333
121.5975,25.4333
121.4796,25.4308
121.2474,25.3898
121.0259,25.3092
120.8217,25.1913
120.6411,25.0398
120.4895,24.8591
120.3716,24.6550
120.2910,24.4334
120.2501,24.2012
120.2501,23.9655
120.2910,23.7333
120.3716,23.5117
120.4895,23.3075
120.6411,23.1269
120.8217,22.9754
121.0259,22.8575
121.2474,22.7768
121.4796,22.7359
121.5975,22.7333
125.2975,22.7333
125.3889,22.6155
125.5977,22.4027
125.8329,22.2193
126.0901,22.0686
126.3651,21.9532
126.6529,21.8751
126.9484,21.8358
127.0975,21.8333
Z" /> 
<path style="fill:none; 
stroke:#000000; stroke-width:0.1000; stroke-opacity:1; 
stroke-linecap:round; stroke-linejoin:round;fill:none"
d="M 108.1966,47.3358
108.4921,47.3751
108.7799,47.4532
109.0549,47.5686
109.3121,47.7193
109.5473,47.9027
109.7561,48.1155
109.8475,48.2333
113.5475,48.2333
113.6654,48.2359
113.8976,48.2769
114.1191,48.3575
114.3233,48.4754
114.5039,48.6269
114.6555,48.8075
114.7734,49.0117
114.8540,49.2333
114.8949,49.4655
114.8949,49.7012
114.8540,49.9334
114.7734,50.1550
114.6555,50.3592
114.5039,50.5398
114.3233,50.6913
114.1191,50.8092
113.8976,50.8898
113.6654,50.9308
113.5475,50.9333
105.3805,53.9013
105.3805,50.9333
102.5475,50.9333
102.4296,50.9308
102.1974,50.8898
101.9759,50.8092
101.7717,50.6913
101.5911,50.5398
101.4395,50.3592
101.3216,50.1550
101.2410,49.9334
101.2001,49.7012
101.2001,49.4655
101.2410,49.2333
101.3216,49.0117
101.4395,48.8075
101.5911,48.6269
101.7717,48.4754
101.9759,48.3575
102.1974,48.2769
102.4296,48.2359
102.5475,48.2333
106.2475,48.2333
106.3389,48.1155
106.5477,47.9027
106.7829,47.7193
107.0401,47.5686
107.3151,47.4532
107.6029,47.3752
107.8984,47.3358
108.0475,47.3333
Z" /> 
<path style="fill:none; 
stroke:#000000; stroke-width:0.1000; stroke-opacity:1; 
stroke-linecap:round; stroke-linejoin:round;fill:none"
d="M 70.0966,43.0858
70.3921,43.1251
70.6799,43.2032
70.9549,43.3186
71.2121,43.4693
71.4473,43.6527
71.6561,43.8655
71.7475,43.9833
75.4475,43.9833
75.5654,43.9859
75.7976,44.0269
76.0191,44.1075
76.2233,44.2254
76.4039,44.3769
76.5555,44.5575
76.6734,44.7617
76.7540,44.9833
76.7949,45.2155
76.7949,45.4512
76.7540,45.6834
76.6734,45.9050
76.5555,46.1092
76.4039,46.2898
76.2233,46.4413
76.0191,46.5592
75.7976,46.6398
75.5654,46.6808
75.4475,46.6833
67.2805,49.6513
67.2805,46.6833
64.4475,46.6833
64.3296,46.6808
64.0974,46.6398
63.8759,46.5592
63.6717,46.4413
63.4911,46.2898
63.3395,46.1092
63.2216,45.9050
63.1410,45.6834
63.1001,45.4512
63.1001,45.2155
63.1410,44.9833
63.2216,44.7617
63.3395,44.5575
63.4911,44.3769
63.6717,44.2254
63.8759,44.1075
64.0974,44.0269
64.3296,43.9859
64.4475,43.9833
68.1475,43.9833
68.2389,43.8655
68.4477,43.6527
68.6829,43.4693
68.9401,43.3186
69.2151,43.2032
69.5029,43.1252
69.7984,43.0858
69.9475,43.0833
Z" /> 
<path style="fill:none; 
stroke:#000000; stroke-width:0.1000; stroke-opacity:1; 
stroke-linecap:round; stroke-linejoin:round;fill:none"
d="M 33.8795,20.7823
33.8819,20.6766
33.9208,20.4689
33.9971,20.2718
34.1084,20.0921
34.2508,19.9358
34.4195,19.8085
34.6087,19.7142
34.8120,19.6564
35.0225,19.6369
35.2330,19.6564
35.4363,19.7142
35.6255,19.8085
35.7942,19.9358
35.9366,20.0921
36.0479,20.2718
36.1242,20.4689
36.1631,20.6766
36.1655,20.7823
36.1655,24.0843
36.1631,24.1900
36.1242,24.3978
36.0479,24.5949
35.9366,24.7746
35.7942,24.9308
35.6255,25.0582
35.4363,25.1524
35.2330,25.2103
35.0225,25.2298
34.8120,25.2103
34.6087,25.1524
34.4195,25.0582
34.2508,24.9308
34.1084,24.7746
33.9971,24.5949
33.9208,24.3978
33.8819,24.1900
33.8795,24.0843
Z" /> 
<path style="fill:none; 
stroke:#000000; stroke-width:0.1000; stroke-opacity:1; 
stroke-linecap:round; stroke-linejoin:round;fill:none"
d="M 103.6595,29.2823
103.6619,29.1767
103.7008,28.9689
103.7771,28.7718
103.8884,28.5921
104.0308,28.4358
104.1995,28.3085
104.3887,28.2142
104.5920,28.1564
104.8025,28.1369
105.0130,28.1564
105.2163,28.2142
105.4055,28.3085
105.5742,28.4358
105.7166,28.5921
105.8279,28.7718
105.9042,28.9689
105.9431,29.1767
105.9455,29.2823
105.9455,32.5843
105.9431,32.6900
105.9042,32.8978
105.8279,33.0949
105.7166,33.2746
105.5742,33.4308
105.4055,33.5582
105.2163,33.6524
105.0130,33.7103
104.8025,33.7298
104.5920,33.7103
104.3887,33.6524
104.1995,33.5582
104.0308,33.4308
103.8884,33.2746
103.7771,33.0949
103.7008,32.8978
103.6619,32.6900
103.6595,32.5843
Z" /> 
<path style="fill:none; 
stroke:#000000; stroke-width:0.1000; stroke-opacity:1; 
stroke-linecap:round; stroke-linejoin:round;fill:none"
d="M 108.1966,30.3358
108.4921,30.3751
108.7799,30.4532
109.0549,30.5686
109.3121,30.7193
109.5473,30.9027
109.7561,31.1155
109.8475,31.2333
113.5475,31.2333
113.6654,31.2359
113.8976,31.2768
114.1191,31.3575
114.3233,31.4754
114.5039,31.6269
114.6555,31.8075
114.7734,32.0117
114.8540,32.2333
114.8949,32.4655
114.8949,32.7012
114.8540,32.9334
114.7734,33.1550
114.6555,33.3591
114.5039,33.5398
114.3233,33.6913
114.1191,33.8092
113.8976,33.8898
113.6654,33.9308
113.5475,33.9333
105.3805,36.9013
105.3805,33.9333
102.5475,33.9333
102.4296,33.9308
102.1974,33.8898
101.9759,33.8092
101.7717,33.6913
101.5911,33.5398
101.4395,33.3591
101.3216,33.1550
101.2410,32.9334
101.2001,32.7012
101.2001,32.4655
101.2410,32.2333
101.3216,32.0117
101.4395,31.8075
101.5911,31.6269
101.7717,31.4754
101.9759,31.3575
102.1974,31.2768
102.4296,31.2359
102.5475,31.2333
106.2475,31.2333
106.3389,31.1155
106.5477,30.9027
106.7829,30.7193
107.0401,30.5686
107.3151,30.4532
107.6029,30.3751
107.8984,30.3358
108.0475,30.3333
Z" /> 
<path style="fill:none; 
stroke:#000000; stroke-width:0.1000; stroke-opacity:1; 
stroke-linecap:round; stroke-linejoin:round;fill:none"
d="M 51.0466,13.3358
51.3421,13.3751
51.6299,13.4532
51.9049,13.5686
52.1621,13.7193
52.3973,13.9027
52.6061,14.1155
52.6975,14.2333
56.3975,14.2333
56.5154,14.2359
56.7476,14.2768
56.9691,14.3575
57.1733,14.4754
57.3539,14.6269
57.5055,14.8075
57.6234,15.0117
57.7040,15.2333
57.7449,15.4655
57.7449,15.7012
57.7040,15.9334
57.6234,16.1550
57.5055,16.3591
57.3539,16.5398
57.1733,16.6913
56.9691,16.8092
56.7476,16.8898
56.5154,16.9308
56.3975,16.9333
48.2305,19.9013
48.2305,16.9333
45.3975,16.9333
45.2796,16.9308
45.0474,16.8898
44.8259,16.8092
44.6217,16.6913
44.4411,16.5398
44.2895,16.3591
44.1716,16.1550
44.0910,15.9334
44.0501,15.7012
44.0501,15.4655
44.0910,15.2333
44.1716,15.0117
44.2895,14.8075
44.4411,14.6269
44.6217,14.4754
44.8259,14.3575
45.0474,14.2768
45.2796,14.2359
45.3975,14.2333
49.0975,14.2333
49.1889,14.1155
49.3977,13.9027
49.6329,13.7193
49.8901,13.5686
50.1651,13.4532
50.4529,13.3751
50.7484,13.3358
50.8975,13.3333
Z" /> 
<path style="fill:none; 
stroke:#000000; stroke-width:0.1000; stroke-opacity:1; 
stroke-linecap:round; stroke-linejoin:round;fill:none"
d="M 122.7095,20.7823
122.7119,20.6766
122.7508,20.4689
122.8271,20.2718
122.9384,20.0921
123.0808,19.9358
123.2495,19.8085
123.4387,19.7142
123.6420,19.6564
123.8525,19.6369
124.0630,19.6564
124.2663,19.7142
124.4555,19.8085
124.6242,19.9358
124.7666,20.0921
124.8779,20.2718
124.9542,20.4689
124.9931,20.6766
124.9955,20.7823
124.9955,24.0843
124.9931,24.1900
124.9542,24.3978
124.8779,24.5949
124.7666,24.7746
124.6242,24.9308
124.4555,25.0582
124.2663,25.1524
124.0630,25.2103
123.8525,25.2298
123.6420,25.2103
123.4387,25.1524
123.2495,25.0582
123.0808,24.9308
122.9384,24.7746
122.8271,24.5949
122.7508,24.3978
122.7119,24.1900
122.7095,24.0843
Z" /> 
<path style="fill:none; 
stroke:#000000; stroke-width:0.1000; stroke-opacity:1; 
stroke-linecap:round; stroke-linejoin:round;fill:none"
d="M 103.6595,46.2823
103.6619,46.1767
103.7008,45.9689
103.7771,45.7718
103.8884,45.5921
104.0308,45.4358
104.1995,45.3085
104.3887,45.2142
104.5920,45.1564
104.8025,45.1369
105.0130,45.1564
105.2163,45.2142
105.4055,45.3085
105.5742,45.4358
105.7166,45.5921
105.8279,45.7718
105.9042,45.9689
105.9431,46.1767
105.9455,46.2823
105.9455,49.5843
105.9431,49.6900
105.9042,49.8978
105.8279,50.0949
105.7166,50.2746
105.5742,50.4308
105.4055,50.5582
105.2163,50.6524
105.0130,50.7103
104.8025,50.7298
104.5920,50.7103
104.3887,50.6524
104.1995,50.5582
104.0308,50.4308
103.8884,50.2746
103.7771,50.0949
103.7008,49.8978
103.6619,49.6900
103.6595,49.5843
Z" /> 
<path style="fill:none; 
stroke:#000000; stroke-width:0.1000; stroke-opacity:1; 
stroke-linecap:round; stroke-linejoin:round;fill:none"
d="M 84.6095,26.6823
84.6119,26.5767
84.6508,26.3689
84.7271,26.1718
84.8384,25.9921
84.9808,25.8358
85.1495,25.7085
85.3387,25.6142
85.5420,25.5564
85.7525,25.5369
85.9630,25.5564
86.1663,25.6142
86.3555,25.7085
86.5242,25.8358
86.6666,25.9921
86.7779,26.1718
86.8542,26.3689
86.8931,26.5767
86.8955,26.6823
86.8955,29.9843
86.8931,30.0900
86.8542,30.2978
86.7779,30.4949
86.6666,30.6746
86.5242,30.8308
86.3555,30.9582
86.1663,31.0524
85.9630,31.1103
85.7525,31.1298
85.5420,31.1103
85.3387,31.0524
85.1495,30.9582
84.9808,30.8308
84.8384,30.6746
84.7271,30.4949
84.6508,30.2978
84.6119,30.0900
84.6095,29.9843
Z" /> 
<path style="fill:none; 
stroke:#000000; stroke-width:0.1000; stroke-opacity:1; 
stroke-linecap:round; stroke-linejoin:round;fill:none"
d="M 46.5095,29.2823
46.5119,29.1767
46.5508,28.9689
46.6271,28.7718
46.7384,28.5921
46.8808,28.4358
47.0495,28.3085
47.2387,28.2142
47.4420,28.1564
47.6525,28.1369
47.8630,28.1564
48.0663,28.2142
48.2555,28.3085
48.4242,28.4358
48.5666,28.5921
48.6779,28.7718
48.7542,28.9689
48.7931,29.1767
48.7955,29.2823
48.7955,32.5843
48.7931,32.6900
48.7542,32.8978
48.6779,33.0949
48.5666,33.2746
48.4242,33.4308
48.2555,33.5582
48.0663,33.6524
47.8630,33.7103
47.6525,33.7298
47.4420,33.7103
47.2387,33.6524
47.0495,33.5582
46.8808,33.4308
46.7384,33.2746
46.6271,33.0949
46.5508,32.8978
46.5119,32.6900
46.5095,32.5843
Z" /> 
<path style="fill:none; 
stroke:#000000; stroke-width:0.1000; stroke-opacity:1; 
stroke-linecap:round; stroke-linejoin:round;fill:none"
d="M 103.6595,13.9548
103.6619,13.8491
103.7008,13.6414
103.7771,13.4443
103.8884,13.2645
104.0308,13.1083
104.1995,12.9810
104.3887,12.8867
104.5920,12.8289
104.8025,12.8094
105.0130,12.8289
105.2163,12.8867
105.4055,12.9810
105.5742,13.1083
105.7166,13.2645
105.8279,13.4443
105.9042,13.6414
105.9431,13.8491
105.9455,13.9548
105.9455,17.2568
105.9431,17.3625
105.9042,17.5703
105.8279,17.7674
105.7166,17.9471
105.5742,18.1033
105.4055,18.2307
105.2163,18.3249
105.0130,18.3828
104.8025,18.4023
104.5920,18.3828
104.3887,18.3249
104.1995,18.2307
104.0308,18.1033
103.8884,17.9471
103.7771,17.7674
103.7008,17.5703
103.6619,17.3625
103.6595,17.2568
Z" /> 
<path style="fill:none; 
stroke:#000000; stroke-width:0.1000; stroke-opacity:1; 
stroke-linecap:round; stroke-linejoin:round;fill:none"
d="M 65.5595,26.6823
65.5619,26.5767
65.6008,26.3689
65.6771,26.1718
65.7884,25.9921
65.9308,25.8358
66.0995,25.7085
66.2887,25.6142
66.4920,25.5564
66.7025,25.5369
66.9130,25.5564
67.1163,25.6142
67.3055,25.7085
67.4742,25.8358
67.6166,25.9921
67.7279,26.1718
67.8042,26.3689
67.8431,26.5767
67.8455,26.6823
67.8455,29.9843
67.8431,30.0900
67.8042,30.2978
67.7279,30.4949
67.6166,30.6746
67.4742,30.8308
67.3055,30.9582
67.1163,31.0524
66.9130,31.1103
66.7025,31.1298
66.4920,31.1103
66.2887,31.0524
66.0995,30.9582
65.9308,30.8308
65.7884,30.6746
65.6771,30.4949
65.6008,30.2978
65.5619,30.0900
65.5595,29.9843
Z" /> 
<path style="fill:none; 
stroke:#000000; stroke-width:0.1000; stroke-opacity:1; 
stroke-linecap:round; stroke-linejoin:round;fill:none"
d="M 46.5095,14.0678
46.5119,13.9621
46.5508,13.7544
46.6271,13.5573
46.7384,13.3775
46.8808,13.2213
47.0495,13.0940
47.2387,12.9997
47.4420,12.9419
47.6525,12.9224
47.8630,12.9419
48.0663,12.9997
48.2555,13.0940
48.4242,13.2213
48.5666,13.3775
48.6779,13.5573
48.7542,13.7544
48.7931,13.9621
48.7955,14.0678
48.7955,17.3698
48.7931,17.4755
48.7542,17.6833
48.6779,17.8804
48.5666,18.0601
48.4242,18.2163
48.2555,18.3437
48.0663,18.4379
47.8630,18.4958
47.6525,18.5153
47.4420,18.4958
47.2387,18.4379
47.0495,18.3437
46.8808,18.2163
46.7384,18.0601
46.6271,17.8804
46.5508,17.6833
46.5119,17.4755
46.5095,17.3698
Z" /> 
<path style="fill:none; 
stroke:#000000; stroke-width:0.1000; stroke-opacity:1; 
stroke-linecap:round; stroke-linejoin:round;fill:none"
d="M 91.4522,68.8745
91.4758,68.7661
91.5553,68.5590
91.6695,68.3689
91.8150,68.2015
91.9874,68.0619
92.1814,67.9544
92.3911,67.8822
92.6101,67.8475
92.8319,67.8513
92.9412,67.8701
96.6207,68.5853
96.7292,68.6087
96.9363,68.6882
97.1264,68.8025
97.2938,68.9480
97.4334,69.1204
97.5410,69.3144
97.6132,69.5242
97.6479,69.7432
97.6440,69.9650
97.6251,70.0743
97.6087,70.1588
97.5897,70.2681
97.5859,70.4899
97.6206,70.7090
97.6928,70.9187
97.8003,71.1127
97.9399,71.2851
98.1073,71.4306
98.2975,71.5449
98.5046,71.6244
98.6130,71.6478
102.7233,72.4467
102.8327,72.4655
103.0544,72.4694
103.2735,72.4347
103.4832,72.3625
103.6772,72.2549
103.8496,72.1154
103.9951,71.9480
104.1093,71.7579
104.1888,71.5508
104.2123,71.4424
104.2287,71.3580
104.2521,71.2495
104.3316,71.0424
104.4459,70.8523
104.5914,70.6849
104.7638,70.5453
104.9578,70.4377
105.1675,70.3655
105.3866,70.3308
105.6084,70.3347
105.7177,70.3536
109.3972,71.0688
109.5056,71.0924
109.7127,71.1719
109.9028,71.2861
110.0702,71.4316
110.2098,71.6040
110.3173,71.7980
110.3895,72.0077
110.4242,72.2268
110.4204,72.4485
110.4016,72.5578
108.8022,80.7858
91.0995,77.3448
90.9911,77.3214
90.7840,77.2419
90.5939,77.1277
90.4265,76.9821
90.2869,76.8097
90.1793,76.6157
90.1071,76.4060
90.0724,76.1869
90.0763,75.9651
90.0952,75.8558
Z" /> 
<path style="fill:none; 
stroke:#000000; stroke-width:0.1000; stroke-opacity:1; 
stroke-linecap:round; stroke-linejoin:round;fill:none"
d="M 46.5095,46.2823
46.5119,46.1767
46.5508,45.9689
46.6271,45.7718
46.7384,45.5921
46.8808,45.4358
47.0495,45.3085
47.2387,45.2142
47.4420,45.1564
47.6525,45.1369
47.8630,45.1564
48.0663,45.2142
48.2555,45.3085
48.4242,45.4358
48.5666,45.5921
48.6779,45.7718
48.7542,45.9689
48.7931,46.1767
48.7955,46.2823
48.7955,49.5843
48.7931,49.6900
48.7542,49.8978
48.6779,50.0949
48.5666,50.2746
48.4242,50.4308
48.2555,50.5582
48.0663,50.6524
47.8630,50.7103
47.6525,50.7298
47.4420,50.7103
47.2387,50.6524
47.0495,50.5582
46.8808,50.4308
46.7384,50.2746
46.6271,50.0949
46.5508,49.8978
46.5119,49.6900
46.5095,49.5843
Z" /> 
<path style="fill:none; 
stroke:#000000; stroke-width:0.1000; stroke-opacity:1; 
stroke-linecap:round; stroke-linejoin:round;fill:none"
d="M 89.1466,9.0858
89.4421,9.1251
89.7299,9.2032
90.0049,9.3186
90.2621,9.4693
90.4973,9.6527
90.7061,9.8655
90.7975,9.9833
94.4975,9.9833
94.6154,9.9859
94.8476,10.0268
95.0691,10.1075
95.2733,10.2254
95.4539,10.3769
95.6055,10.5575
95.7234,10.7617
95.8040,10.9833
95.8449,11.2155
95.8449,11.4512
95.8040,11.6834
95.7234,11.9050
95.6055,12.1091
95.4539,12.2898
95.2733,12.4413
95.0691,12.5592
94.8476,12.6398
94.6154,12.6808
94.4975,12.6833
86.3305,15.6513
86.3305,12.6833
83.4975,12.6833
83.3796,12.6808
83.1474,12.6398
82.9259,12.5592
82.7217,12.4413
82.5411,12.2898
82.3895,12.1091
82.2716,11.9050
82.1910,11.6834
82.1501,11.4512
82.1501,11.2155
82.1910,10.9833
82.2716,10.7617
82.3895,10.5575
82.5411,10.3769
82.7217,10.2254
82.9259,10.1075
83.1474,10.0268
83.3796,9.9859
83.4975,9.9833
87.1975,9.9833
87.2889,9.8655
87.4977,9.6527
87.7329,9.4693
87.9901,9.3186
88.2651,9.2032
88.5529,9.1251
88.8484,9.0858
88.9975,9.0833
Z" /> 
<path style="fill:none; 
stroke:#000000; stroke-width:0.1000; stroke-opacity:1; 
stroke-linecap:round; stroke-linejoin:round;fill:none"
d="M 65.5595,42.0323
65.5619,41.9267
65.6008,41.7189
65.6771,41.5218
65.7884,41.3421
65.9308,41.1858
66.0995,41.0585
66.2887,40.9642
66.4920,40.9064
66.7025,40.8869
66.9130,40.9064
67.1163,40.9642
67.3055,41.0585
67.4742,41.1858
67.6166,41.3421
67.7279,41.5218
67.8042,41.7189
67.8431,41.9267
67.8455,42.0323
67.8455,45.3343
67.8431,45.4400
67.8042,45.6478
67.7279,45.8449
67.6166,46.0246
67.4742,46.1808
67.3055,46.3082
67.1163,46.4024
66.9130,46.4603
66.7025,46.4798
66.4920,46.4603
66.2887,46.4024
66.0995,46.3082
65.9308,46.1808
65.7884,46.0246
65.6771,45.8449
65.6008,45.6478
65.5619,45.4400
65.5595,45.3343
Z" /> 
<path style="fill:none; 
stroke:#000000; stroke-width:0.1000; stroke-opacity:1; 
stroke-linecap:round; stroke-linejoin:round;fill:none"
d="M 89.1466,26.0858
89.4421,26.1251
89.7299,26.2032
90.0049,26.3186
90.2621,26.4693
90.4973,26.6527
90.7061,26.8655
90.7975,26.9833
94.4975,26.9833
94.6154,26.9859
94.8476,27.0268
95.0691,27.1075
95.2733,27.2254
95.4539,27.3769
95.6055,27.5575
95.7234,27.7617
95.8040,27.9833
95.8449,28.2155
95.8449,28.4512
95.8040,28.6834
95.7234,28.9050
95.6055,29.1091
95.4539,29.2898
95.2733,29.4413
95.0691,29.5592
94.8476,29.6398
94.6154,29.6808
94.4975,29.6833
86.3305,32.6513
86.3305,29.6833
83.4975,29.6833
83.3796,29.6808
83.1474,29.6398
82.9259,29.5592
82.7217,29.4413
82.5411,29.2898
82.3895,29.1091
82.2716,28.9050
82.1910,28.6834
82.1501,28.4512
82.1501,28.2155
82.1910,27.9833
82.2716,27.7617
82.3895,27.5575
82.5411,27.3769
82.7217,27.2254
82.9259,27.1075
83.1474,27.0268
83.3796,26.9859
83.4975,26.9833
87.1975,26.9833
87.2889,26.8655
87.4977,26.6527
87.7329,26.4693
87.9901,26.3186
88.2651,26.2032
88.5529,26.1251
88.8484,26.0858
88.9975,26.0833
Z" /> 
<path style="fill:none; 
stroke:#000000; stroke-width:0.1000; stroke-opacity:1; 
stroke-linecap:round; stroke-linejoin:round;fill:none"
d="M 84.6095,42.0323
84.6119,41.9267
84.6508,41.7189
84.7271,41.5218
84.8384,41.3421
84.9808,41.1858
85.1495,41.0585
85.3387,40.9642
85.5420,40.9064
85.7525,40.8869
85.9630,40.9064
86.1663,40.9642
86.3555,41.0585
86.5242,41.1858
86.6666,41.3421
86.7779,41.5218
86.8542,41.7189
86.8931,41.9267
86.8955,42.0323
86.8955,45.3343
86.8931,45.4400
86.8542,45.6478
86.7779,45.8449
86.6666,46.0246
86.5242,46.1808
86.3555,46.3082
86.1663,46.4024
85.9630,46.4603
85.7525,46.4798
85.5420,46.4603
85.3387,46.4024
85.1495,46.3082
84.9808,46.1808
84.8384,46.0246
84.7271,45.8449
84.6508,45.6478
84.6119,45.4400
84.6095,45.3343
Z" /> 
<path style="fill:none; 
stroke:#000000; stroke-width:0.1000; stroke-opacity:1; 
stroke-linecap:round; stroke-linejoin:round;fill:none"
d="M 89.1466,43.0858
89.4421,43.1251
89.7299,43.2032
90.0049,43.3186
90.2621,43.4693
90.4973,43.6527
90.7061,43.8655
90.7975,43.9833
94.4975,43.9833
94.6154,43.9859
94.8476,44.0269
95.0691,44.1075
95.2733,44.2254
95.4539,44.3769
95.6055,44.5575
95.7234,44.7617
95.8040,44.9833
95.8449,45.2155
95.8449,45.4512
95.8040,45.6834
95.7234,45.9050
95.6055,46.1092
95.4539,46.2898
95.2733,46.4413
95.0691,46.5592
94.8476,46.6398
94.6154,46.6808
94.4975,46.6833
86.3305,49.6513
86.3305,46.6833
83.4975,46.6833
83.3796,46.6808
83.1474,46.6398
82.9259,46.5592
82.7217,46.4413
82.5411,46.2898
82.3895,46.1092
82.2716,45.9050
82.1910,45.6834
82.1501,45.4512
82.1501,45.2155
82.1910,44.9833
82.2716,44.7617
82.3895,44.5575
82.5411,44.3769
82.7217,44.2254
82.9259,44.1075
83.1474,44.0269
83.3796,43.9859
83.4975,43.9833
87.1975,43.9833
87.2889,43.8655
87.4977,43.6527
87.7329,43.4693
87.9901,43.3186
88.2651,43.2032
88.5529,43.1252
88.8484,43.0858
88.9975,43.0833
Z" /> 
<path style="fill:none; 
stroke:#000000; stroke-width:0.1000; stroke-opacity:1; 
stroke-linecap:round; stroke-linejoin:round;fill:none"
d="M 70.0966,9.0858
70.3921,9.1251
70.6799,9.2032
70.9549,9.3186
71.2121,9.4693
71.4473,9.6527
71.6561,9.8655
71.7475,9.9833
75.4475,9.9833
75.5654,9.9859
75.7976,10.0268
76.0191,10.1075
76.2233,10.2254
76.4039,10.3769
76.5555,10.5575
76.6734,10.7617
76.7540,10.9833
76.7949,11.2155
76.7949,11.4512
76.7540,11.6834
76.6734,11.9050
76.5555,12.1091
76.4039,12.2898
76.2233,12.4413
76.0191,12.5592
75.7976,12.6398
75.5654,12.6808
75.4475,12.6833
67.2805,15.6513
67.2805,12.6833
64.4475,12.6833
64.3296,12.6808
64.0974,12.6398
63.8759,12.5592
63.6717,12.4413
63.4911,12.2898
63.3395,12.1091
63.2216,11.9050
63.1410,11.6834
63.1001,11.4512
63.1001,11.2155
63.1410,10.9833
63.2216,10.7617
63.3395,10.5575
63.4911,10.3769
63.6717,10.2254
63.8759,10.1075
64.0974,10.0268
64.3296,9.9859
64.4475,9.9833
68.1475,9.9833
68.2389,9.8655
68.4477,9.6527
68.6829,9.4693
68.9401,9.3186
69.2151,9.2032
69.5029,9.1251
69.7984,9.0858
69.9475,9.0833
Z" /> 
<path style="fill:none; 
stroke:#000000; stroke-width:0.1000; stroke-opacity:1; 
stroke-linecap:round; stroke-linejoin:round;fill:none"
d="M 84.6095,9.7048
84.6119,9.5991
84.6508,9.3914
84.7271,9.1943
84.8384,9.0145
84.9808,8.8583
85.1495,8.7310
85.3387,8.6367
85.5420,8.5789
85.7525,8.5594
85.9630,8.5789
86.1663,8.6367
86.3555,8.7310
86.5242,8.8583
86.6666,9.0145
86.7779,9.1943
86.8542,9.3914
86.8931,9.5991
86.8955,9.7048
86.8955,13.0068
86.8931,13.1125
86.8542,13.3203
86.7779,13.5174
86.6666,13.6971
86.5242,13.8533
86.3555,13.9807
86.1663,14.0749
85.9630,14.1328
85.7525,14.1523
85.5420,14.1328
85.3387,14.0749
85.1495,13.9807
84.9808,13.8533
84.8384,13.6971
84.7271,13.5174
84.6508,13.3203
84.6119,13.1125
84.6095,13.0068
Z" /> 
</g> 
</svg>
