<?xml version="1.0" encoding="UTF-8" standalone="no"?>
<!DOCTYPE svg PUBLIC "-//W3C//DTD SVG 1.1//EN" "http://www.w3.org/Graphics/SVG/1.1/DTD/svg11.dtd">
<svg width="1140px" height="375px" version="1.1" xmlns="http://www.w3.org/2000/svg" xmlns:xlink="http://www.w3.org/1999/xlink" xml:space="preserve" xmlns:serif="http://www.serif.com/" style="fill-rule:evenodd;clip-rule:evenodd;stroke-linecap:round;stroke-linejoin:round;">
    <g transform="matrix(1.33333,0,0,1.33333,0,0)">
        <g>
            <path d="M34.476,36.142L76.776,36.142C170.458,-9.441 280.095,-9.441 373.776,36.142L416.076,36.142C420.026,36.142 423.276,39.392 423.276,43.342L423.276,141.383C423.276,145.332 420.026,148.583 416.076,148.583L342.276,148.583C339.332,161.78 329.357,172.341 316.35,176.034L318.542,186.35L390.088,200.257C392.907,200.805 394.962,203.297 394.962,206.169C394.962,206.555 394.925,206.94 394.851,207.319L385.657,254.623C385.109,257.442 382.616,259.497 379.744,259.497C379.358,259.497 378.973,259.46 378.594,259.386L253.379,235.047C250.135,234.416 247.985,231.228 248.615,227.985L257.81,180.681C258.358,177.861 260.85,175.807 263.723,175.807C264.109,175.807 264.494,175.844 264.872,175.917L287.249,180.267L290.611,173.944C284.377,171.02 279.084,166.407 275.335,160.63L175.217,160.63C168.423,171.1 156.758,177.436 144.276,177.436C127.061,177.436 112.025,165.385 108.276,148.583L34.476,148.583C30.527,148.583 27.276,145.333 27.276,141.383L27.276,43.342C27.276,39.392 30.527,36.142 34.476,36.142Z" style="fill:rgb(0,255,159);fill-rule:nonzero;stroke:black;stroke-width:0.14px;"/>
        </g>
    </g>
</svg>
