<?xml version="1.0" standalone="no"?>
 <!DOCTYPE svg PUBLIC "-//W3C//DTD SVG 1.1//EN" 
 "http://www.w3.org/Graphics/SVG/1.1/DTD/svg11.dtd"> 
<svg
  xmlns:svg="http://www.w3.org/2000/svg"
  xmlns="http://www.w3.org/2000/svg"
  xmlns:xlink="http://www.w3.org/1999/xlink"
  version="1.1"
  width="301.6250mm" height="99.1616mm" viewBox="0.0000 0.0000 301.6250 99.1616">
<title>SVG Image created as Alufo-User_9.svg date 2024/11/09 20:54:08 </title>
  <desc>Image generated by PCBNEW </desc>
<g style="fill:#000000; fill-opacity:1.0000;stroke:#000000; stroke-opacity:1.0000;
stroke-linecap:round; stroke-linejoin:round;"
 transform="translate(0 0) scale(1 1)">
<path style="fill:none; 
stroke:#000000; stroke-width:0.1000; stroke-opacity:1; 
stroke-linecap:round; stroke-linejoin:round;fill:none"
d="M 146.6805,14.2154
146.6825,14.2662
146.7161,14.3620
146.7462,14.4028
147.0148,14.7385
147.0449,14.7794
147.0785,14.8751
147.0805,14.9259
147.0805,15.7154
147.0785,15.7662
147.0449,15.8620
147.0148,15.9028
146.7462,16.2385
146.7161,16.2794
146.6825,16.3751
146.6805,16.4259
146.6805,18.1454
146.6825,18.1962
146.7161,18.2920
146.7462,18.3328
147.0148,18.6685
147.0449,18.7094
147.0785,18.8051
147.0805,18.8559
147.0805,19.8507
147.0783,19.9489
147.0399,20.1417
146.9647,20.3233
146.8555,20.4867
146.7165,20.6257
146.5531,20.7349
146.3715,20.8101
146.1788,20.8484
146.0805,20.8507
138.0805,20.8507
137.9822,20.8483
137.7895,20.8099
137.6080,20.7347
137.4446,20.6255
137.3056,20.4866
137.1964,20.3232
137.1212,20.1416
137.0829,19.9489
137.0805,19.8507
137.0805,18.8559
137.0825,18.8051
137.1161,18.7093
137.1462,18.6685
137.4148,18.3328
137.4449,18.2920
137.4785,18.1962
137.4805,18.1454
137.4805,16.4259
137.4785,16.3751
137.4449,16.2794
137.4148,16.2385
137.1462,15.9028
137.1161,15.8620
137.0825,15.7662
137.0805,15.7154
137.0805,14.9259
137.0825,14.8751
137.1161,14.7794
137.1462,14.7385
137.4148,14.4028
137.4449,14.3620
137.4785,14.2662
137.4805,14.2154
137.4805,12.2207
146.6805,12.2207
Z" /> 
</g>
<g style="fill:none; 
stroke:#000000; stroke-width:0.1000; stroke-opacity:1; 
stroke-linecap:round; stroke-linejoin:round;">
<circle cx="79.4725" cy="42.5000" r="2.5000" /> 
<circle cx="79.4725" cy="19.8333" r="3.3500" /> 
<circle cx="117.8265" cy="32.1865" r="3.3500" /> 
<circle cx="112.0279" cy="76.4965" r="3.3500" /> 
<circle cx="108.0321" cy="9.6333" r="1.3000" /> 
<path style="fill:none; 
stroke:#000000; stroke-width:0.1000; stroke-opacity:1; 
stroke-linecap:round; stroke-linejoin:round;fill:none"
d="M 143.1203,40.3333
143.1710,40.3353
143.2668,40.3689
143.3077,40.3991
143.6433,40.6676
143.6842,40.6978
143.7800,40.7314
143.8307,40.7333
145.5503,40.7333
145.6010,40.7314
145.6968,40.6978
145.7377,40.6676
146.0733,40.3991
146.1142,40.3689
146.2100,40.3353
146.2607,40.3333
147.0503,40.3333
147.1010,40.3353
147.1968,40.3689
147.2377,40.3991
147.5733,40.6676
147.6142,40.6978
147.7100,40.7314
147.7607,40.7333
149.7555,40.7333
149.7555,49.9333
147.7607,49.9333
147.7100,49.9353
147.6142,49.9689
147.5733,49.9991
147.2377,50.2676
147.1968,50.2978
147.1010,50.3314
147.0503,50.3333
146.2607,50.3333
146.2100,50.3314
146.1142,50.2978
146.0733,50.2676
145.7377,49.9991
145.6968,49.9689
145.6010,49.9353
145.5503,49.9333
143.8307,49.9333
143.7800,49.9353
143.6842,49.9689
143.6433,49.9991
143.3077,50.2676
143.2668,50.2978
143.1710,50.3314
143.1203,50.3333
142.1255,50.3333
142.0272,50.3311
141.8345,50.2928
141.6529,50.2175
141.4895,50.1083
141.3505,49.9694
141.2413,49.8060
141.1661,49.6244
141.1277,49.4316
141.1255,49.3333
141.1255,41.3333
141.1279,41.2351
141.1662,41.0424
141.2414,40.8608
141.3506,40.6974
141.4896,40.5585
141.6530,40.4493
141.8345,40.3741
142.0272,40.3358
142.1255,40.3333
Z" /> 
<circle cx="79.4925" cy="5.2833" r="0.9750" /> 
<circle cx="41.1185" cy="32.1865" r="3.3500" /> 
</g> 
</svg>
