<?xml version="1.0" standalone="no"?>
 <!DOCTYPE svg PUBLIC "-//W3C//DTD SVG 1.1//EN" 
 "http://www.w3.org/Graphics/SVG/1.1/DTD/svg11.dtd"> 
<svg
  xmlns:svg="http://www.w3.org/2000/svg"
  xmlns="http://www.w3.org/2000/svg"
  xmlns:xlink="http://www.w3.org/1999/xlink"
  version="1.1"
  width="301.6250mm" height="99.1616mm" viewBox="0.0000 0.0000 301.6250 99.1616">
<title>SVG Image created as Alufo-User_2.svg date 2024/11/09 19:07:55 </title>
  <desc>Image generated by PCBNEW </desc>
<g style="fill:#000000; fill-opacity:1.0000;stroke:#000000; stroke-opacity:1.0000;
stroke-linecap:round; stroke-linejoin:round;"
 transform="translate(0 0) scale(1 1)">
<path style="fill:none; 
stroke:#000000; stroke-width:0.1000; stroke-opacity:1; 
stroke-linecap:round; stroke-linejoin:round;fill:none"
d="M 76.3675,19.8333
80.0175,19.8333
80.0175,32.0833
76.3675,32.0833
Z" /> 
<path style="fill:none; 
stroke:#000000; stroke-width:0.1000; stroke-opacity:1; 
stroke-linecap:round; stroke-linejoin:round;fill:none"
d="M 59.9675,19.3333
60.0658,19.3358
60.2585,19.3741
60.4400,19.4493
60.6034,19.5585
60.7424,19.6974
60.8515,19.8608
60.9267,20.0424
60.9651,20.2351
60.9675,20.3333
60.9675,28.4517
60.9651,28.5499
60.9268,28.7426
60.8516,28.9242
60.7424,29.0876
60.6034,29.2265
60.4400,29.3357
60.2585,29.4109
60.0658,29.4493
59.9675,29.4517
58.3175,29.4517
58.2192,29.4493
58.0265,29.4109
57.8450,29.3357
57.6816,29.2265
57.5426,29.0876
57.4334,28.9242
57.3582,28.7426
57.3199,28.5499
57.3175,28.4517
57.3175,20.3333
57.3199,20.2351
57.3582,20.0423
57.4334,19.8608
57.5426,19.6974
57.6816,19.5585
57.8450,19.4493
58.0265,19.3741
58.2192,19.3357
58.3175,19.3333
Z" /> 
<path style="fill:none; 
stroke:#000000; stroke-width:0.1000; stroke-opacity:1; 
stroke-linecap:round; stroke-linejoin:round;fill:none"
d="M 98.0675,22.4667
98.1658,22.4691
98.3585,22.5074
98.5400,22.5826
98.7034,22.6918
98.8424,22.8307
98.9516,22.9941
99.0268,23.1757
99.0651,23.3684
99.0675,23.4667
99.0675,31.0833
99.0652,31.1816
99.0269,31.3744
98.9517,31.5560
98.8425,31.7194
98.7035,31.8583
98.5401,31.9675
98.3585,32.0427
98.1658,32.0811
98.0675,32.0833
96.4175,32.0833
96.3192,32.0811
96.1265,32.0428
95.9449,31.9676
95.7815,31.8584
95.6425,31.7194
95.5333,31.5560
95.4581,31.3744
95.4197,31.1816
95.4175,31.0833
95.4175,23.4667
95.4199,23.3684
95.4582,23.1757
95.5334,22.9941
95.6426,22.8307
95.7816,22.6918
95.9450,22.5826
96.1265,22.5074
96.3192,22.4691
96.4175,22.4667
Z" /> 
<path style="fill:none; 
stroke:#000000; stroke-width:0.1000; stroke-opacity:1; 
stroke-linecap:round; stroke-linejoin:round;fill:none"
d="M 114.4675,19.3333
118.1175,19.3333
118.1175,32.1865
114.4675,32.1865
Z" /> 
</g> 
</svg>
